<svg width="468" height="256" viewBox="0 0 468 256" fill="none" xmlns="http://www.w3.org/2000/svg">
<g clip-path="url(#clip0_207_6640)">
<path d="M213.568 64.0331C214.053 63.875 214.843 63.3896 215.171 62.7574C213.409 59.2354 210.531 50.9044 210.531 45.7794C210.531 43.7023 210.847 42.5734 211.016 42.0993C210.373 41.4558 208.454 40.9817 206.535 40.9817C205.417 40.9817 205.09 41.9412 205.09 43.5442C205.09 48.0258 207.652 56.0407 213.579 64.0443L213.568 64.0331ZM250.888 117.044C250.244 116.401 248.641 115.927 247.05 115.927H246.406C252.333 111.445 256.498 105.677 258.259 98.7907C257.458 102.313 257.142 104.401 257.142 107.754C256.984 112.393 255.539 113.195 250.899 117.044H250.888ZM190.031 87.5811C189.071 84.7025 188.586 82.298 188.586 80.537C188.586 77.4891 190.031 75.0959 192.424 75.0959C194.817 75.0959 196.262 76.8569 196.589 79.2614C194.67 79.1034 192.909 79.9049 191.95 82.4674L190.031 87.5924V87.5811ZM199.795 134.181L193.395 126.651C191.476 124.574 190.516 121.041 190.189 117.519C189.703 112.552 189.229 107.912 188.428 102.46C188.27 101.184 188.112 100.213 188.112 99.4116C188.112 97.9666 188.428 96.8491 189.071 95.5734C190.516 92.3675 193.079 85.6395 194.038 82.7609C194.354 81.9594 194.998 81.3159 195.957 81.3159C198.678 81.3159 200.439 84.996 200.439 89.1615C200.439 93.327 198.52 98.6101 196.917 99.897C196.431 100.213 195.957 100.54 195.957 101.015C195.957 101.489 196.443 101.658 197.075 101.658H197.56C199.005 106.625 201.24 111.75 203.645 115.272C200.924 123.919 199.965 124.879 199.807 129.202V134.169L199.795 134.181ZM207.009 155.369C207.427 155.437 207.991 155.414 208.059 154.895C208.093 154.579 208.059 154.252 207.573 153.62C205.97 151.542 202.042 145.243 202.042 142.195C202.042 139.475 202.358 136.912 202.358 133.864C202.358 132.103 202.2 130.986 202.2 129.055C202.358 122.655 207.325 116.401 209.887 99.1068C210.045 97.9892 210.847 97.3458 212.134 97.3458C215.814 97.3458 217.575 101.985 217.575 105.677C217.417 110 215.972 114.166 214.527 115.283C214.042 115.769 213.568 116.085 213.568 116.559C213.568 117.033 214.053 117.202 214.685 117.202H215.171C215.329 118.004 215.487 119.449 215.487 120.724C215.329 126.166 214.211 127.769 213.24 128.728C212.924 129.214 212.439 129.53 212.439 130.004C212.439 130.478 212.924 130.647 213.398 130.647H214.042C214.358 131.607 215.645 134.011 215.645 138.493C215.645 139.768 215.419 141.642 215.419 142.128C215.419 142.929 215.735 143.087 216.062 143.087C217.022 143.087 217.564 140.096 217.564 136.89C217.564 133.684 216.288 131.449 216.288 130.162C216.288 128.085 217.733 125.522 217.733 120.871C220.939 121.673 224.134 121.989 227.667 121.989C231.505 121.989 235.197 121.187 238.561 120.228C237.116 121.345 232.476 125.353 232.476 127.43C232.476 127.588 232.634 127.915 232.792 127.915C233.108 127.915 233.435 127.757 233.91 127.272C237.748 123.434 243.844 118.139 247.038 118.139C247.682 118.139 248.641 118.297 249.115 118.783C243.99 124.551 241.654 130.015 241.405 133.684C241.191 136.878 241.902 141.067 243.336 141.067C243.821 141.067 244.137 140.75 244.137 140.107C244.137 139.306 243.403 137.815 243.482 134.813C243.719 126.324 253.755 116.232 259.512 113.5C259.828 113.184 259.998 113.014 259.998 112.698C259.998 112.055 259.512 111.739 259.512 108.86V107.743C259.512 100.857 260.63 99.2535 260.63 97.4925C260.63 96.2169 259.828 93.4851 258.711 89.805C258.553 86.757 257.909 83.235 257.266 80.3564C257.909 77.4778 260.472 71.8674 263.836 71.8674C264.637 71.8674 265.439 72.6689 265.597 73.3123C270.236 87.8859 274.887 86.9264 274.887 95.2574C274.887 106.467 278.206 108.725 277.766 115.441C277.326 122.158 275.203 133.086 272.799 138.685C272.483 139.486 272.483 139.802 273.442 139.802C275.045 139.802 276.005 137.556 276.648 135.321C278.093 130.512 280.035 121.808 280.328 114.798C280.599 108.397 276.964 105.665 276.964 95.2574C276.964 85.8088 272.325 87.5698 267.832 72.9962C267.346 70.7498 266.387 69.4742 263.994 69.4742C260.472 69.4742 257.909 72.6801 255.99 77.0037C251.983 65.636 242.534 58.75 233.571 58.5807C225.24 58.5807 221.876 61.6286 218.681 65.1506C216.92 66.9117 216.119 67.2277 213.714 67.3971C206.67 67.7131 201.703 69.3161 198.023 76.5296C197.222 74.2831 195.303 73.0075 192.74 73.0075C188.902 73.0075 186.339 76.0554 186.339 80.537C186.339 83.4156 187.615 87.4231 188.586 91.1032L187.141 94.4672C186.339 96.2282 185.865 97.6731 185.865 99.4342C185.865 100.394 186.023 101.353 186.181 102.64C186.825 108.567 187.457 112.89 187.942 117.857C188.258 122.824 189.387 125.861 191.306 128.107L199.953 138.041C199.953 139.486 199.637 140.762 199.637 142.523C199.637 145.729 203.916 154.365 207.009 155.381V155.369ZM342.653 162.662C342.134 162.662 341.964 163.012 341.614 163.7C338.329 171.489 332.787 179.267 328.644 179.267C326.104 179.267 324.738 176.953 324.399 172.212C336.23 163.429 341.614 151.068 341.614 143.629C341.614 138.956 339.368 135.501 334.694 135.501C323.101 135.501 314.623 156.95 314.623 171.139C314.623 175.937 315.425 179.967 316.881 182.959C315.921 184.155 314.905 184.979 313.923 184.979C310.142 184.979 307.331 173.465 305.92 161.871C310.175 155.708 313.607 150.03 316.17 145.356C316.689 144.318 317.558 142.41 317.558 141.202C317.558 139.125 316 136.709 313.754 136.709C312.885 136.709 312.365 137.228 311.846 138.436C307.986 149.002 303.064 158.982 296.697 168.475C300.535 146.451 304.926 124.405 304.926 119.065C304.926 117.677 304.057 117.338 303.199 117.338C301.991 117.338 300.772 117.857 299.226 118.726C296.979 119.934 296.11 121.323 295.76 123.919C293.649 139.057 289.314 162.21 286.492 178.646C282.575 186.898 277.303 192.599 273.442 192.599C270.496 192.599 269.119 188.964 269.119 182.044C269.119 168.724 275 152.457 279.504 152.457C280.712 152.457 281.231 153.845 281.231 155.922C281.231 158.349 280.193 160.596 280.193 161.804C280.193 162.492 280.543 163.012 281.231 163.012C283.659 163.012 287.282 159.377 287.282 154.184C287.282 150.38 285.555 145.876 280.193 145.876C267.922 145.876 260.269 167.482 259.648 181.615C255.256 192.249 249.567 199.858 245.074 199.858C242.534 199.858 241.157 197.137 240.83 192.035C252.705 182.609 258.575 169.751 258.575 161.973C258.575 156.961 256.329 153.145 251.655 153.145C239.023 153.145 231.245 176.671 231.245 190.861C231.245 193.841 231.516 196.528 232.024 198.887C229.834 202.77 227.046 205.908 224.664 205.908C223.456 205.908 223.106 205.039 223.106 203.481C223.106 196.211 229.157 174.932 229.157 166.805C229.157 162.481 227.599 159.196 224.484 159.196C219.02 159.196 213.263 168.599 209.097 179.572C209.616 175.994 209.955 173.262 209.955 171.997C209.955 168.012 208.917 164.208 205.462 164.208C200.292 164.208 194.795 173.623 190.731 184.742C191.272 181.096 191.622 178.319 191.622 177.01C191.622 172.686 189.195 170.259 185.222 170.259C182.411 170.259 177.658 171.365 172.082 173.036C172.612 157.13 173.278 142.162 173.809 130.647C173.978 126.324 172.251 124.766 170.174 124.766C165.851 124.766 160.138 130.478 157.203 136.529C150.442 151.712 143.793 168.87 137.945 185.532C134.4 187 131.691 188.163 130.393 188.784C127.108 190.341 125.55 195.184 125.55 198.819C125.55 200.377 125.9 201.066 126.589 201.066C127.108 201.066 127.627 200.896 128.147 200.546C129.851 199.553 131.804 198.458 133.915 197.329C130.506 207.579 127.481 217.4 125.031 226.16C124.512 227.718 124.342 228.757 124.342 229.626C124.342 231.014 125.031 231.703 126.419 231.703C127.808 231.703 128.846 231.353 130.404 230.834C133.689 229.626 134.389 228.587 135.247 224.952C137.832 214.206 140.745 203.38 144.233 192.057C149.719 189.359 155.544 186.661 160.917 184.358C159.811 204.147 158.964 223.902 158.784 237.404C158.784 239.131 159.822 240 161.211 240C162.599 240 165.884 238.611 167.442 237.754C170.208 236.196 171.416 234.988 171.416 231.353C171.416 227.368 171.246 223.225 171.246 218.902C171.246 206.45 171.517 193.039 171.901 180.012C175.66 178.692 178.618 177.89 180.244 177.89C181.632 177.89 182.49 178.759 182.49 180.486C182.49 185.679 176.959 216.994 176.959 221.487C176.959 222.875 177.828 223.214 178.686 223.214C179.894 223.214 181.113 222.695 182.671 222.006C184.917 220.967 185.617 219.579 185.956 216.994C188.721 193.988 197.38 177.721 200.315 177.721C200.834 177.721 201.003 178.071 201.003 179.109C201.003 183.602 195.122 210.774 195.122 214.228C195.122 215.617 195.991 215.955 196.849 215.955C198.057 215.955 199.445 215.436 201.003 214.747C203.25 213.709 204.119 212.32 204.469 209.905C207.754 187.756 215.893 172.709 218.828 172.709C219.347 172.709 219.517 173.059 219.517 174.097C219.517 180.498 213.466 199.18 213.466 209.566C213.466 215.278 215.374 217.005 218.478 217.005C223.118 217.005 230.06 209.227 233.3 202.894C235.061 207.015 237.906 209.397 241.654 209.397C248.822 209.397 256.555 198.785 260.099 189.766C261.284 197.476 264.773 202.138 270.033 202.138C275.294 202.138 280.791 196.132 284.776 189.416C284.212 193.152 283.873 195.929 283.873 197.295C283.873 198.334 284.562 198.853 285.6 198.853C286.808 198.853 288.366 198.164 289.754 197.126C292.001 195.568 292.701 194.01 293.039 191.594C293.739 186.616 294.586 181.265 295.512 175.79C296.629 174.424 297.724 173.07 298.774 171.715C300.422 182.281 304.26 195.229 310.164 195.229C313.325 195.229 316.971 190.759 319.24 186.323C320.866 187.948 322.875 188.829 325.223 188.829C333.87 188.829 343.737 172.043 343.737 164.784C343.737 163.395 343.217 162.707 342.698 162.707L342.653 162.662ZM147.495 181.706C152.033 167.956 157.441 153.36 164.101 137.228C163.153 148.336 162.182 162.244 161.324 176.569C156.639 178.217 151.864 180.001 147.495 181.706ZM250.436 160.065C251.475 160.065 251.994 161.104 251.994 162.662C251.994 168.633 248.077 178.511 240.818 186.966C241.473 174.605 246.711 160.065 250.436 160.065ZM333.656 141.891C334.694 141.891 335.214 142.929 335.214 144.318C335.214 150.131 331.601 159.546 324.377 167.527C324.964 155.934 329.919 141.891 333.656 141.891ZM337.11 126.154C337.799 125.985 338.499 125.466 338.499 124.427C338.499 123.219 337.81 122.519 336.422 122.519H334.344V128.401H335.733V126.324L337.121 128.401H338.679L337.121 126.154H337.11ZM336.072 125.454H335.722V123.727H336.241C336.93 123.727 337.11 124.077 337.11 124.596C337.11 125.116 336.76 125.466 336.072 125.466V125.454ZM336.422 120.092C333.306 120.092 330.89 122.339 330.89 125.624C330.89 128.739 333.137 130.986 336.422 130.986C339.368 130.986 341.784 128.559 341.784 125.624C341.784 122.339 339.357 120.092 336.422 120.092ZM336.422 129.609C333.994 129.609 332.267 127.881 332.267 125.635C332.267 123.208 333.994 121.481 336.422 121.481C338.499 121.481 340.226 123.208 340.226 125.804C340.226 127.881 338.499 129.609 336.422 129.609ZM167.115 49.1772C181.09 33.3958 200.258 23.2586 221.097 20.5945C219.709 21.9152 218.455 23.1908 217.372 24.3987C198.339 27.8982 180.932 38.0692 168.379 53.0267C162.125 60.4771 157.249 68.8646 153.885 77.9632C150.396 87.3892 148.624 97.3119 148.624 107.472C148.624 116.175 150.001 125.093 152.598 133.244L150.261 137.409C146.852 127.678 145.125 117.598 145.125 107.472C145.125 96.4878 147.1 85.7862 150.983 75.6829C154.743 65.9295 160.161 57.0115 167.104 49.1772H167.115ZM322.514 107.472C322.514 114.866 321.509 122.542 319.601 129.676L316.61 127.509C318.258 120.092 319.026 113.714 319.026 107.472C319.026 97.6618 317.321 88.0101 313.968 78.8099C310.717 69.9031 306.01 61.6286 299.982 54.2345C287.824 39.3336 270.891 28.9368 252.31 24.9857C252.005 23.6763 251.678 22.4232 251.339 21.2605C261.386 23.157 270.925 26.7693 279.696 31.9734C288.276 37.0758 295.873 43.5668 302.273 51.2656C308.697 58.987 313.698 67.6793 317.152 77.1053C320.708 86.8135 322.514 97.041 322.514 107.483V107.472ZM275.598 42.6524C273.905 41.6364 270.372 39.9093 265.789 39.819C255.437 39.819 247.038 47.3033 242.974 53.7266C242.681 54.1555 242.681 54.5845 242.974 55.0135C246.869 59.4837 252.4 62.2495 257.762 62.4075C264.558 62.4075 268.385 57.9372 272.076 53.6137C274.312 51.006 276.411 48.5451 279.087 47.1227C279.403 46.9647 279.504 46.8292 279.504 46.5809C279.504 45.8132 278.138 44.1877 275.598 42.6637V42.6524ZM277.348 46.6147C277.326 46.7163 277.247 46.8518 277.021 46.9308C274.165 47.8 272.009 50.0916 269.728 52.5187C266.421 56.0294 263 59.6644 257.006 59.6644C252.344 59.495 248.811 57.5082 246.666 55.8601L246.598 55.8149L246.666 55.7585C248.799 53.8507 251.734 53.354 255.121 52.767C258.587 52.1687 262.515 51.5027 266.827 49.2337C267.121 49.0869 267.211 48.8386 267.143 48.6693C267.087 48.5225 266.906 48.387 266.568 48.4548C263.237 49.4482 260.065 49.6062 256.984 49.7642C253.518 49.9449 250.244 50.1142 247.185 51.4801L246.824 51.6382L247.106 51.3672C252.795 45.8584 260.065 42.5621 266.545 42.5621C271.196 42.7089 275.169 44.357 277.043 45.9148C277.224 46.0954 277.405 46.3777 277.348 46.626V46.6147ZM201.669 53.862C199.028 51.2995 195.98 49.8658 193.079 49.8207C189.128 49.7642 185.944 51.5027 182.862 53.1734C180.232 54.6071 177.76 55.9504 175.141 55.9165C174.723 55.9165 174.452 56.1762 174.441 56.5939C174.419 58.4 175.796 61.4254 178.923 64.1347C181.372 66.2456 185.639 68.7856 192.04 68.8872C198.136 68.9775 201.929 67.5551 207.189 64.7217C207.483 64.5862 207.607 64.1572 207.472 63.7508C206.354 59.924 204.288 56.4132 201.658 53.862H201.669ZM203.916 61.1657C201.15 59.0999 197.064 59.1225 192.729 59.1338C190.358 59.1338 187.908 59.1564 185.685 58.7951C185.335 58.7161 185.154 58.8516 185.098 58.9983C185.041 59.1677 185.12 59.416 185.402 59.5628C188.416 60.861 190.979 61.1319 193.462 61.4028C196.612 61.7415 199.581 62.0688 202.877 64.5072L202.968 64.5749L202.866 64.6201C200.145 65.8505 196.307 66.494 192.074 66.4375C180.831 66.2795 176.383 58.8854 176.405 57.6776C176.405 57.4969 176.575 57.305 176.936 57.3163C178.437 57.1583 180.142 56.4132 182.117 55.544C185.064 54.2571 188.394 52.7896 192.119 52.846C197.312 52.9251 201.094 55.5327 204.006 61.0642L204.153 61.3351L203.904 61.1545L203.916 61.1657ZM244.972 16C244.972 16 244.927 16 244.905 16C244.781 16 244.645 16.0564 244.521 16.1806C241.721 18.7318 237.68 19.9171 233.39 21.1815C231.663 21.6895 229.88 22.2087 228.175 22.8296C224.709 24.1165 222.226 25.1889 219.562 28.1466C216.773 31.2622 215.385 35.5067 215.306 41.1285C215.306 46.4567 216.807 52.1461 219.539 57.147C219.968 57.8582 220.375 57.8695 221.131 57.7227C229.563 55.5102 236.224 51.4914 240.897 45.7907C244.972 40.8237 247.275 34.852 247.546 28.5191C247.637 26.2952 246.632 18.7996 245.458 16.4741C245.322 16.2032 245.153 16.0452 244.961 16.0113L244.972 16ZM239.418 42.8105C235.806 47.7662 230.546 51.8639 224.201 54.6635L224.1 54.7087V54.5958C224.698 45.1246 227.735 41.9187 231.268 38.2047C233.277 36.0937 235.355 33.9037 237.296 30.3365C237.443 30.1221 237.341 29.8398 237.183 29.7044C236.98 29.5463 236.732 29.5802 236.495 29.806C234.26 32.1201 232.16 33.8699 230.297 35.4051C225.206 39.6384 221.526 42.6863 220.307 53.0944L220.273 53.4105L220.171 53.1057C219.065 49.6288 218.501 46.1519 218.501 42.7879C218.546 36.3985 220.171 31.7815 223.479 28.6884C226.425 25.9227 230.433 24.5906 234.305 23.2924C237.488 22.2313 240.773 21.1363 243.528 19.2511C243.81 19.0592 244.024 19.0028 244.194 19.0705C244.352 19.1269 244.464 19.3076 244.543 19.6011C244.713 21.4298 244.848 23.2247 244.848 26.7355C244.848 32.3798 242.974 37.9451 239.418 42.8105Z" fill="var(--color-text)"/>
</g>
<defs>
<clipPath id="clip0_207_6640">
<rect width="219.518" height="224" fill="var(--color-text)" transform="translate(124.241 16)"/>
</clipPath>
</defs>
</svg>
