<svg width="425" height="256" viewBox="0 0 425 256" fill="none" xmlns="http://www.w3.org/2000/svg">
<g clip-path="url(#clip0_204_6535)">
<path d="M294.532 56.3198C305.628 56.3198 314.9 65.2518 314.9 76.7437V179.032C314.9 190.58 305.624 199.684 294.532 199.684H130.692C119.428 199.684 110.1 190.58 110.1 179.032V76.7437C110.1 65.2519 119.428 56.3199 130.692 56.3198H294.532ZM130.692 70.8843C127.392 70.8844 125.06 73.4999 125.06 76.7437V179.028C125.06 182.272 127.448 184.888 130.692 184.888H294.536C297.678 184.888 299.804 182.433 299.934 179.331L299.936 179.028V76.7437C299.936 73.4998 297.776 70.8843 294.532 70.8843H130.692Z" fill="var(--color-text)"/>
<path d="M138.204 81.0679V174.936H172.68C201.296 174.708 210 154.684 210 127.548C210 96.2599 196.972 81.0679 172.68 81.0679H138.204ZM219.952 81.0679V174.936H256.36C273.256 174.936 289.3 166.856 289.3 147.744C289.3 136.024 281.508 129.028 270.016 125.784C278.264 121.688 285.832 115.26 285.832 106.1C285.832 88.5199 276.104 81.0679 258.128 81.0679H219.952ZM242.308 95.6319H248.564C255.904 95.6319 262.844 97.9639 262.844 106.896C262.844 114.916 257.44 118.272 250.044 118.272H242.252V95.6319H242.308ZM160.788 95.9159H165.396C185.704 95.9159 187.64 110.592 187.64 129.536C187.64 150.188 180.812 159.8 168.868 159.8H160.848V95.9159H160.788ZM242.308 135.624H250.5C259.376 135.624 265.46 137.844 265.46 147.4C265.46 157.184 258.404 159.8 250.384 159.8H242.364V135.624H242.308Z" fill="var(--color-text)"/>
</g>
<defs>
<clipPath id="clip0_204_6535">
<rect width="204.8" height="144" fill="var(--color-text)" transform="translate(110.1 56)"/>
</clipPath>
</defs>
</svg>
