<svg width="604" height="256" viewBox="0 0 604 256" fill="none" xmlns="http://www.w3.org/2000/svg">
<g clip-path="url(#clip0_207_6563)">
<path d="M119.066 72.0054C108.65 71.9515 98.438 74.9003 89.6536 80.499C92.3304 82.572 94.759 84.947 96.8911 87.577C103.687 83.8649 111.325 81.9686 119.068 82.0715C145.178 82.0715 163.738 101.261 163.738 127.999C163.738 154.582 145.178 173.613 119.068 173.613C93.2736 173.613 74.7131 154.581 74.7131 127.999C74.6331 120.383 76.3009 112.85 79.5883 105.979C77.6872 102.975 75.232 100.359 72.3534 98.2725C66.8625 107.213 63.9754 117.508 64.0167 127.999C64.0167 160.4 87.1379 183.994 119.063 183.994C150.678 183.994 174.428 159.929 174.428 127.999C174.428 96.0697 150.681 72.0054 119.066 72.0054ZM255.906 140.11C255.935 144.625 255.353 149.122 254.177 153.481C250.402 166.378 239.706 173.614 225.393 173.614C211.237 173.614 200.541 166.378 196.767 153.481C195.59 149.122 195.008 144.625 195.036 140.11V74.2073H184.341V141.211C184.352 146.851 185.146 152.463 186.7 157.885C191.891 174.242 205.417 183.995 225.551 183.995C245.684 183.995 259.053 173.929 264.4 157.57C265.819 153.165 266.602 146.4 266.602 140.897V74.2073H255.906V140.11ZM69.5213 167.478C66.6007 168.773 63.5391 169.723 60.3984 170.309C54.7481 171.374 49.0027 171.849 43.2543 171.729H10.6955V84.1174H43.2543C49.0026 83.9958 54.7481 84.4711 60.3984 85.5356C81.003 89.9393 92.3279 104.882 92.3279 128.003C92.4703 135.575 90.9675 143.088 87.9233 150.023C89.8495 153.096 92.2367 155.855 95.0013 158.203C100.192 149.709 103.023 139.328 103.023 128.004C103.023 100.007 88.2379 81.4466 63.0718 75.942C57.0719 74.6982 50.9535 74.1179 44.8268 74.2117H0V181.794H44.8268C50.9477 181.937 57.0658 181.409 63.0718 180.22C67.781 179.217 72.3316 177.576 76.5985 175.345C73.8413 173.11 71.453 170.456 69.5213 167.478ZM580.233 124.067L568.908 118.562C559.277 113.88 553.808 108.097 553.808 99.0614C553.808 88.9953 560.73 81.7595 571.583 81.7595C582.752 81.7595 589.044 89.6237 590.771 102.049H600.838C598.95 81.2879 586.839 72.0081 571.586 72.0081C554.757 72.0081 543.117 84.1191 543.117 99.533C543.117 113.607 551.633 122.573 564.981 128.785L576.457 134.135C584.637 137.909 592.029 144.043 592.029 155.054C592.029 166.065 584.165 173.615 572.528 173.615C559.945 173.615 550.822 166.379 548.935 149.239H538.236C539.964 172.989 553.492 183.999 572.363 183.999C590.765 183.999 603.033 171.73 603.033 154.586C603.033 137.442 591.872 129.729 580.233 124.067ZM486.647 74.2073L444.966 181.792H456.92L469.66 147.665H514.015L526.913 181.792H539.181L497.342 74.2073H486.647ZM510.24 137.593H473.435L485.86 104.562C488.062 98.7423 489.95 92.923 491.838 87.0992C493.742 92.9683 495.787 98.7907 497.972 104.562L510.24 137.593ZM404.701 74.2073H394.006V181.792H437.102L441.348 171.725H404.701V74.2073ZM321.023 132.405V142.469H371.827C367.895 161.186 352.326 173.611 331.719 173.611C305.609 173.611 287.521 154.514 287.521 127.841C287.521 101.26 305.925 82.0706 331.719 82.0706C349.021 82.0706 363.177 91.0358 369.468 106.447H380.95C374.344 85.213 354.998 72.001 331.719 72.001C300.262 72.001 276.826 96.0653 276.826 127.838C276.826 160.647 299.475 183.989 331.719 183.989C362.233 183.989 384.096 161.969 383.781 132.401L321.023 132.405Z" fill="var(--color-text)"/>
</g>
<defs>
<clipPath id="clip0_207_6563">
<rect width="603.033" height="112" fill="var(--color-text)" transform="translate(0 72)"/>
</clipPath>
</defs>
</svg>
