<svg width="439" height="256" viewBox="0 0 439 256" fill="none" xmlns="http://www.w3.org/2000/svg">
<path fill-rule="evenodd" clip-rule="evenodd" d="M293.898 112.623C293.898 125.884 285.635 143.306 279.664 154.817C270.284 172.93 257.594 183.784 236.962 185.064C218.724 186.195 177.507 189.361 184.728 158.63C187.859 145.325 194.817 133.604 199.089 120.757C213.444 92.1162 249.567 86.6566 278.266 93.814C287.98 97.3481 293.15 102.078 293.898 112.623ZM245.731 113.894C230.979 113.894 229.183 134.485 226.413 145.539C225.718 149.717 221.04 163.713 228.574 163.713C246.31 167.28 247.959 147.827 250.942 134.864C252.039 130.095 254.213 122.094 253.229 117.198C253.229 113.557 248.152 114.137 245.731 113.894ZM144.187 114.784C142.367 149.658 117.873 146.944 88.7756 146.81C77.7177 146.765 66.4094 146.048 55.4782 146.048C51.4444 150.139 63.1227 162.549 66.4081 164.603C77.6228 171.589 91.6943 168.59 100.722 159.519C105.572 159.519 157.632 152.714 139.612 170.703C130.89 178.463 118.55 183.047 107.33 185.7C71.6323 194.142 -5.47964 173.62 20.5287 123.299C38.3078 94.0369 76.8164 78.0362 108.602 69.7944C111.561 69.2024 114.485 68.7467 117.498 68.5233C140.112 66.8348 144.187 98.0454 144.187 114.784ZM111.017 111.988C111.017 108.834 111.146 105.498 110.127 102.456C106.636 88.3936 70.0131 118.423 65.6456 122.791C65.0973 123.895 65.5116 123.553 66.2809 123.934C78.4351 123.934 90.6178 123.807 102.755 123.807C110.749 122.488 111.017 120.055 111.017 111.988ZM181.551 129.907C178.796 135.457 179.411 142.737 173.798 146.937C166.123 152.68 146.788 152.696 151.05 138.804C155.084 125.597 162.712 119.98 176.594 123.426C179.981 124.56 180.781 126.803 181.551 129.907ZM423.275 112.75C423.275 116.305 422.529 119.971 421.749 123.426C417.162 143.704 409.764 162.996 403.194 182.522C397.166 188.551 384.634 185.268 378.158 181.379C374.918 178.139 382.971 161.608 384.258 157.613C386.232 151.477 397.015 128.851 387.943 124.316C385.025 124.316 382.705 124.698 379.81 125.46C352.663 134.964 333.394 162.598 313.851 182.141C305.38 186.407 299.297 185.315 290.975 181.125C290.149 180.299 290.549 178.987 290.72 177.947C297.018 151.644 306.978 125.565 317.79 100.804C319.491 95.7484 336.97 97.6217 341.302 99.7874C341.302 105.387 340.714 114.784 348.8 114.784C366.94 112.785 411.389 73.4084 422.639 107.159C422.958 109.064 423.275 110.792 423.275 112.75Z" fill="var(--color-text)"/>
</svg>
