<svg width="488" height="256" viewBox="0 0 488 256" fill="none" xmlns="http://www.w3.org/2000/svg">
<g clip-path="url(#clip0_207_6664)">
<path d="M203.73 164.113V92.6074H219.366V120.94H252.285V92.6074H267.921V164.113H252.285V134.431H219.366V164.113H203.73Z" fill="var(--color-text)"/>
<path d="M303.035 165.732C298.371 165.822 293.799 164.563 289.776 162.224C285.936 159.886 282.827 156.468 280.815 152.51C278.62 148.103 277.523 143.156 277.614 138.209C277.523 133.262 278.62 128.315 280.815 123.908C284.93 115.543 293.617 110.327 303.035 110.506C306.235 110.506 309.344 111.046 312.27 112.305C315.105 113.475 317.666 115.184 319.769 117.432V112.125H335.039V164.113H319.769V158.896C317.666 161.055 315.105 162.764 312.27 163.933C309.344 165.192 306.235 165.822 303.035 165.732ZM306.418 152.78C308.887 152.87 311.356 152.24 313.459 150.981C315.471 149.812 317.117 148.013 318.123 145.944C319.22 143.516 319.86 140.907 319.769 138.299C319.952 134.432 318.671 130.654 316.111 127.686C313.642 124.987 310.076 123.548 306.418 123.638C302.761 123.458 299.286 124.987 296.817 127.686C294.257 130.654 292.976 134.432 293.159 138.299C293.068 140.907 293.708 143.606 294.805 145.944C295.811 148.013 297.457 149.812 299.469 150.981C301.572 152.15 304.041 152.78 306.418 152.78Z" fill="var(--color-text)"/>
<path d="M362.746 112.126H347.475V164.113H362.746V112.126Z" fill="var(--color-text)"/>
<path d="M390.452 112.126H375.182V164.113H390.452V112.126Z" fill="var(--color-text)"/>
<path d="M417.61 164.743C407.735 164.743 402.888 159.526 402.888 149.093V90.4492H417.976V146.394C417.884 147.833 418.159 149.362 418.89 150.622C419.53 151.611 420.628 152.151 421.816 152.061C422.639 152.061 423.371 151.971 424.194 151.791V163.663C421.999 164.383 419.805 164.743 417.61 164.743Z" fill="var(--color-text)"/>
<path d="M458.667 165.732C453.455 165.822 448.334 164.653 443.762 162.225C439.465 159.976 435.99 156.648 433.612 152.511C431.144 148.193 429.863 143.246 429.955 138.21C429.863 133.173 431.144 128.226 433.521 123.908C435.898 119.771 439.465 116.353 443.671 114.015C448.243 111.586 453.455 110.327 458.667 110.417C463.788 110.327 468.909 111.496 473.481 113.925C477.687 116.173 481.162 119.591 483.539 123.729C486.008 128.136 487.197 133.083 487.197 138.03C487.288 143.067 486.008 148.013 483.539 152.331C481.162 156.468 477.687 159.886 473.389 162.135C469 164.653 463.879 165.822 458.667 165.732ZM458.667 153.14C461.045 153.23 463.514 152.601 465.525 151.341C467.537 150.082 469.091 148.283 470.097 146.125C471.195 143.606 471.743 140.908 471.743 138.12C471.835 135.421 471.286 132.723 470.097 130.205C469.091 128.046 467.537 126.247 465.525 124.898C463.514 123.639 461.045 123.009 458.667 123.009C456.198 122.919 453.821 123.639 451.718 124.898C449.706 126.157 448.06 128.046 447.146 130.205C446.048 132.723 445.5 135.331 445.5 138.12C445.408 140.818 445.957 143.606 447.146 146.125C448.151 148.283 449.706 150.082 451.718 151.341C453.821 152.601 456.29 153.23 458.667 153.14Z" fill="var(--color-text)"/>
<path d="M355.156 106.099C352.687 106.099 350.31 105.11 348.572 103.401C346.835 101.692 345.829 99.3536 345.829 96.9251C345.829 94.4067 346.744 92.0682 348.572 90.3592C350.31 88.5604 352.687 87.571 355.156 87.6609C360.368 87.6609 364.666 91.8883 364.666 97.0151C364.666 99.4436 363.66 101.782 361.923 103.491C360.094 105.2 357.625 106.189 355.156 106.099Z" fill="var(--color-text)"/>
<path d="M382.771 106.099C380.302 106.099 377.925 105.11 376.188 103.401C374.45 101.692 373.444 99.3536 373.444 96.9251C373.444 94.4067 374.359 92.0682 376.188 90.3592C377.925 88.5604 380.302 87.571 382.771 87.6609C387.983 87.6609 392.281 91.8883 392.281 97.0151C392.281 99.4436 391.275 101.782 389.538 103.491C387.709 105.2 385.332 106.189 382.771 106.099Z" fill="var(--color-text)"/>
<path opacity="0.24" d="M0.914256 134.521C1.64578 141.807 7.22367 148.193 14.9047 149.542C26.6091 151.611 37.2162 141.627 34.7473 129.664C33.4672 123.548 29.2609 120.22 26.7006 114.014C21.7628 101.692 21.7628 88.3801 28.8951 75.5182C30.5411 72.55 32.5528 69.8517 34.9302 67.3333L35.0217 67.2434L35.2046 67.0635L35.0217 67.1534C8.22952 83.6131 -1.37176 111.855 0.914256 134.521Z" fill="var(--color-text)"/>
<path opacity="0.24" d="M104.7 63.286C98.0244 60.2279 89.5204 61.577 84.3997 67.4234C76.6273 76.2379 79.9191 90.359 91.6235 94.4065C97.6586 96.4752 102.688 94.5864 109.455 95.6657C122.805 97.7344 134.326 104.57 142.007 117.162C143.745 120.04 145.116 123.189 146.122 126.426V126.516L146.214 126.786V126.606C145.482 95.4858 125.731 72.9099 104.7 63.286Z" fill="var(--color-text)"/>
<path opacity="0.24" d="M23.0432 179.583C28.6211 185.16 42.703 196.403 65.1974 198.921C83.577 200.99 107.077 195.593 123.811 179.493C133.138 170.589 141.916 157.727 142.922 146.214C143.379 141.447 142.648 129.215 129.663 120.85C116.679 112.485 101.865 118.241 95.8301 124.358C90.0693 130.294 87.3261 135.96 86.686 144.955C85.1315 165.642 67.1177 180.752 49.9268 183.361C37.8566 185.25 29.2612 182.461 23.0432 179.583Z" fill="var(--color-text)"/>
<path d="M92.631 72.0104C88.4247 63.6456 81.018 58.5188 72.3311 57.0797C63.7357 55.6406 54.683 58.249 46.8191 61.307C30.9084 67.5132 17.6495 79.2059 9.51126 93.9566C1.73878 107.988 0.367172 122.019 0.915817 130.654C3.38472 126.067 6.31083 122.289 9.6027 119.051C12.8031 115.993 16.3693 113.385 20.3013 111.406C28.1652 107.358 36.3034 106.099 45.1732 106.729C52.0312 107.178 57.9749 110.236 63.8271 111.226C69.6793 112.125 75.1658 111.046 80.4693 108.438C94.1855 101.332 99.0318 85.2321 92.631 72.0104Z" fill="var(--color-text)"/>
<path d="M110.277 66.1642L110.094 66.0742L110.277 66.2541L110.369 66.3441C112.746 68.7725 114.849 71.4708 116.587 74.349C123.993 87.1211 124.451 100.343 119.787 112.845C117.41 119.141 113.295 122.559 112.198 128.765C110.094 140.818 120.976 150.442 132.589 148.103C140.27 146.574 145.574 139.918 146.122 132.723C147.86 109.967 137.527 81.9043 110.277 66.1642Z" fill="var(--color-text)"/>
<path d="M111.649 174.816C94.3668 176.975 72.8782 167.441 65.4715 147.923C62.271 139.469 58.0648 134.702 50.8409 130.654C43.3428 126.337 27.4321 124.808 17.3736 136.5C7.31512 148.103 10.0583 159.976 11.7957 164.473C16.002 175.266 28.1636 185.25 39.5937 191.276C60.2594 202.159 84.3997 200.99 101.408 193.974C122.256 185.34 132.589 170.769 136.43 163.843C131.309 168.341 123.811 173.287 111.649 174.816Z" fill="var(--color-text)"/>
</g>
<defs>
<clipPath id="clip0_207_6664">
<rect width="487.837" height="144" fill="var(--color-text)" transform="translate(0 56)"/>
</clipPath>
</defs>
</svg>
