<svg width="677" height="256" viewBox="0 0 677 256" fill="none" xmlns="http://www.w3.org/2000/svg">
<path fill-rule="evenodd" clip-rule="evenodd" d="M127.261 54.5765C154.097 68.6901 172.43 96.8287 172.43 129.264C172.43 161.699 154.097 189.926 127.261 203.953V194.309C137.524 188.169 146.205 179.579 152.522 169.411L127.261 159.157V143.553L154.976 165.205C160.765 154.51 164.01 142.324 164.01 129.261C164.01 101.735 149.273 77.5425 127.261 64.2163V54.5765ZM88.2315 45.021C102.265 45.021 115.507 48.4413 127.261 54.5765V64.2207C116.472 57.7306 103.842 53.8756 90.5116 53.4364L100.158 122.428L127.261 143.553V159.157L88.054 143.291L49.1112 159.245V143.728L76.3891 122.425L85.9491 53.4342C72.441 53.8734 59.8999 57.7306 49.1112 64.2163V54.5765C60.7783 48.4413 74.1089 45.021 88.2315 45.021ZM127.261 203.953C115.507 210.088 102.263 213.593 88.2315 213.593C74.1112 213.593 60.7805 210.088 49.1134 204.04V194.309C60.5166 201.231 73.9337 205.177 88.2315 205.177C102.44 205.177 115.773 201.231 127.261 194.309V203.953ZM49.1134 204.04C22.1859 189.926 3.85571 161.699 3.85571 129.264C3.85571 96.8287 22.1837 68.6901 49.1112 54.5765L49.1134 64.2207C27.0102 77.5447 12.2755 101.651 12.2755 129.264C12.2755 142.324 15.6093 154.687 21.3985 165.381L49.1112 143.728V159.245L23.9404 169.586C30.2553 179.672 38.8504 188.171 49.1134 194.309V204.04Z" fill="var(--color-text)"/>
<path d="M431.126 102.007C427.264 103.034 423.783 103.651 419.46 104.116V105.429C424.324 105.429 424.946 105.973 424.946 109.993V123.509C422.085 118.875 419.842 117.486 415.672 117.486C407.402 117.486 401.614 125.285 401.614 136.412C401.614 147.538 407.482 155.344 415.906 155.344C420.31 155.344 423.321 153.339 425.482 149.012C425.794 151.945 425.797 152.255 426.568 155.192C429.736 154.186 431.047 153.874 435.608 153.336L436.763 153.179V151.865C431.588 151.712 431.126 151.324 431.126 146.613V102.007ZM222.653 102.569C219.716 102.88 218.168 102.961 215.312 102.961C213.146 102.961 211.99 102.886 208.98 102.651V104.577C214.309 104.888 215.387 105.661 215.387 109.217V109.684L213.765 147.617C213.612 151.791 212.843 152.406 207.433 152.794V154.649C211.453 154.338 212.992 154.264 215.154 154.264C217.319 154.264 218.862 154.338 222.805 154.649V152.794C217.395 152.406 216.391 151.709 216.391 148.311V147.617L217.938 107.518L230.607 141.746L231.535 144.448L232.621 147.459L233.701 150.477L234.553 152.951H235.715L236.56 150.401L237.564 147.459L238.644 144.606L239.572 142.049L252.323 107.594L253.018 147.617V148.002C253.018 151.634 251.86 152.482 246.604 152.794V154.65C251.472 154.185 253.325 154.031 256.263 154.031C259.196 154.031 261.053 154.185 265.921 154.65V152.794C260.358 152.406 259.66 151.791 259.583 147.617L258.737 109.684V109.141C258.737 105.662 259.895 104.888 265.151 104.577V102.651C262.214 102.886 260.978 102.961 259.046 102.961C256.727 102.961 255.108 102.88 251.629 102.569L237.028 141.67L222.653 102.569ZM523.21 102.878V104.816C528.774 105.124 529.548 105.737 529.548 109.911V147.383C529.548 151.557 528.931 152.095 523.21 152.56V154.416H542.761C548.478 154.416 551.568 153.722 554.812 151.714C558.678 149.241 561.226 144.525 561.226 139.657C561.226 135.487 559.448 131.705 556.434 129.386C554.81 128.149 553.11 127.453 550.33 126.911C555.893 124.826 558.833 120.884 558.833 115.479C558.833 111.459 557.131 107.901 554.193 105.662C551.567 103.731 548.553 102.878 543.531 102.878L523.21 102.878ZM536.038 105.277H542.603C549.096 105.277 551.952 108.443 551.952 115.63C551.952 119.182 551.109 121.734 549.408 123.742C547.707 125.673 545.621 126.292 541.29 126.292H536.038V105.277ZM358.334 116.325L356.244 120.264C353.772 117.868 351.687 117.019 348.366 117.019C339.247 117.019 333.064 124.901 333.064 136.412C333.064 147.692 339.171 155.268 348.132 155.268C355.089 155.268 359.491 150.782 360.493 142.516H357.324C356.398 149.316 353.536 152.718 348.744 152.718C342.797 152.718 339.787 147.231 339.787 136.412C339.787 125.362 343.191 119.109 348.984 119.109C353.699 119.109 356.552 122.351 357.942 129.07H359.647V116.325L358.334 116.325ZM496.779 116.558L495.466 119.721C492.84 117.947 490.601 117.253 487.587 117.253C480.788 117.253 475.997 121.425 475.997 127.53C475.997 132.01 477.779 134.173 483.415 136.803L486.969 138.419L489.904 139.732C493.69 141.433 495.163 143.211 495.163 145.837C495.163 149.78 491.76 152.793 487.202 152.793C481.792 152.793 478.546 149.395 477.152 142.365L475.461 142.441V155.344H476.849L478.699 151.866C481.636 154.185 484.417 155.11 487.972 155.11C495.237 155.11 500.415 150.48 500.415 143.987C500.415 139.43 498.325 136.954 492.455 134.404L489.21 133.016C482.176 129.925 481.022 128.922 481.022 125.832C481.022 122.2 484.189 119.418 488.282 119.418C493.15 119.418 495.699 122.356 496.394 128.534H498.174V116.558H496.779ZM610.995 116.558C607.913 117.641 605.279 118.257 600.794 118.875V120.188C601.182 120.188 601.574 120.264 601.804 120.264C605.671 120.264 606.127 120.732 606.204 123.9V125.055V148.93C606.204 152.251 605.44 152.872 600.725 153.103V154.649C604.745 154.262 606.361 154.189 609.064 154.189C611.848 154.189 613.396 154.262 617.416 154.649V153.103C613.396 152.949 612.391 152.175 612.391 149.088V130.383C612.391 124.048 615.171 120.731 620.427 120.731C625.368 120.731 627.377 123.433 627.377 130.156V149.088C627.377 152.175 626.374 152.949 622.201 153.103V154.649C626.217 154.262 627.761 154.189 630.622 154.189C633.402 154.189 634.953 154.262 639.049 154.649V153.103C634.335 152.873 633.557 152.251 633.557 148.93V130.383C633.557 127.45 633.171 125.287 632.396 123.433C630.852 119.647 626.835 117.253 622.201 117.253C617.724 117.253 614.549 119.108 611.766 123.281C611.608 120.344 611.383 118.336 610.995 116.558ZM313.633 116.71C310.461 117.635 307.835 118.102 303.432 118.49V119.879H304.435C308.451 119.956 308.841 120.345 308.917 123.666V124.904V148.93C308.917 152.251 308.071 152.873 303.356 153.103V154.649C307.606 154.262 309.227 154.182 312.011 154.182C314.713 154.182 316.337 154.262 320.583 154.649V153.103C315.872 152.873 315.097 152.251 315.097 148.93V132.782C315.097 125.13 317.647 120.27 321.663 120.27C323.053 120.27 323.986 121.037 323.986 122.12V122.814L323.828 123.591C323.752 123.902 323.677 124.207 323.677 124.361C323.677 125.908 325.068 126.987 326.846 126.987C328.777 126.987 330.09 125.517 330.09 123.275C330.09 119.57 327.23 117.019 323.367 117.019C319.351 117.019 316.024 119.572 314.327 123.976V123.123C314.17 120.804 314.017 119.57 313.633 116.71ZM284.689 117.019C275.417 117.019 269.627 124.514 269.627 136.412C269.627 148.31 275.416 155.268 285.383 155.268C292.955 155.268 297.899 150.551 298.905 142.592H295.818C294.889 149.161 291.488 152.718 286.002 152.718C278.972 152.718 275.884 147.312 275.807 135.257H298.829C298.676 123.358 293.808 117.019 284.689 117.019ZM381.066 117.019C371.794 117.019 365.997 124.514 365.997 136.412C365.997 148.31 371.793 155.268 381.76 155.268C389.332 155.268 394.28 150.551 395.282 142.592H392.189C391.264 149.161 387.865 152.718 382.379 152.718C375.349 152.718 372.254 147.312 372.177 135.257H395.206C395.049 123.358 390.184 117.019 381.066 117.019ZM454.761 117.019C445.489 117.019 439.692 124.514 439.692 136.412C439.692 148.31 445.488 155.268 455.455 155.268C463.027 155.268 467.971 150.551 468.977 142.592H465.884C464.955 149.161 461.561 152.718 456.074 152.718C449.044 152.718 445.949 147.312 445.873 135.257H468.902C468.744 123.358 463.876 117.019 454.761 117.019ZM582.569 117.019C573.297 117.019 567.501 124.514 567.501 136.412C567.501 148.31 573.297 155.268 583.264 155.268C590.835 155.268 595.78 150.551 596.785 142.592H593.692C592.767 149.161 589.371 152.718 583.889 152.718C576.855 152.718 573.764 147.312 573.687 135.257H596.71C596.552 123.358 591.688 117.019 582.569 117.019ZM644.68 117.947L642.894 127.991H644.447C647.226 121.037 648.461 119.954 653.487 119.954H662.981L642.048 154.416H668.625L670.638 143.293H669.016C666.693 150.323 664.536 152.408 659.276 152.408H650.242L671.257 117.947L644.68 117.947ZM284.613 119.027C289.635 119.027 292.185 123.354 292.649 132.473H275.958C276.73 123.588 279.668 119.027 284.613 119.027ZM380.984 119.027C386.006 119.027 388.555 123.354 389.02 132.473H372.329C373.101 123.588 376.039 119.027 380.984 119.027ZM454.685 119.027C459.707 119.027 462.257 123.354 462.721 132.473H446.03C446.802 123.588 449.74 119.027 454.685 119.027ZM582.493 119.027C587.515 119.027 590.065 123.354 590.53 132.473H573.839C574.61 123.588 577.548 119.027 582.493 119.027ZM416.367 119.645C422.084 119.645 425.022 125.522 425.022 136.879C425.022 147.618 422.164 153.179 416.6 153.179C411.037 153.179 408.103 147.386 408.103 136.336C408.103 125.133 410.803 119.645 416.367 119.645ZM536.038 128.691H543.38C547.476 128.691 549.79 129.382 551.567 131.16C553.345 132.937 554.345 136.257 554.345 139.966C554.345 147.691 550.483 152.023 543.607 152.023H540.829C536.732 152.023 536.038 151.4 536.038 148.002V128.691ZM505.048 131.753V135.749H522.314V131.753H505.048Z" fill="var(--color-text)"/>
</svg>
