<svg width="610" height="256" viewBox="0 0 610 256" fill="none" xmlns="http://www.w3.org/2000/svg">
<g clip-path="url(#clip0_207_6586)">
<path d="M332.186 68.903C332.186 76.377 326.968 81.5952 316.157 81.5952H303.352V97.2536H294.124V56.5811H316.471C327.096 56.5811 332.201 61.6859 332.201 68.903H332.186ZM316.399 74.4235C320.65 74.4235 322.717 72.2433 322.717 69.1486C322.717 66.0539 320.722 63.7452 316.584 63.7452H303.352V74.4273H316.399V74.4235Z" fill="var(--color-text)"/>
<path d="M374.2 63.7415H350.285V73.5809H365.702V80.7413H350.285V90.097H375.413V97.2574H341.043V56.5811H374.185V63.7415H374.2Z" fill="var(--color-text)"/>
<path d="M418.764 63.7415H404.077V97.2536H394.85V63.7415H380.219V56.5811H418.768V63.7415H418.764Z" fill="var(--color-text)"/>
<path d="M458.897 63.7415H434.982V73.5809H450.399V80.7413H434.982V90.097H460.11V97.2574H425.74V56.5811H458.882V63.7415H458.897Z" fill="var(--color-text)"/>
<path d="M506.386 67.2631C506.386 73.1539 502.993 77.4615 494.306 77.4615V78.0018C499.581 78.9729 501.836 81.5234 502.747 85.831L503.96 91.6651C504.33 93.4902 504.814 95.6742 505.785 97.2536H496.429C495.817 96.3392 495.031 93.9172 494.676 92.2773L493.406 86.7568C492.621 83.3636 491.525 82.0222 487.459 82.0222H477.748V97.2688H468.521V56.5811H490.384C500.767 56.5811 506.412 59.8609 506.412 67.2631H506.386ZM490.115 74.8505C495.22 74.8505 497.03 72.2395 497.03 69.2015C497.03 66.1635 495.205 63.7377 490.115 63.7377H477.737V74.8467H490.115V74.8505Z" fill="var(--color-text)"/>
<path d="M290.414 140.625L299.101 135.463C299.713 141.297 304.376 144.634 313.731 144.634C320.533 144.634 325.626 142.88 325.626 139.23C325.626 135.282 319.921 134.794 312.148 133.955C304.005 133.041 293.323 131.462 293.323 121.69C293.323 113.676 300.367 109.312 312.333 109.312C322.66 109.312 329.873 112.591 333.282 117.753L324.667 123.7C324.481 119.079 320.544 116.411 312.401 116.411C306.027 116.411 302.69 118.051 302.69 121.203C302.69 124.781 307.183 125.937 314.771 126.723C322.672 127.577 334.993 128.42 334.993 138.803C334.993 147.362 327.036 151.737 313.928 151.737C300.82 151.737 292.979 147.003 290.425 140.628L290.414 140.625Z" fill="var(--color-text)"/>
<path d="M342.328 130.554C342.328 117.133 350.1 109.304 364.005 109.304C374.087 109.304 381.545 113.252 384.769 120.228L376.569 126.901C375.058 120.284 370.565 116.574 364.005 116.574C356.048 116.574 351.683 121.679 351.683 130.422C351.683 139.166 356.418 144.384 364.976 144.384C371.536 144.384 375.473 141.048 376.085 135.1L385.369 140.564C382.702 147.724 375.417 151.73 365.033 151.73C350.459 151.73 342.328 143.957 342.328 130.539V130.554Z" fill="var(--color-text)"/>
<path d="M424.172 133.279H402.792V150.819H393.565V110.146H402.792V126.119H424.172V110.146H433.399V150.819H424.172V133.279Z" fill="var(--color-text)"/>
<path d="M469.764 134.563L481.058 110.161H493.565V150.834H484.636V122.54L471.646 149.923H467.697L454.891 122.6V150.838H445.963V110.161H458.413L469.764 134.563Z" fill="var(--color-text)"/>
<path d="M515.356 150.834H506.129V110.161H515.356V150.834Z" fill="var(--color-text)"/>
<path d="M567.765 130.426C567.765 145.174 560.907 150.819 544.262 150.819H527.746V110.146H544.134C560.65 110.146 567.75 115.735 567.75 130.426H567.765ZM544.935 143.662C554.589 143.662 558.296 140.027 558.296 130.43C558.296 120.832 554.589 117.311 544.935 117.311H536.977V143.666H544.935V143.662Z" fill="var(--color-text)"/>
<path d="M609.352 117.322H594.665V150.834H585.437V117.322H570.807V110.161H609.356V117.322H609.352Z" fill="var(--color-text)"/>
<path d="M326.053 196.997H325.683C323.503 202.586 318.825 205.31 311.665 205.31C299.528 205.31 292.541 197.723 292.541 184.116C292.541 170.509 300.314 162.865 314.888 162.865C324.784 162.865 332.613 166.746 335.594 172.52L328.12 179.079C327.092 173.559 322.286 170.15 315.129 170.15C306.514 170.15 301.897 175.013 301.897 184.055C301.897 193.098 306.518 198.017 314.944 198.017C321.617 198.017 325.698 194.923 325.811 189.519V189.092H314.702V182.533H334.925V190.49C334.925 195.168 335.779 201.785 336.622 204.396H327.58C327.04 202.699 326.367 199.291 326.068 196.993L326.053 196.997Z" fill="var(--color-text)"/>
<path d="M384.954 174.408C384.954 180.299 381.561 184.607 372.874 184.607V185.147C378.149 186.118 380.404 188.668 381.315 192.976L382.528 198.81C382.898 200.635 383.382 202.819 384.353 204.399H374.997C374.385 203.484 373.599 201.062 373.244 199.422L371.974 193.902C371.188 190.509 370.093 189.167 366.027 189.167H356.316V204.414H347.089V163.741H368.951C379.335 163.741 384.98 167.021 384.98 174.423L384.954 174.408ZM368.679 181.996C373.784 181.996 375.594 179.385 375.594 176.347C375.594 173.309 373.769 170.883 368.679 170.883H356.301V181.992H368.679V181.996Z" fill="var(--color-text)"/>
<path d="M392.598 184.119C392.598 170.456 401.039 162.868 416.157 162.868C431.275 162.868 439.83 170.456 439.83 184.058C439.83 197.661 431.332 205.309 416.157 205.309C400.982 205.309 392.598 197.726 392.598 184.119ZM430.489 184.119C430.489 175.19 425.328 170.214 416.157 170.214C406.987 170.214 401.954 175.19 401.954 184.119C401.954 193.048 407.058 197.967 416.157 197.967C425.256 197.967 430.489 192.991 430.489 184.119Z" fill="var(--color-text)"/>
<path d="M448.642 188.741V163.727H457.869V188.684C457.869 194.575 459.452 197.968 469.035 197.968C478.617 197.968 480.385 194.632 480.385 188.684V163.727H489.613V188.741C489.613 199.793 484.092 205.314 469.091 205.314C454.09 205.314 448.627 199.793 448.627 188.741H448.642Z" fill="var(--color-text)"/>
<path d="M538.077 176.049C538.077 183.523 532.858 188.741 522.048 188.741H509.242V204.399H500.015V163.727H522.362C532.987 163.727 538.092 168.831 538.092 176.049H538.077ZM522.286 181.569C526.537 181.569 528.604 179.389 528.604 176.294C528.604 173.199 526.609 170.891 522.471 170.891H509.239V181.573H522.286V181.569Z" fill="var(--color-text)"/>
<path d="M107.13 67.2479C107.043 67.2479 106.96 67.2177 106.873 67.2177V63.2691L115.915 53.6148C117.37 53.5846 118.711 53.5582 119.966 53.5431L107.115 67.2479H107.13ZM100.756 67.6069L89.1479 55.2283C87.935 55.3568 86.7674 55.5117 85.5809 55.6704L97.661 68.5629C98.6737 68.2077 99.6712 67.8223 100.741 67.6069H100.756ZM133.871 55.0545C133.871 56.1654 134.77 57.0647 135.881 57.0647C136.735 57.0647 137.465 56.5243 137.748 55.7686C136.422 55.455 135.152 55.0696 133.939 54.7144C133.928 54.8278 133.871 54.926 133.871 55.0545ZM135.866 59.9893C134.755 59.9893 133.856 60.8886 133.856 61.9995C133.856 63.1104 134.755 64.0097 135.866 64.0097C136.977 64.0097 137.876 63.1104 137.876 61.9995C137.876 60.8886 136.977 59.9893 135.866 59.9893ZM95.05 69.6171L83.9561 57.7788V62.0297L92.4126 71.0567C93.2552 70.5164 94.1394 70.0592 95.05 69.6322V69.6171ZM104.308 67.2366V63.2691L96.1496 54.5557C94.9102 54.654 93.6822 54.756 92.4541 54.8693L104.062 67.2479C104.149 67.2479 104.221 67.2328 104.304 67.2177V67.2366H104.308ZM83.9561 80.439C85.5242 77.4161 87.678 74.79 90.3041 72.6513L83.9561 65.8763V80.4238V80.439ZM127.24 80.1858V65.8952L120.948 72.5984C123.529 74.6804 125.656 77.2309 127.24 80.1858ZM123.631 53.5166L110.44 67.5767C111.509 67.7921 112.522 68.1624 113.55 68.5024L127.24 53.8982V53.5166C126.51 53.5166 125.286 53.5166 123.631 53.5166ZM127.24 57.7788L116.187 69.5604C117.102 69.9874 117.986 70.4597 118.825 70.985L127.24 62.0146V57.7637V57.7788ZM78.821 56.7511V122.268L105.588 136.23L132.356 122.253V54.2874C131.487 54.0456 130.629 53.8453 129.79 53.7018V120.7L105.588 133.32L81.3867 120.7V56.2825C80.5025 56.4261 79.6599 56.581 78.821 56.7397V56.7511ZM104.308 59.4187V55.183L103.295 54.1136C102.056 54.1854 100.801 54.2572 99.5314 54.3403L104.296 59.4301L104.308 59.4187ZM106.873 59.4036L112.209 53.7131C110.882 53.7547 109.514 53.8 108.086 53.8567L106.858 55.1527V59.3885L106.873 59.4036ZM120.465 122.683L113.165 114.896C112.122 115.24 111.083 115.553 109.983 115.75L117.786 124.063L120.453 122.665L120.465 122.683ZM125.57 120.016L118.496 112.47C117.642 112.999 116.769 113.483 115.859 113.91L122.891 121.41L125.558 120.012H125.57V120.016ZM101.224 115.738C100.14 115.538 99.1007 115.198 98.0729 114.854L90.7424 122.668L93.4101 124.066L101.224 115.738ZM115.36 125.351L106.888 116.309V120.56L112.692 126.749L115.36 125.351ZM77.3247 124.493C77.3247 123.382 76.4254 122.483 75.3145 122.483C74.2036 122.483 73.3043 123.382 73.3043 124.493C73.3043 125.604 74.2036 126.504 75.3145 126.504C76.4254 126.504 77.3247 125.604 77.3247 124.493ZM127.24 103.114C125.615 106.167 123.389 108.82 120.68 110.928L127.24 117.93V103.114ZM106.873 128.657L107.572 129.398L110.24 128L106.873 124.406V128.642V128.657ZM127.754 91.65C127.754 103.828 117.842 113.728 105.675 113.728C93.5084 113.728 83.5972 103.817 83.5972 91.65C83.5972 79.483 93.5084 69.5718 105.675 69.5718C117.842 69.5718 127.754 79.4867 127.754 91.65ZM119.981 95.2018L114.018 89.995L117.128 82.7212L109.341 84.1344L105.588 77.1591L101.836 84.1344L94.0487 82.7212L97.1585 89.995L91.1959 95.2018L98.8248 97.299L99.18 105.215L105.585 100.567L111.989 105.215L112.345 97.299C112.348 97.299 119.981 95.2018 119.981 95.2018ZM95.3788 113.853C94.4643 113.426 93.5802 112.954 92.7413 112.428L85.6263 120.016L88.2939 121.414L95.3825 113.868V113.853H95.3788ZM83.9561 102.861V117.934L90.5875 110.875C87.8329 108.706 85.5809 105.997 83.9561 102.861ZM104.308 116.309L95.836 125.351L98.5036 126.749L104.308 120.575V116.324V116.309ZM104.308 128.657V124.422L100.941 128.015L103.609 129.413L104.308 128.672V128.657ZM75.3145 108.593C74.2036 108.593 73.3043 109.492 73.3043 110.603C73.3043 111.714 74.2036 112.614 75.3145 112.614C76.4254 112.614 77.3247 111.714 77.3247 110.603C77.3247 109.492 76.4254 108.593 75.3145 108.593ZM75.3145 80.8244C74.2036 80.8244 73.3043 81.7237 73.3043 82.8346C73.3043 83.9455 74.2036 84.8448 75.3145 84.8448C76.4254 84.8448 77.3247 83.9455 77.3247 82.8346C77.3247 81.7237 76.4254 80.8244 75.3145 80.8244ZM75.3145 73.8793C74.2036 73.8793 73.3043 74.7786 73.3043 75.8895C73.3043 77.0004 74.2036 77.8997 75.3145 77.8997C76.4254 77.8997 77.3247 77.0004 77.3247 75.8895C77.3247 74.7786 76.4254 73.8793 75.3145 73.8793ZM75.3145 101.663C74.2036 101.663 73.3043 102.563 73.3043 103.673C73.3043 104.784 74.2036 105.684 75.3145 105.684C76.4254 105.684 77.3247 104.784 77.3247 103.673C77.3247 102.563 76.4254 101.663 75.3145 101.663ZM75.3145 59.9893C74.2036 59.9893 73.3043 60.8886 73.3043 61.9995C73.3043 63.1104 74.2036 64.0097 75.3145 64.0097C76.4254 64.0097 77.3247 63.1104 77.3247 61.9995C77.3247 60.8886 76.4254 59.9893 75.3145 59.9893ZM75.3145 94.7144C74.2036 94.7144 73.3043 95.6137 73.3043 96.7246C73.3043 97.8355 74.2036 98.7348 75.3145 98.7348C76.4254 98.7348 77.3247 97.8355 77.3247 96.7246C77.3247 95.6137 76.4254 94.7144 75.3145 94.7144ZM75.3145 87.7694C74.2036 87.7694 73.3043 88.6687 73.3043 89.7796C73.3043 90.8905 74.2036 91.7898 75.3145 91.7898C76.4254 91.7898 77.3247 90.8905 77.3247 89.7796C77.3247 88.6687 76.4254 87.7694 75.3145 87.7694ZM75.3145 66.9343C74.2036 66.9343 73.3043 67.8336 73.3043 68.9445C73.3043 70.0554 74.2036 70.9547 75.3145 70.9547C76.4254 70.9547 77.3247 70.0554 77.3247 68.9445C77.3247 67.8336 76.4254 66.9343 75.3145 66.9343ZM81.3754 130.04C82.4863 130.04 83.3856 129.141 83.3856 128.03C83.3856 126.919 82.4863 126.02 81.3754 126.02C80.2645 126.02 79.3652 126.919 79.3652 128.03C79.3652 129.141 80.2607 130.04 81.3754 130.04ZM133.871 68.9445C133.871 70.0554 134.77 70.9547 135.881 70.9547C136.153 70.9547 136.41 70.898 136.637 70.796C136.282 69.5113 135.953 68.2417 135.666 66.9759C134.653 67.093 133.871 67.9054 133.871 68.9445ZM129.82 126.02C128.71 126.02 127.81 126.919 127.81 128.03C127.81 129.141 128.71 130.04 129.82 130.04C130.931 130.04 131.831 129.141 131.831 128.03C131.831 126.919 130.931 126.02 129.82 126.02ZM135.866 73.8793C134.755 73.8793 133.856 74.7786 133.856 75.8895C133.856 77.0004 134.755 77.8997 135.866 77.8997C136.977 77.8997 137.876 77.0004 137.876 75.8895C137.876 74.7786 136.977 73.8793 135.866 73.8793ZM125.77 131.54C125.77 130.429 124.871 129.53 123.76 129.53C122.649 129.53 121.749 130.429 121.749 131.54C121.749 132.651 122.649 133.551 123.76 133.551C124.871 133.551 125.77 132.651 125.77 131.54ZM107.602 142.12C107.602 141.01 106.703 140.11 105.592 140.11C104.481 140.11 103.582 141.01 103.582 142.12C103.582 143.231 104.481 144.131 105.592 144.131C106.703 144.131 107.602 143.231 107.602 142.12ZM135.866 87.7694C134.755 87.7694 133.856 88.6687 133.856 89.7796C133.856 90.8905 134.755 91.7898 135.866 91.7898C136.977 91.7898 137.876 90.8905 137.876 89.7796C137.876 88.6687 136.977 87.7694 135.866 87.7694ZM135.866 101.663C134.755 101.663 133.856 102.563 133.856 103.673C133.856 104.784 134.755 105.684 135.866 105.684C136.977 105.684 137.876 104.784 137.876 103.673C137.876 102.563 136.977 101.663 135.866 101.663ZM135.866 94.7144C134.755 94.7144 133.856 95.6137 133.856 96.7246C133.856 97.8355 134.755 98.7348 135.866 98.7348C136.977 98.7348 137.876 97.8355 137.876 96.7246C137.876 95.6137 136.977 94.7144 135.866 94.7144ZM135.866 122.483C134.755 122.483 133.856 123.382 133.856 124.493C133.856 125.604 134.755 126.504 135.866 126.504C136.977 126.504 137.876 125.604 137.876 124.493C137.876 123.382 136.977 122.483 135.866 122.483ZM135.866 80.8244C134.755 80.8244 133.856 81.7237 133.856 82.8346C133.856 83.9455 134.755 84.8448 135.866 84.8448C136.977 84.8448 137.876 83.9455 137.876 82.8346C137.876 81.7237 136.977 80.8244 135.866 80.8244ZM135.866 108.593C134.755 108.593 133.856 109.492 133.856 110.603C133.856 111.714 134.755 112.614 135.866 112.614C136.977 112.614 137.876 111.714 137.876 110.603C137.876 109.492 136.977 108.593 135.866 108.593ZM135.866 115.538C134.755 115.538 133.856 116.437 133.856 117.548C133.856 118.659 134.755 119.559 135.866 119.559C136.977 119.559 137.876 118.659 137.876 117.548C137.876 116.437 136.977 115.538 135.866 115.538ZM109.639 138.599C109.639 139.71 110.538 140.609 111.649 140.609C112.76 140.609 113.66 139.71 113.66 138.599C113.66 137.488 112.76 136.589 111.649 136.589C110.538 136.589 109.639 137.484 109.639 138.599ZM91.4717 135.077C91.4717 136.188 92.371 137.087 93.4819 137.087C94.5928 137.087 95.4921 136.188 95.4921 135.077C95.4921 133.966 94.5928 133.067 93.4819 133.067C92.371 133.063 91.4717 133.962 91.4717 135.077ZM85.4109 131.54C85.4109 132.651 86.3102 133.551 87.4211 133.551C88.532 133.551 89.4313 132.651 89.4313 131.54C89.4313 130.429 88.532 129.53 87.4211 129.53C86.3102 129.53 85.4109 130.426 85.4109 131.54ZM97.5325 138.599C97.5325 139.71 98.4319 140.609 99.5428 140.609C100.654 140.609 101.553 139.71 101.553 138.599C101.553 137.488 100.654 136.589 99.5428 136.589C98.4319 136.589 97.5325 137.484 97.5325 138.599ZM75.3145 115.538C74.2036 115.538 73.3043 116.437 73.3043 117.548C73.3043 118.659 74.2036 119.559 75.3145 119.559C76.4254 119.559 77.3247 118.659 77.3247 117.548C77.3247 116.437 76.4254 115.538 75.3145 115.538ZM115.7 135.077C115.7 136.188 116.599 137.087 117.71 137.087C118.821 137.087 119.72 136.188 119.72 135.077C119.72 133.966 118.821 133.067 117.71 133.067C116.599 133.063 115.7 133.962 115.7 135.077Z" fill="var(--color-text)"/>
<path d="M105.589 159.774L142.509 137.284V85.8464C141.341 83.5074 140.314 81.1534 139.373 78.8031V128.431L105.589 148.011L71.7892 128.431V58.4781C70.6783 58.822 69.6354 59.1621 68.6529 59.4908V137.273L105.573 159.763L105.589 159.774ZM139.377 64.0704V56.0976C140.389 56.2828 141.417 56.4264 142.513 56.483V63.3714C141.459 63.5717 140.401 63.7984 139.377 64.0553V64.0704ZM90.7576 198.837C91.2299 198.935 91.5851 199.151 92.0121 198.935C92.2955 198.777 92.6696 198.236 93.0248 198.021C93.9505 197.481 95.0198 197.152 96.0892 197.08C96.2894 197.08 96.5464 197.008 96.5615 196.808C96.5615 196.721 96.5048 196.649 96.4633 196.581C95.8511 195.727 95.3788 194.956 94.351 194.541C94.0941 194.443 93.8107 194.356 93.5953 194.171C93.4102 194.027 93.2817 193.827 93.1381 193.63C92.5109 192.788 91.4982 192.463 90.8559 191.703C90.5725 191.374 90.5271 190.891 90.3269 190.505C90.085 190.048 89.7261 189.663 89.5711 189.164C89.5409 189.092 89.4842 189.02 89.4275 188.964C89.2273 189.062 89.027 189.149 88.8003 189.247C88.7436 189.277 88.6869 189.289 88.6416 189.319C88.5282 189.36 88.4149 189.417 88.2978 189.462C87.1415 189.905 86.0571 190.218 84.9197 190.445C84.761 190.46 84.6061 190.486 84.4474 190.502H84.3907C84.1186 190.543 83.8504 190.588 83.5783 190.6L83.0077 190.641L83.5481 190.441C84.0204 190.271 84.5041 190.097 84.9613 189.942C85.2447 189.844 85.5318 189.742 85.8152 189.644C86.843 189.274 87.8557 188.888 88.8683 188.446C88.8532 188.446 88.8268 188.416 88.8116 188.404C88.6681 188.178 88.5396 187.921 88.4262 187.649C87.3985 188.019 86.416 188.318 85.3883 188.518C85.2296 188.533 85.0746 188.559 84.9159 188.574H84.8744C84.6023 188.616 84.3189 188.661 84.0469 188.673L83.4763 188.714L84.0166 188.514C84.4436 188.355 84.9008 188.2 85.4298 188.03H85.46C85.7321 187.932 86.0155 187.815 86.2876 187.717C86.8997 187.46 87.5156 187.203 88.1277 186.961C88.0144 186.678 87.901 186.39 87.8141 186.092C87.1717 186.292 86.5294 186.462 85.8606 186.606C85.7019 186.621 85.547 186.647 85.3883 186.663H85.3467C85.0746 186.704 84.7912 186.749 84.5192 186.761L83.9486 186.802L84.489 186.602C84.9159 186.443 85.3731 186.288 85.9021 186.118H85.9324C86.5029 185.903 87.0735 185.707 87.6441 185.491C87.5458 185.136 87.4438 184.777 87.3607 184.422C87.0168 184.509 86.6767 184.607 86.3178 184.679C86.1591 184.694 86.0042 184.72 85.8455 184.735H85.8039C85.5318 184.777 85.2484 184.822 84.9764 184.834L84.4058 184.875L84.9462 184.675C85.3731 184.516 85.8303 184.361 86.3593 184.191H86.3896C86.673 184.078 86.9601 183.976 87.2435 183.878C87.1566 183.477 87.0735 183.08 87.0168 182.71C86.9299 182.725 86.8732 182.752 86.8014 182.767C86.6012 182.797 86.0042 182.895 85.4903 182.982C84.6212 183.126 83.7521 183.266 83.4952 183.296L82.9246 183.337L83.465 183.137C84.2056 182.865 85.0482 182.597 85.9475 182.31H85.989C86.2724 182.196 86.5898 182.094 86.8883 181.996C86.7183 180.953 86.6163 180.129 86.5596 179.857C86.4009 179.071 85.9588 177.991 85.7623 177.292C84.4209 172.414 82.1122 162.544 83.4952 156.426C83.9524 155.043 84.5948 151.764 85.1918 151.28L65.4109 138.788V73.2259C64.2131 73.7814 63.0569 74.3935 61.9875 75.1643C60.1625 76.4188 58.4357 77.832 57.0112 79.5135C55.4997 81.1231 54.1999 82.9369 53.0323 84.8337C51.8761 86.7305 50.8521 88.7256 49.9943 90.8227C50.9768 86.4018 53.259 82.2794 56.2819 78.8447C57.8235 77.1481 59.6184 75.6782 61.587 74.5106C62.7848 73.7549 64.0809 73.2259 65.4071 72.7989V70.0746C63.6539 70.8303 61.912 71.6276 60.2607 72.5571C58.9496 73.2826 57.6082 74.0421 56.4406 74.9112C55.2579 75.7953 54.2452 76.8647 53.3308 78.0474C51.4642 80.3863 49.9943 83.0389 48.6265 85.7217C47.3002 88.4309 46.1175 91.227 45.0897 94.0912C45.7472 91.1099 46.7599 88.2155 47.969 85.4043C49.1971 82.593 50.7198 79.914 52.5751 77.4466C53.4744 76.1921 54.642 75.0774 55.8965 74.1668C57.1925 73.2675 58.5188 72.5269 59.9055 71.843C61.7041 70.989 63.5405 70.2446 65.426 69.6476V60.6621C55.1596 64.5541 53.6747 67.7659 48.6416 74.0836C43.465 80.5563 36.1912 88.0757 28.8759 93.3355C22.4296 98.1683 14.045 103.092 9.9641 110.377C11.9176 108.865 14.3435 107.853 16.9242 107.611H16.9545L16.9847 107.755H16.9545C15.2843 108.253 13.7465 108.922 12.3182 109.708C12.1179 109.821 11.9176 109.95 11.7174 110.063C11.2904 110.32 10.8747 110.592 10.478 110.876C10.1795 111.091 9.8772 111.318 9.5938 111.544C9.45022 111.658 9.32175 111.786 9.18194 111.9C8.78141 112.769 8.44134 113.683 8.18439 114.624C10.2966 112.187 13.4744 110.532 16.9129 110.203H16.9431L16.9734 110.347H16.9431C13.4782 111.39 10.4704 113.097 8.22974 115.338C8.1315 115.436 8.04459 115.554 7.95768 115.652C7.88589 115.935 7.81409 116.207 7.77253 116.506C7.77253 116.763 7.80276 117.02 7.81409 117.277C9.92632 114.968 13.021 113.396 16.3575 113.082H16.3877L16.4179 113.226H16.3877C13.0096 114.239 10.085 115.909 7.85944 118.047C7.88967 118.376 7.94634 118.705 8.01814 119.018C10.0586 117.178 12.7829 115.954 15.6773 115.682H15.7075L15.7378 115.826H15.7075C14.0525 116.324 12.4995 116.982 11.0863 117.779C10.9012 117.877 10.7312 117.994 10.5573 118.093C10.1001 118.365 9.65804 118.648 9.24617 118.962C8.98923 119.147 8.73229 119.332 8.49046 119.517C8.3771 119.615 8.26374 119.718 8.14661 119.801C8.2184 120.114 8.31665 120.428 8.41867 120.741C10.4138 119.102 12.953 118.017 15.6773 117.745H15.7075L15.7378 117.889H15.7075C13.9807 118.418 12.3559 119.102 10.8861 119.94C10.0888 120.398 9.34442 120.912 8.63405 121.452C9.53335 124.089 10.9881 126.613 12.1859 129.394C12.1859 129.394 16.0363 138.508 15.9229 146.05C15.8662 149.557 14.9669 152.738 12.4164 154.492C10.2777 155.962 6.12885 156.687 5.24466 158.542C3.6501 161.758 0 165.038 0 165.038C1.15624 165.238 2.22558 165.321 3.22312 165.31C8.49802 165.196 11.7211 162.056 14.1886 156.683C14.1886 156.683 18.0805 152.803 18.8815 150.766C19.5957 149.598 20.1096 148.155 20.4497 146.489C20.8766 145.249 21.0202 143.779 20.99 142.238C20.8615 135.52 17.2681 127.12 17.2681 127.12C16.6824 125.537 16.4557 123.742 16.4557 120.972C16.4557 119.476 16.7391 117.862 17.4117 116.638C17.7253 116.067 17.9822 115.81 18.2656 115.569C21.6323 112.757 25.8681 111.405 28.4489 110.947C27.6781 111.219 27.2095 114.14 26.979 116.566C26.9224 121.331 27.4778 126.092 29.5447 130.271C30.614 132.553 31.9819 134.722 33.3799 136.887C34.8347 139.026 36.1459 141.278 37.7291 143.235C41.024 147.116 44.6892 150.895 48.0559 154.802C49.7676 156.74 51.4491 158.724 53.0323 160.775C54.6306 162.816 56.2252 164.868 57.6384 167.052C54.2301 163.145 50.153 159.393 46.6012 155.644L41.024 150.226C39.2405 148.359 37.287 146.689 35.5753 144.637C34.4493 143.296 33.4631 141.841 32.4958 140.401C32.5675 142.725 31.9554 145.038 31.2828 147.29C31.0108 148.231 30.7274 149.171 30.4553 150.112C31.3093 151.711 32.2237 153.294 33.123 154.832L33.6218 155.701L33.1381 155.161C31.9554 153.849 30.9994 152.451 30.187 151.038C30.0586 151.48 29.9301 151.922 29.8016 152.364C30.5422 153.706 31.2979 155.047 32.0537 156.358V156.389L32.5827 157.273L32.099 156.732C31.1015 155.622 30.2891 154.45 29.5447 153.267C29.4162 153.725 29.2726 154.182 29.1442 154.635C29.7714 155.746 30.3986 156.861 31.0259 157.945L31.5247 158.83L31.041 158.289C30.2286 157.39 29.5296 156.449 28.8872 155.478C28.7436 155.95 28.6152 156.419 28.4753 156.891C28.9741 157.775 29.488 158.66 29.9868 159.544V159.574L30.4704 160.371L29.9868 159.831C29.3595 159.117 28.789 158.391 28.26 157.651C27.9312 158.777 27.6025 159.903 27.2624 161.029C26.6767 163.024 25.9777 164.951 25.8492 167.018C25.751 168.714 25.2938 170.483 24.4663 171.994C23.5972 173.547 22.4561 174.42 21.4585 175.387C20.5743 176.271 20.0907 177.454 20.0907 178.709C20.0907 179.495 20.0189 180.405 19.6902 180.749C19.2632 181.191 18.7757 181.69 18.3223 182.204C18.379 182.302 18.4206 182.419 18.481 182.533C18.5944 182.718 18.7077 182.903 18.8097 183.088C19.7922 184.656 20.99 186.069 22.4183 187.237L22.9889 187.709L22.3314 187.365C20.4345 186.368 18.8815 184.743 17.8122 182.831C17.6535 183.031 17.5137 183.232 17.3852 183.417C17.4986 183.659 17.6119 183.9 17.7404 184.131C17.9104 184.46 18.0843 184.8 18.2807 185.128C18.7228 185.827 19.1952 186.496 19.7204 187.124C19.7922 187.222 19.8791 187.309 19.9622 187.407C20.563 188.091 21.2167 188.748 21.9157 189.334L22.4863 189.806L21.8288 189.462C19.7166 188.352 18.02 186.466 16.9658 184.271C16.8789 184.656 16.8789 185.098 16.9091 185.582C17.0225 185.809 17.1245 186.024 17.2379 186.251C17.423 186.579 17.593 186.919 17.7933 187.248C18.2203 187.947 18.7077 188.605 19.2178 189.232C19.2896 189.319 19.3765 189.417 19.4445 189.504C20.0453 190.188 20.699 190.845 21.4132 191.431L21.9838 191.903L21.3263 191.56C19.5579 190.619 18.0729 189.149 17.0036 187.411C17.0036 187.766 16.9469 188.068 16.8184 188.265C16.8033 188.295 16.7769 188.336 16.7618 188.378C16.8184 188.491 16.8751 188.62 16.9318 188.733C17.0603 188.96 17.1887 189.175 17.3323 189.402C17.7895 190.116 18.2581 190.815 18.8022 191.442C18.8173 191.458 18.8438 191.484 18.8589 191.499C19.4861 192.225 20.17 192.897 20.9106 193.509L21.4812 193.982L20.8237 193.638C18.9685 192.655 17.4457 191.083 16.3726 189.247C16.2743 189.489 16.1723 189.761 16.0589 190.059C16.1459 190.218 16.2176 190.388 16.3008 190.543C16.4708 190.857 16.6446 191.17 16.8411 191.484C17.2681 192.168 17.7404 192.825 18.2543 193.438C18.311 193.509 18.3828 193.581 18.4394 193.653C19.0516 194.352 19.7091 195.009 20.4232 195.591L20.9938 196.064L20.3363 195.72C18.3828 194.677 16.7844 192.995 15.7151 191C15.6169 191.272 15.5148 191.556 15.4166 191.854C15.5148 192.07 15.632 192.296 15.7453 192.512C15.9305 192.84 16.1005 193.181 16.2857 193.509C16.7278 194.208 17.2001 194.877 17.7253 195.493C17.7971 195.58 17.884 195.678 17.952 195.765C18.5528 196.449 19.2065 197.107 19.9207 197.692L20.4912 198.165L19.8337 197.821C17.7933 196.736 16.1534 194.953 15.0841 192.844C14.3132 195.183 13.5726 197.707 13.5726 198.561C13.4291 199.729 13.3308 201.199 14.3435 202.011C14.8271 202.397 15.4279 202.612 16.0136 202.823C16.3839 202.967 16.7693 203.096 17.1547 203.224C17.3134 203.281 17.6271 203.466 17.782 203.451C17.9822 203.421 18.0805 203.137 18.1523 202.978C18.2505 202.752 18.3374 202.506 18.4357 202.279C18.5641 201.966 18.6926 201.652 18.8211 201.339C18.8211 201.339 20.1889 199.128 22.3994 198.943C24.625 198.773 27.2473 198.943 27.7612 199.287C27.7612 199.287 29.3029 200.114 30.2702 200.655C30.3117 200.685 30.7425 200.398 30.8105 200.356C31.0259 200.243 31.2526 200.129 31.4793 200.027C31.9214 199.842 32.3786 199.683 32.8472 199.642C33.6444 199.57 34.6306 199.729 35.3864 199.971C35.8851 200.141 35.5564 200.299 37.2681 199.801C38.9647 199.287 39.6486 199.287 40.3325 199.457C40.4912 199.498 40.9182 199.657 41.0731 199.544C41.2016 199.445 41.1298 198.932 41.1033 198.788C40.8766 198.161 40.2607 197.76 39.7771 197.205C38.4923 195.735 37.1245 195.195 37.1245 195.195C37.1245 195.195 37.1547 195.123 37.1963 194.994C35.6433 193.967 33.9883 193.113 32.1632 192.614C34.0903 192.5 35.9002 193.056 37.5553 193.97C38.0389 192.546 38.84 190.192 39.2518 188.779C39.9093 186.64 39.4937 185.514 40.5063 184.286C42.2029 182.219 43.3856 180.035 45.2824 177.881C45.3391 177.809 45.3807 177.753 45.4412 177.696C44.5985 177.824 43.7143 177.911 42.747 177.911C42.2483 177.911 41.7344 177.896 41.2205 177.87C41.1222 177.87 41.0353 177.84 40.9371 177.84L40.7104 177.809C40.4383 177.779 40.1549 177.738 39.8829 177.696L39.3123 177.598L39.8829 177.556C40.2834 177.526 40.6953 177.484 41.0958 177.458L41.3678 177.428C42.936 177.314 44.5343 177.186 46.1024 176.899C46.3858 176.555 46.6579 176.215 46.9148 175.886C46.9148 175.886 46.8997 175.886 46.8846 175.886H46.8543C45.7434 176.101 44.7421 176.2 43.6728 176.2C43.1891 176.2 42.6752 176.185 42.1462 176.158C41.9875 176.128 41.8477 176.117 41.689 176.101H41.6021C41.3452 176.06 41.0731 176.03 40.8048 175.973L40.2343 175.875L40.8048 175.833C41.2054 175.803 41.6172 175.761 42.0178 175.735L42.2898 175.705C43.5179 175.618 44.7572 175.504 45.9853 175.334C46.3405 175.278 46.6994 175.236 47.0546 175.164C47.2133 175.134 47.3682 175.093 47.5269 175.051C47.6856 174.836 47.8557 174.624 47.9992 174.424C48.071 174.325 48.1428 174.197 48.1995 174.069C48.071 174.099 47.9577 174.14 47.8141 174.155C47.7839 174.155 47.7839 174.155 47.7725 174.155C46.6616 174.371 45.6603 174.454 44.591 174.454C44.1073 174.454 43.5934 174.439 43.0644 174.412C42.9057 174.382 42.7508 174.371 42.6072 174.356C42.3087 174.325 42.0215 174.284 41.7381 174.227L41.1676 174.129L41.7381 174.087C42.2218 174.046 42.7357 174.001 43.2231 173.974C44.4209 173.887 45.6339 173.774 46.8317 173.619C47.2322 173.562 47.6289 173.506 48.0144 173.434C48.1579 173.403 48.2978 173.362 48.4565 173.335C48.5434 173.052 48.6152 172.75 48.6718 172.451C47.5723 172.652 46.5747 172.75 45.5356 172.75C45.0633 172.75 44.5645 172.735 44.0091 172.708C43.8504 172.678 43.6954 172.667 43.5519 172.652C43.2534 172.621 42.9662 172.58 42.6828 172.523L42.1122 172.425L42.6828 172.383C43.1664 172.342 43.6803 172.296 44.1678 172.27C45.7094 172.157 47.2775 172.028 48.8154 171.756C48.9023 171.344 48.9741 171.015 49.0572 170.815C48.1731 170.959 47.3304 171.042 46.4614 171.042C45.9626 171.042 45.4487 171.027 44.9348 171C44.8366 171 44.7346 170.97 44.6363 170.959L44.4776 170.929C44.164 170.887 43.8768 170.857 43.5934 170.8L43.0229 170.702L43.5934 170.66C44.0771 170.619 44.591 170.573 45.0784 170.547C46.2762 170.46 47.4891 170.347 48.6869 170.192C49.2424 170.105 49.7979 170.022 50.3571 169.893C50.5989 169.852 50.8294 169.795 51.0712 169.735C52.7262 168.892 55.0501 167.751 56.7466 167.082C57.2605 167.683 57.7744 168.336 58.2996 169.035C58.2996 169.035 58.3148 169.035 58.3299 169.035C60.5101 169.935 62.8944 170.392 65.2598 170.634C66.2422 170.721 67.2284 170.777 68.1957 170.819H68.226V170.963H68.1957C67.168 171.133 66.1553 171.219 65.1729 171.219C63.0758 171.219 61.0958 170.819 59.2821 170.022C59.2518 170.022 59.2254 169.991 59.2103 169.991C59.1687 169.976 59.1234 169.95 59.0818 169.935C59.01 169.905 58.9533 169.863 58.8815 169.837C59.3085 170.437 59.7657 171.049 60.2381 171.692C60.5366 171.79 60.8502 171.892 61.1638 171.964C61.2772 171.994 61.3905 172.021 61.5077 172.051C63.8768 172.652 66.3405 172.848 68.7398 172.935H68.7701V173.079H68.7398C67.7272 173.237 66.7145 173.32 65.717 173.32C64.0053 173.32 62.3805 173.037 60.8388 172.508C61.1676 172.95 61.5228 173.407 61.8817 173.864C62.2105 173.921 62.5505 173.978 62.8793 174.023C63.0493 174.053 63.2231 174.065 63.3932 174.095C64.7761 174.265 66.1591 174.367 67.5307 174.409H67.5609V174.552H67.5307C66.518 174.722 65.4903 174.809 64.5078 174.809C63.839 174.809 63.1664 174.752 62.5241 174.666C62.7395 174.938 62.936 175.206 63.1816 175.478C63.1967 175.508 63.2798 175.648 63.3818 175.863C63.9108 175.92 64.436 175.977 64.965 176.007C65.1918 176.022 65.4223 176.049 65.649 176.064C66.1062 176.094 66.5747 176.12 67.0319 176.135H67.0622V176.279H67.0319C66.0193 176.449 64.9915 176.536 64.0091 176.536C63.8957 176.536 63.7937 176.536 63.6803 176.521C63.8239 176.819 63.9637 177.178 64.1527 177.564C65.3505 177.692 66.5332 177.779 67.7196 177.821H67.7499V177.964H67.7196C67.4778 178.006 67.1906 177.994 66.9337 178.021C66.5218 178.062 66.0911 178.108 65.649 178.119C65.3656 178.119 65.1086 178.191 64.795 178.191C64.6665 178.191 64.5381 178.191 64.4096 178.191C65.2636 180.16 66.3934 182.755 67.0924 184.509C67.2775 184.921 67.6932 185.434 67.7499 186.292C67.8065 187.15 67.6781 188.045 67.9917 189.001C68.789 190.57 69.3482 191.567 69.6618 192.44C70.017 193.438 70.0623 194.25 69.7903 195.52C69.2915 197.9 70.3306 198.656 70.2324 200.326C70.119 201.652 70.1908 202.922 70.6027 203.991C70.7463 204.361 70.9314 204.747 71.1733 205.06C71.2602 205.189 71.4453 205.446 71.6305 205.389C71.7892 205.332 71.9743 205.004 72.0877 204.89C72.8132 204.135 73.5575 203.394 74.3397 202.71C74.88 202.226 75.4657 201.739 76.1081 201.414C77.1623 200.885 78.3034 200.53 79.4748 200.345C80.4874 200.186 81.6135 200.129 82.5997 200.401C83.0418 200.53 83.4687 200.7 83.8693 200.93C84.0846 201.044 84.368 201.244 84.625 201.229C84.8404 201.229 84.8517 201.002 84.9386 200.828C85.1653 200.401 85.4789 200.031 85.8946 199.759C86.8506 199.132 88.3318 198.618 89.2046 198.675C89.7336 198.716 90.2475 198.833 90.7576 198.958V198.837ZM4.66276 164.199C4.14888 164.271 3.61988 164.286 3.10977 164.297C7.11884 163.541 10.7538 161.289 13.0777 157.908C11.638 161.274 8.2713 163.696 4.66276 164.199ZM39.6033 128.873L43.4234 134.964C44.7194 136.959 46.1477 138.871 47.9577 140.454C45.8908 139.185 44.2509 137.329 42.7961 135.391C41.3414 133.453 40.1285 131.371 38.7757 129.417C37.4192 127.335 36.6522 124.883 36.5086 122.442C36.3499 119.99 36.6786 117.564 37.3059 115.24C37.0792 117.636 36.962 120.031 37.2643 122.37C37.5628 124.694 38.2619 126.976 39.6033 128.873ZM25.9399 99.7364C26.911 99.1092 27.8934 98.5688 28.8494 97.9831C29.8205 97.4126 30.7878 96.8571 31.7287 96.245C33.6671 95.119 35.5073 93.8645 37.4759 92.7082C36.0212 94.5068 34.1545 95.8445 32.2426 97.0876C30.2739 98.2287 28.192 99.2565 25.955 99.7402H25.9399V99.7364ZM47.8481 146.655C43.771 143.591 40.1171 139.808 37.3512 135.474C35.9683 133.305 34.7553 131.023 33.8447 128.601C32.9756 126.164 32.4466 123.625 32.235 121.055C31.7778 115.909 32.8925 110.8 34.3473 105.952C33.0928 110.872 32.3219 115.977 32.8509 120.998C33.3497 126.032 35.3599 130.766 38.1561 134.945C39.5692 137.027 41.0807 139.052 42.7773 140.919C44.4587 142.801 46.3858 144.414 48.3393 146.054C50.2777 147.694 52.2615 149.334 53.9996 151.216C55.7378 153.097 57.2076 155.225 58.4054 157.477C55.7604 153.075 51.8836 149.723 47.8481 146.655ZM73.6029 194.103C73.9165 193.305 73.9316 192.478 73.8749 191.665C73.8031 190.853 73.5764 190.067 73.3459 189.296C73.1041 188.54 72.7187 187.755 72.4466 186.957C72.1746 186.13 71.8912 185.374 71.7476 184.418V184.346V184.274C72.0914 182.876 72.0763 181.35 71.8609 179.823C72.5184 181.191 72.7867 182.748 72.5864 184.316C72.73 185.015 73.0588 185.843 73.3573 186.613C73.6407 187.411 73.9429 188.166 74.1848 189.039C74.4266 189.882 74.5135 190.766 74.4568 191.65C74.4153 192.519 74.1432 193.419 73.6029 194.087V194.103ZM36.4217 202.174C36.7051 202.842 36.8487 203.572 36.8638 204.312C36.8638 204.569 36.8071 204.868 36.5804 204.955C36.4935 204.985 36.4104 204.985 36.3234 204.97C34.8687 204.883 33.4139 204.883 31.9592 204.97C31.7892 204.97 31.604 204.97 31.502 204.841C31.4302 204.754 31.4302 204.641 31.4151 204.543C31.3735 203.56 31.4 202.363 31.9441 201.52C32.8434 201.176 33.8712 200.949 34.8385 201.006C35.1672 201.021 35.5224 201.093 35.7944 201.278C36.093 201.493 36.2781 201.833 36.4217 202.162V202.174ZM42.9548 202.102C43.3969 202.816 43.8088 203.711 43.7257 204.569C42.7697 205.468 40.4156 204.569 39.146 204.826C38.976 204.856 38.7909 204.913 38.704 204.769C38.6624 204.683 38.6624 204.513 38.6473 204.414C38.6057 204.188 38.5755 203.942 38.549 203.715C38.4772 203.315 38.4054 202.918 38.2656 202.533C38.1787 202.276 37.9822 201.962 37.9936 201.679C37.9936 201.592 38.0351 201.509 38.1069 201.437C38.3639 201.18 38.7757 201.093 39.1196 200.995C39.5315 200.881 39.9622 200.836 40.3892 200.794C40.6613 200.764 40.9182 200.753 41.1865 200.738C41.3565 200.738 41.5417 200.666 41.7155 200.738C41.8855 200.794 42.014 200.953 42.1425 201.066C42.4561 201.38 42.7281 201.75 42.9548 202.121V202.102ZM84.8252 204.014C84.8555 204.426 84.8668 204.785 84.4398 204.985C83.8693 205.257 83.2571 205.412 82.6148 205.427C82.3729 205.427 82.1425 205.499 81.8893 205.514C81.5606 205.529 81.2318 205.544 80.9069 205.555C79.5655 205.642 78.2392 205.797 76.8978 205.884C76.3423 205.926 75.7718 205.941 75.2012 205.941C74.9178 205.941 74.6155 205.941 74.3321 205.911C74.1734 205.911 73.7767 205.952 73.6482 205.839C73.4064 205.639 73.977 205.181 74.1319 205.026C74.4153 204.743 74.7327 204.486 75.0463 204.229C75.6584 203.73 76.3008 203.247 76.9582 202.789C77.1736 202.631 77.4003 202.476 77.6157 202.332C77.6157 202.332 80.5101 200.621 83.0077 201.361C83.805 201.603 84.3756 202.189 84.6325 202.971C84.7459 203.3 84.7912 203.655 84.8177 204.014H84.8252ZM29.8923 203.043C29.9641 203.386 29.9906 203.742 29.9641 204.097C29.9339 204.369 29.8923 204.709 29.7223 204.894C29.624 204.992 29.4956 205.053 29.3104 205.023C28.7398 204.951 28.1844 204.966 27.5987 204.951C26.4727 204.921 25.3316 204.837 24.2207 204.694C23.2949 204.565 22.3805 204.41 21.4812 204.18C21.0089 204.067 20.5668 203.881 20.1134 203.738C19.8715 203.666 19.5428 203.666 19.3576 203.466C19.1574 203.266 19.4294 202.982 19.5428 202.797C19.8866 202.257 20.3552 201.815 20.8691 201.441C21.4548 200.998 22.1651 200.587 22.9095 200.469C24.0922 200.299 27.1717 200.469 28.0144 200.639C28.8645 200.806 29.6618 201.845 29.8923 203.043ZM186.182 201.134C186.223 201.391 186.254 201.648 186.269 201.92C186.31 203.046 185.898 204.033 185.226 204.917C184.825 205.446 184.64 205.816 183.998 205.487C183.427 205.204 182.815 204.83 182.373 204.361C181.647 203.606 182.471 202.623 182.887 201.852C183.216 201.252 183.427 200.496 184.028 200.084C184.954 199.442 186.038 200.171 186.197 201.138H186.182V201.134ZM182.131 200.976C182.003 201.66 181.19 203.659 180.219 203.243C179.947 203.13 179.679 202.944 179.422 202.786C178.866 202.457 178.322 202.128 177.797 201.773C177.17 201.373 176.558 200.946 175.942 200.519C175.541 200.235 174.332 199.763 174.672 199.192C174.944 198.72 175.526 198.35 175.885 197.923C175.885 197.923 176.97 196.627 178.266 196.498C179.577 196.37 180.563 196.528 181.704 198.025C182.347 198.867 182.43 199.336 182.131 200.961V200.976ZM217.325 163.628L217.011 163.058L217.453 163.541C218.152 164.312 218.738 165.151 219.237 166.066C219.736 165.782 220.219 165.423 220.707 165.023C220.563 164.667 220.45 164.308 220.295 163.953C220.265 163.897 220.253 163.84 220.223 163.795C219.868 163.024 219.482 162.242 219.055 161.486L218.742 160.915L219.184 161.399C220.038 162.34 220.752 163.409 221.296 164.535C221.768 164.093 222.21 163.564 222.653 162.994C222.124 161.554 221.496 160.126 220.699 158.716L220.385 158.146L220.828 158.629C221.825 159.714 222.596 160.968 223.166 162.294C223.522 161.754 223.865 161.138 224.194 160.469C223.654 158.943 222.981 157.431 222.154 155.95L221.84 155.38L222.282 155.863C223.28 156.948 224.066 158.202 224.621 159.544C224.92 158.86 225.192 158.13 225.449 157.318C224.92 155.848 224.266 154.382 223.465 152.954L223.151 152.383L223.593 152.867C224.493 153.849 225.218 154.964 225.774 156.162C225.872 155.776 225.989 155.406 226.087 154.994C226.129 154.794 226.174 154.567 226.216 154.367C225.687 152.897 225.033 151.442 224.232 150.003L223.918 149.432L224.36 149.916C225.23 150.857 225.929 151.941 226.484 153.082C226.643 152.285 226.798 151.442 226.941 150.573C226.442 149.262 225.857 147.951 225.143 146.666L224.829 146.096L225.271 146.579C226.027 147.407 226.654 148.333 227.168 149.319C227.266 148.718 227.353 148.106 227.44 147.479C226.941 146.122 226.34 144.785 225.585 143.458L225.271 142.888L225.713 143.371C226.484 144.214 227.111 145.155 227.625 146.152C227.723 145.427 227.825 144.683 227.924 143.927C227.697 143.371 227.466 142.786 227.21 142.2C226.926 141.614 226.639 141.017 226.31 140.432L225.997 139.861L226.439 140.345C227.081 141.044 227.621 141.815 228.094 142.612C228.181 141.943 228.264 141.27 228.336 140.602C228.12 140.061 227.878 139.476 227.637 138.905C227.364 138.335 227.081 137.749 226.767 137.193L226.454 136.623L226.896 137.107C227.523 137.79 228.037 138.546 228.506 139.332C228.577 138.746 228.649 138.165 228.706 137.579C228.166 136.011 227.466 134.469 226.609 132.943L226.295 132.372L226.737 132.856C227.621 133.812 228.336 134.907 228.876 136.064C229.148 133.626 229.416 131.344 229.647 129.376C227.878 128.276 226.152 127.124 224.47 125.88C222.018 124.082 219.705 122.128 217.468 120.092C217.17 119.82 216.868 119.551 216.584 119.279C216.199 118.924 215.798 118.554 215.401 118.195C217.442 126.379 218.126 134.069 218.224 140.099C218.322 145.748 217.926 149.923 217.71 151.68C217.34 154.318 215.742 161.977 210.164 160.995C208.366 160.681 205.944 159.298 205.388 157.386C204.833 155.474 203.877 153.494 202.509 153.494C201.141 153.494 201.81 155.463 199.256 155.946C198.201 156.147 197.842 156.09 197.329 155.977C196.815 155.863 196.686 155.935 196.671 156.234C196.63 157.318 198.923 160.783 199.951 162.068C202.46 165.132 206.953 167.974 211.415 167.845C213.456 167.789 216.119 167.687 218.674 166.406C218.515 166.05 218.375 165.691 218.217 165.336C217.944 164.781 217.676 164.21 217.374 163.655L217.325 163.628ZM208.226 165.151C206.998 164.894 205.857 164.365 204.776 163.738C202.664 162.412 200.896 160.485 200.011 158.176C201.425 160.16 203.106 161.913 205.158 163.111C206.155 163.753 207.24 164.252 208.381 164.607C209.507 165.019 210.69 165.208 211.903 165.419C210.693 165.51 209.439 165.465 208.226 165.151ZM249.514 133.751C247.961 132.455 242.441 130.743 229.035 120.103C222.989 115.312 217.196 110.15 212.091 104.358L211.865 104.086L212.137 104.301C218.67 109.462 225.158 114.669 231.861 119.589C231.933 119.646 232.005 119.687 232.076 119.748C232.076 115.342 231.434 110.392 230.75 106.398C229.923 106.526 229.069 106.625 228.139 106.67C227.924 106.67 227.727 106.67 227.512 106.67C227.142 106.67 226.726 106.67 226.329 106.64L225.63 106.61L226.329 106.496C226.715 106.424 227.115 106.383 227.47 106.338C227.686 106.307 227.882 106.281 228.097 106.251C228.94 106.107 229.794 105.967 230.637 105.793C230.508 105.079 230.395 104.41 230.282 103.783C228.914 104.127 227.414 104.354 225.717 104.441H225.116C224.746 104.441 224.33 104.441 223.918 104.41L223.219 104.38L223.918 104.267C224.319 104.195 224.704 104.154 225.075 104.108C225.29 104.078 225.487 104.052 225.687 104.021C227.183 103.779 228.71 103.507 230.164 103.107C230.066 102.551 229.949 102.022 229.866 101.565C228.725 101.792 227.497 101.951 226.159 102.022C225.944 102.022 225.747 102.022 225.532 102.022C225.177 102.022 224.761 102.022 224.349 101.992L223.65 101.962L224.349 101.849C224.704 101.792 225.075 101.735 225.418 101.69H225.517C225.717 101.648 225.917 101.633 226.118 101.603C226.56 101.531 227.002 101.459 227.444 101.376C227.814 101.305 228.2 101.233 228.57 101.161C228.955 101.074 229.341 100.991 229.726 100.904C229.567 100.148 229.454 99.5626 229.397 99.2225C228.385 99.4077 227.315 99.5361 226.144 99.5928C225.929 99.5928 225.732 99.5928 225.517 99.5928C225.162 99.5928 224.746 99.5928 224.334 99.5626L223.635 99.5324L224.334 99.419C224.689 99.3623 225.06 99.3056 225.403 99.2603H225.502C225.702 99.2187 225.902 99.2036 226.102 99.1734C227.172 99.0033 228.256 98.8031 229.31 98.5726C229.254 91.8127 224.776 85.6083 221.081 80.0462C221.05 79.9896 221.009 79.948 220.967 79.8875C219.184 80.5715 217.06 80.9984 214.563 81.1269C214.347 81.1269 214.151 81.1269 213.935 81.1269C213.58 81.1269 213.165 81.1269 212.753 81.0967L212.054 81.0665L212.753 80.9531C213.097 80.8964 213.452 80.8549 213.796 80.7944H213.909C214.124 80.7528 214.321 80.7226 214.536 80.7075C215.878 80.4921 217.219 80.2352 218.53 79.9102C218.916 79.812 219.316 79.7099 219.686 79.5815C219.97 79.4946 220.272 79.4114 220.555 79.3094C220.144 78.7237 219.728 78.1418 219.316 77.6128C219.259 77.5562 219.218 77.4844 219.172 77.4126C217.291 78.2401 214.952 78.7237 212.171 78.8673C211.955 78.8673 211.759 78.8673 211.544 78.8673H211.4C211.056 78.8673 210.701 78.8673 210.357 78.8371L209.658 78.7955L210.342 78.6822C210.742 78.6104 211.139 78.5688 211.51 78.5235L212.11 78.4517C214.151 78.1229 216.233 77.7375 218.141 77.0536C218.171 77.0536 218.198 77.0385 218.228 77.0234C218.413 76.9516 218.583 76.8798 218.768 76.808C218.583 76.4226 218.424 75.9654 218.269 75.4666C216.645 75.9956 214.748 76.3206 212.579 76.4377C212.364 76.4377 212.167 76.4377 211.952 76.4377H211.808C211.464 76.4377 211.109 76.4377 210.765 76.4075L210.066 76.3659L210.75 76.2526C211.105 76.1959 211.464 76.1543 211.804 76.0939H211.891C211.989 76.0636 212.091 76.0636 212.19 76.0523C212.303 76.0372 212.416 76.0221 212.518 76.0107C213.773 75.8105 215.027 75.5837 216.255 75.2852C216.656 75.187 217.041 75.085 217.438 74.9716C217.654 74.9149 217.85 74.8431 218.065 74.7713C217.937 74.2726 217.782 73.7587 217.608 73.2184C216.123 73.6302 214.457 73.9023 212.56 74.0043H211.819C211.476 74.0043 211.105 73.9892 210.765 73.9741L210.051 73.9438L210.75 73.8305C211.094 73.7738 211.449 73.7322 211.793 73.6718H211.906C212.122 73.6302 212.318 73.6 212.534 73.5849C214.158 73.3279 215.798 73.0143 217.366 72.5722C217.14 71.9865 216.852 71.3895 216.482 70.819C214.755 71.4462 212.719 71.8316 210.35 71.9601C210.134 71.9601 209.938 71.9601 209.722 71.9601C209.367 71.9601 208.951 71.9601 208.54 71.9299L207.841 71.8996L208.54 71.7863C208.895 71.7296 209.265 71.6729 209.609 71.6276H209.711C209.911 71.586 210.111 71.5709 210.312 71.5407C211.608 71.3253 212.923 71.0835 214.192 70.7698C214.578 70.6716 214.963 70.5696 215.333 70.4562C215.59 70.3844 215.832 70.2975 216.074 70.2295C216.044 70.1879 216.017 70.1426 215.987 70.101C215.674 69.7005 215.247 69.1299 214.748 68.4611C213.051 69.0468 211.067 69.4171 208.774 69.5305C208.558 69.5305 208.362 69.5305 208.147 69.5305C207.791 69.5305 207.376 69.5305 206.964 69.5002L206.265 69.47L206.964 69.3567C207.319 69.3 207.689 69.2433 208.033 69.198H208.132C208.332 69.1564 208.532 69.1413 208.732 69.111C210.002 68.9108 211.287 68.669 212.526 68.3704C212.896 68.2722 213.282 68.1853 213.652 68.0719C213.867 68.0001 214.094 67.9435 214.309 67.8717C213.837 67.2444 213.312 66.5303 212.741 65.7897C211.003 66.432 208.948 66.8174 206.552 66.9459C206.337 66.9459 206.14 66.9459 205.925 66.9459H205.781C205.437 66.9459 205.082 66.9459 204.738 66.9157L204.039 66.8741L204.738 66.7608C205.139 66.689 205.551 66.6474 205.879 66.6021C206.095 66.5718 206.306 66.5454 206.522 66.5152C207.807 66.2998 209.103 66.0731 210.372 65.7594C210.773 65.6612 211.169 65.5592 211.57 65.4307C211.812 65.3589 212.054 65.2871 212.296 65.204C211.838 64.6183 211.355 64.0062 210.826 63.3941C209.016 64.1082 206.832 64.5503 204.266 64.6901C204.051 64.6901 203.854 64.6901 203.639 64.6901H203.495C203.151 64.6901 202.796 64.6901 202.452 64.6599L201.753 64.6183L202.437 64.505C202.838 64.4332 203.25 64.3916 203.593 64.3463L203.877 64.3047C203.99 64.2896 204.092 64.2745 204.206 64.2631C205.547 64.0478 206.9 63.7908 208.226 63.4659C208.638 63.3676 209.053 63.2391 209.465 63.122C209.749 63.0351 210.051 62.952 210.334 62.8499C207.41 59.4417 203.745 55.9352 199.838 54.5635C192.877 51.484 186.903 49.7421 180.899 49.8441C176.535 49.9159 172.171 50.9701 167.395 53.2221C162.233 55.5308 153.49 55.8898 145.774 56.3584V62.7895C146.303 62.7177 146.817 62.6308 147.342 62.5741C151.306 62.0753 155.299 61.8751 159.278 61.6597C163.242 61.5312 167.221 60.8889 171.256 61.3763C175.265 61.7768 179.127 62.9028 182.864 64.2556L183.563 64.5125L182.838 64.3538H182.807C179.127 63.5565 175.39 62.8991 171.642 62.8122C167.89 62.6535 164.198 63.4394 160.404 63.7379C156.641 64.1082 152.889 64.4067 149.152 64.9055C145.528 65.4043 141.893 65.9597 138.413 67.0442C139.411 70.7509 140.151 74.5446 141.708 78.0663C142.464 79.8762 143.306 81.6597 144.217 83.4016C144.674 84.2707 145.131 85.1549 145.63 85.9824L147.3 88.4196C149.567 91.6276 151.623 95.0359 154.147 98.0323C155.401 99.5172 156.841 100.87 158.511 101.841C159.339 102.325 160.238 102.71 161.164 102.941C161.636 103.069 162.09 103.141 162.588 103.239C163.046 103.311 163.699 103.466 164.028 103.711C165.196 103.655 166.681 103.553 167.992 103.413L172.057 102.941C174.782 102.657 177.491 102.298 180.231 102.072L180.771 102.03L180.257 102.174H180.2C177.491 102.986 174.736 103.659 171.955 104.271L167.776 105.011C166.378 105.227 165.01 105.582 163.442 105.366C162.985 105.181 162.857 105.125 162.471 105.083L161.417 104.939C160.703 104.826 159.992 104.656 159.305 104.41C157.937 103.938 156.652 103.243 155.496 102.385C153.157 100.658 151.419 98.3648 149.662 96.1543C148.32 94.3859 147.039 92.576 145.781 90.7623V126.885C147.149 132.704 149.303 138.395 153.07 143.073C157.219 147.679 162.154 152.028 165.634 157.277C166.034 157.832 166.446 158.376 166.847 158.932C167.844 160.288 168.929 161.656 169.828 163.08C170.085 163.492 170.357 163.866 170.614 164.206C171.955 165.178 173.678 166.787 174.578 168.911C174.578 168.911 174.578 168.926 174.578 168.941C174.861 169.64 175.092 170.381 175.133 171.182L175.175 171.809L174.99 171.208C174.517 169.738 173.694 168.427 172.738 167.199C173.236 168.098 173.55 169.111 173.524 170.536C174.223 171.59 174.752 172.833 174.835 174.231L174.876 174.858L174.691 174.257C174.476 173.6 174.192 173.003 173.879 172.402C173.807 172.274 173.735 172.16 173.663 172.032C173.576 171.903 173.493 171.775 173.406 171.646C173.365 172.047 173.319 172.444 173.236 172.844C174.121 174.027 174.835 175.44 174.948 177.095L174.99 177.722L174.804 177.122C174.578 176.423 174.275 175.765 173.92 175.127C173.648 174.654 173.335 174.212 173.021 173.77C172.893 174.242 172.779 174.711 172.651 175.183C173.735 176.453 174.646 178.051 174.774 179.948L174.816 180.575L174.631 179.974C174.158 178.52 173.361 177.235 172.42 176.026C172.277 176.525 172.148 177.023 172.035 177.537C173.403 178.894 174.687 180.745 174.846 183.043L174.888 183.67L174.702 183.069C174.132 181.301 173.063 179.789 171.85 178.365C171.808 178.55 171.763 178.72 171.736 178.905C171.68 179.291 171.638 179.676 171.578 180.073C172.904 181.429 174.132 183.239 174.272 185.465L174.313 186.092L174.128 185.491C173.588 183.779 172.56 182.298 171.389 180.912C171.245 181.384 171.06 181.826 170.674 182.166C169.662 183.107 168.407 183.791 167.353 184.69C166.284 185.605 165.184 186.557 164.659 187.857C164.531 188.17 164.432 188.514 164.489 188.839C164.731 190.324 168.766 189.44 169.907 189.723C171.804 190.207 174.427 191.219 175.341 192.247C175.726 192.689 175.881 193.301 175.953 193.872C175.983 194.144 175.995 194.427 175.995 194.7C175.995 194.858 175.881 195.27 176.108 195.312C176.195 195.327 176.38 195.213 176.463 195.183C176.607 195.142 176.735 195.111 176.875 195.085C177.332 194.987 177.79 194.941 178.243 194.87C179.225 194.726 180.268 194.926 181.122 195.425C181.723 195.78 182.233 196.279 182.607 196.865C182.792 197.163 182.951 197.477 183.08 197.806C183.151 198.021 183.166 198.248 183.238 198.474C183.268 198.546 183.295 198.69 183.382 198.731C183.752 198.89 184.081 198.603 184.451 198.603C185.449 198.603 186.204 199.173 186.749 199.986C186.79 200.042 186.847 200.114 186.919 200.114C186.96 200.114 187.005 200.084 187.032 200.058C187.217 199.899 187.402 199.729 187.504 199.517C187.576 199.374 187.591 199.219 187.618 199.06L187.761 198.078C187.833 197.594 187.905 197.095 187.803 196.608C187.705 196.135 187.761 195.708 187.716 195.225C187.674 194.741 187.474 194.356 187.618 193.842C189.031 188.635 192.824 184.388 194.079 179.139C195.19 174.503 194.362 169.697 193.01 165.208C192.382 163.111 191.468 161.07 191.015 158.962C190.943 158.618 190.871 158.293 190.799 157.949C190.671 157.877 190.527 157.806 190.399 157.734C190.24 157.662 190.1 157.605 189.957 157.549C189.329 157.277 188.744 157.091 188.203 156.948C188.116 156.918 188.018 156.906 187.931 156.876C187.247 156.732 186.635 156.676 186.065 156.676C185.679 156.676 185.309 156.706 184.965 156.732H184.935L184.905 156.589H184.935C186.718 156.049 188.657 156.234 190.595 157.061C190.497 156.604 190.38 156.147 190.251 155.705C188.169 154.579 186.499 154.25 185.146 154.25C184.746 154.25 184.391 154.28 184.047 154.307H184.017L183.986 154.163H184.017C185.883 153.592 187.939 153.819 189.964 154.764C189.805 154.28 189.635 153.793 189.435 153.324C189.121 153.154 188.834 153.011 188.551 152.867C188.422 152.81 188.309 152.738 188.181 152.697C187.867 152.553 187.569 152.455 187.281 152.353C187.153 152.311 187.039 152.266 186.911 152.225C186.597 152.126 186.299 152.055 186.027 151.998C186.012 151.998 185.985 151.998 185.97 151.998C185.313 151.869 184.757 151.828 184.258 151.828C184.202 151.828 184.145 151.828 184.088 151.828C183.775 151.828 183.461 151.858 183.148 151.885H183.117L183.087 151.741H183.117C184.984 151.17 187.009 151.397 189.023 152.311C188.74 151.756 188.422 151.212 188.097 150.672C187.954 150.6 187.799 150.502 187.655 150.445C187.512 150.373 187.372 150.332 187.228 150.26C186.601 149.988 186 149.787 185.445 149.659C185.358 149.644 185.275 149.617 185.188 149.602C184.504 149.459 183.892 149.402 183.321 149.402C182.921 149.402 182.551 149.432 182.21 149.474H182.18L182.15 149.33H182.18C183.85 148.816 185.675 148.945 187.485 149.644C187.429 149.546 187.357 149.428 187.3 149.33C187.085 148.918 186.93 148.488 186.76 148.061C186.647 148.004 186.545 147.962 186.431 147.917C186.046 147.747 185.675 147.603 185.32 147.49C185.078 147.403 184.848 147.346 184.621 147.29C184.436 147.248 184.266 147.203 184.081 147.161C183.809 147.105 183.541 147.063 183.284 147.033C182.97 147.003 182.656 146.991 182.369 146.991C181.984 146.991 181.613 147.021 181.285 147.048H181.254L181.224 146.904H181.254C182.864 146.406 184.621 146.504 186.374 147.146C186.174 146.632 185.974 146.134 185.789 145.62C185.63 145.548 185.475 145.491 185.316 145.419C185.003 145.291 184.674 145.147 184.376 145.064C184.134 144.977 183.892 144.921 183.661 144.864C183.491 144.822 183.318 144.777 183.163 144.751C182.551 144.637 181.965 144.581 181.451 144.581C181.05 144.581 180.695 144.611 180.351 144.637H180.321L180.291 144.494H180.321C181.134 144.237 181.991 144.18 182.845 144.222C183.699 144.263 184.572 144.422 185.456 144.735C185.4 144.592 185.358 144.437 185.298 144.293C185.139 143.893 184.954 143.538 184.769 143.152C184.599 143.08 184.44 143.024 184.285 142.952C183.986 142.823 183.684 142.71 183.401 142.623C183.174 142.551 182.959 142.495 182.732 142.438C182.547 142.397 182.362 142.351 182.192 142.31C181.591 142.196 181.024 142.14 180.51 142.14C180.125 142.14 179.754 142.17 179.426 142.196H179.395L179.365 142.053H179.395C179.781 141.924 180.193 141.883 180.593 141.826C180.593 141.826 180.593 141.826 180.608 141.826C180.979 141.784 181.349 141.769 181.719 141.784C181.791 141.784 181.863 141.784 181.935 141.784C182.732 141.826 183.533 141.943 184.345 142.226C184.088 141.697 183.847 141.157 183.59 140.617C183.405 140.53 183.219 140.458 183.034 140.39C182.819 140.303 182.607 140.231 182.407 140.163C182.165 140.092 181.923 140.02 181.681 139.963C181.538 139.933 181.409 139.906 181.281 139.876C180.669 139.763 180.098 139.706 179.584 139.706C179.199 139.706 178.829 139.736 178.485 139.763H178.455L178.424 139.619H178.455C178.81 139.506 179.18 139.461 179.554 139.404C179.569 139.404 179.596 139.404 179.611 139.404C179.981 139.362 180.336 139.347 180.722 139.347C180.763 139.347 180.809 139.347 180.835 139.347C181.606 139.377 182.377 139.476 183.159 139.717C183.102 139.604 183.046 139.491 183 139.374C181.644 136.064 180.317 132.742 178.991 129.432C178.307 127.936 177.635 126.451 176.939 125.468C176.456 124.754 175.942 123.417 175.515 122.601C173.233 117.609 173.448 111.79 175.243 106.742C175.213 111.635 175.33 116.668 177.17 121.176C177.967 120.333 178.753 119.479 179.494 118.694C179.463 118.637 179.437 118.565 179.407 118.508C179.335 118.38 179.248 118.282 179.18 118.153C178.594 117.197 177.895 116.385 177.041 115.773L176.641 115.489L177.113 115.648C178.383 116.075 179.354 117.016 180.008 118.157C180.537 117.601 180.99 117.114 181.375 116.702C181.345 116.646 181.319 116.574 181.289 116.532C181.289 116.517 181.258 116.502 181.258 116.475C180.631 115.391 179.86 114.507 178.934 113.838L178.534 113.555L179.006 113.713C180.261 114.14 181.217 115.07 181.874 116.181C182.131 115.909 182.316 115.708 182.388 115.64L182.418 115.584C182.732 115.285 183.019 114.972 183.318 114.643C183.287 114.586 183.261 114.514 183.231 114.458C183.132 114.273 183.004 114.114 182.887 113.944C182.316 113.045 181.647 112.274 180.835 111.692L180.435 111.408L180.907 111.567C182.192 112.009 183.159 112.95 183.816 114.091C184.13 113.736 184.444 113.377 184.772 113.007C184.602 112.595 184.429 112.164 184.232 111.809C184.217 111.779 184.202 111.752 184.19 111.722C183.892 111.193 183.563 110.724 183.193 110.298C183.193 110.282 183.163 110.267 183.151 110.256C182.766 109.814 182.339 109.428 181.882 109.088L181.481 108.805L181.954 108.964C183.578 109.519 184.704 110.891 185.32 112.444C185.732 112.002 186.174 111.575 186.677 111.174C186.707 111.144 186.764 111.117 186.835 111.076C186.208 109.95 185.422 109.051 184.466 108.352L184.066 108.068L184.538 108.227C185.834 108.669 186.82 109.64 187.474 110.808C188.101 110.566 188.831 110.335 188.929 110.309C188.899 110.252 188.872 110.165 188.842 110.109C188.657 109.765 188.441 109.466 188.241 109.153C188.056 108.896 187.897 108.612 187.701 108.382C187.614 108.268 187.5 108.197 187.402 108.098C187.073 107.77 186.76 107.441 186.39 107.173L185.989 106.889L186.461 107.048C187.901 107.547 188.955 108.673 189.598 110.014C190.081 109.787 190.569 109.542 191.067 109.315C190.44 108.189 189.654 107.275 188.698 106.591L188.298 106.307L188.77 106.466C190.081 106.908 191.079 107.891 191.736 109.077C192.22 108.892 192.719 108.748 193.248 108.692C193.905 108.533 194.816 108.465 195.545 108.42C194.377 107.392 193.35 106.251 192.522 104.981L192.466 104.894L192.564 104.936C194.718 105.918 196.527 107.46 197.827 109.326C199.354 110.724 202.078 113.32 202.962 114.817C203.246 115.357 203.333 115.886 203.019 115.999C203.019 115.999 203.189 116.4 203.446 116.657C203.96 117.171 204.428 116.687 204.859 115.731C205.573 114.22 206.227 110.411 206.658 108.37L206.673 108.401V108.329C209.953 111.594 213.403 114.703 216.97 117.67C220.605 120.692 224.398 123.545 228.351 126.141C232.314 128.722 236.38 131.148 240.657 133.173C242.569 134.087 245.921 135.599 247.202 135.912C247.773 136.056 248.358 136.128 248.955 136.139C249.998 136.181 251.181 135.055 249.582 133.713L249.514 133.751ZM157.585 97.1405C152.893 94.4313 150.512 89.2131 148.245 84.5352C148.317 79.6306 147.519 74.6958 145.721 70.1161C148.26 73.8796 149.798 80.7264 149.514 84.1082C151.797 88.5443 153.848 93.4791 157.971 96.5019C159.339 97.4579 160.907 98.1418 162.551 98.7124C160.839 98.4857 159.142 97.9983 157.574 97.1443H157.585V97.1405ZM173.943 68.6198C168.781 67.8074 163.79 69.5342 158.696 70.2295C157.642 70.3277 156.558 70.3995 155.515 70.1313C156.569 70.0897 157.567 69.8479 158.553 69.5607C163.559 68.0342 168.865 66.2091 174.124 67.5656C176.165 68.0644 178.36 68.9637 179.573 70.7472C177.975 69.4209 175.923 68.9221 173.924 68.6236L173.943 68.6198ZM160.212 141.365C157.903 138.327 155.564 135.459 153.051 132.523C151.895 130.981 150.897 129.27 150.255 127.418C149.613 125.593 149.284 123.568 149.628 121.629C150.157 118.406 151.468 115.44 153.078 112.674C153.078 112.644 153.108 112.618 153.108 112.618C153.406 112.104 153.709 111.575 154.034 111.076C153.762 111.616 153.505 112.175 153.248 112.731C153.947 113.388 155.243 114.042 155.844 114.458L156.002 114.556L155.817 114.526C155.133 114.427 153.406 113.8 153.006 113.241C152.862 113.54 152.749 113.842 152.62 114.14C153.335 114.768 154.559 115.41 155.145 115.81L155.303 115.909L155.118 115.878C154.461 115.792 152.893 115.21 152.409 114.681C152.28 114.994 152.152 115.308 152.039 115.622C152.764 116.222 153.905 116.819 154.464 117.19L154.623 117.288L154.438 117.258C153.826 117.171 152.398 116.646 151.827 116.147C151.812 116.188 151.785 116.234 151.77 116.275C151.672 116.559 151.57 116.846 151.472 117.129C152.197 117.715 153.297 118.297 153.841 118.671L154 118.769L153.814 118.739C153.214 118.652 151.903 118.168 151.275 117.685C151.177 118.013 151.075 118.342 150.992 118.667C151.717 119.238 152.76 119.778 153.274 120.137L153.433 120.235L153.248 120.205C152.692 120.133 151.494 119.706 150.837 119.249C150.75 119.578 150.678 119.918 150.61 120.247C151.336 120.847 152.45 121.414 152.991 121.788L153.149 121.886L152.964 121.856C152.394 121.784 151.166 121.327 150.512 120.874C150.47 121.146 150.425 121.414 150.399 121.686C150.399 121.773 150.399 121.856 150.399 121.943C151.124 122.544 152.239 123.126 152.794 123.496L152.953 123.594L152.768 123.564C152.227 123.492 151.041 123.065 150.372 122.623C150.372 122.994 150.372 123.379 150.402 123.749C151.128 124.305 152.156 124.849 152.67 125.204L152.828 125.302L152.643 125.272C152.159 125.2 151.158 124.86 150.463 124.475C150.52 124.887 150.606 125.302 150.705 125.703C151.389 126.186 152.231 126.629 152.688 126.931L152.847 127.029L152.662 126.999C152.277 126.942 151.562 126.715 150.935 126.428C151.562 128.397 152.617 130.248 153.871 131.877C156.225 134.756 158.704 137.768 160.858 140.878C163.027 144.002 165.109 147.237 166.507 150.789C164.738 147.422 162.528 144.342 160.246 141.32L160.212 141.365ZM190.115 180.87C190.588 179.132 190.969 177.375 191.056 175.565C191.241 173.766 191.2 171.971 191.086 170.161C190.958 168.352 190.716 166.553 190.372 164.743C191.827 168.151 192.269 171.93 192.027 175.652C191.857 177.507 191.472 179.359 190.829 181.116C190.229 182.884 189.231 184.494 188.105 185.937C188.891 184.263 189.673 182.623 190.115 180.87ZM174.343 127.747C174.729 128.204 175.043 128.673 175.371 129.16C176.611 131.072 178.009 132.995 178.564 135.251C178.152 134.182 177.465 133.256 176.811 132.327C176.157 131.397 175.469 130.486 174.759 129.602L173.69 128.291C173.289 127.819 172.964 127.35 172.636 126.867C171.993 125.895 171.408 124.883 170.909 123.813C169.968 121.701 169.284 119.321 169.511 116.955C169.681 114.632 170.225 112.364 171.037 110.211C170.61 112.463 170.282 114.73 170.266 116.97C170.21 119.211 170.822 121.361 171.808 123.386C172.265 124.414 172.79 125.397 173.391 126.353C173.69 126.825 174.003 127.294 174.332 127.721L174.343 127.747ZM184.667 96.0145L181.757 100.621C182.056 99.0789 183.012 94.6467 183.253 93.1919C183.782 89.7118 183.34 86.16 182.112 82.8537C181.613 81.5123 181.001 80.2012 180.215 78.9618C183.182 81.8977 184.837 85.9484 185.165 90.1124C187.232 84.0364 186.99 77.2917 183.968 71.4727C189.802 78.3194 189.371 88.6425 184.651 96.0145H184.667ZM201.111 73.3242C203.979 74.3784 204.489 79.1432 204.489 79.1432C204.489 79.1432 202.921 75.6631 200.155 75.1341C197.718 74.6769 193.41 77.4579 193.41 77.4579C193.41 77.4579 197.106 71.843 201.111 73.3242ZM196.618 80.613C196.618 80.613 197.075 77.7338 199.996 77.6468C202.921 77.5599 204.504 82.1396 203.163 84.3916C203.163 84.3916 202.664 82.4532 201.965 81.8108C201.965 81.8108 199.07 84.0931 197.189 81.8411C196.475 80.9984 193.951 81.928 193.951 81.928C193.951 81.928 195.292 80.084 196.618 80.613ZM194.423 85.2456C196.705 87.2406 198.16 86.1713 199.528 85.4874C200.884 84.8035 201.224 85.8728 201.224 85.8728C196.361 90.0368 194.423 85.2304 194.423 85.2304V85.2456ZM204.164 103.432C203.707 104.116 203.367 104.985 202.751 105.612C202.524 105.839 202.21 105.997 201.908 105.982C202.437 105.699 202.535 105.155 202.679 104.615C203.605 99.2679 209.197 97.8698 212.107 102.589C209.171 100.636 206.231 100.092 204.164 103.432ZM93.8107 202.873C93.8409 203.043 93.8674 203.228 93.8825 203.413C93.8825 203.557 93.8825 203.742 93.7842 203.84C93.6558 203.968 93.3837 203.999 93.2137 204.04C92.7716 204.154 92.3295 204.267 91.8874 204.354C90.973 204.539 90.0321 204.667 89.0913 204.709C88.634 204.739 88.1655 204.739 87.7083 204.709C87.4816 204.709 87.236 204.679 87.0093 204.667C86.809 204.652 86.639 204.637 86.5521 204.524C86.4954 204.467 86.4803 204.365 86.4803 204.24C86.4954 203.999 86.5105 203.757 86.5218 203.515C86.5218 203.515 86.4916 201.803 87.4211 200.832C88.3507 199.861 89.2046 199.321 91.0712 199.721C92.1255 199.937 92.5109 200.235 93.3686 201.69C93.584 202.045 93.7125 202.446 93.7956 202.857L93.8107 202.873ZM173.83 197.711C173.686 197.87 173.444 198.195 173.244 198.251C173.202 198.251 173.146 198.251 173.1 198.251C172.843 198.221 172.515 197.994 172.33 197.866C171.717 197.454 171.23 196.884 170.674 196.396C169.76 195.599 168.876 194.786 168.022 193.914C167.338 193.23 166.681 192.516 166.053 191.775C165.883 191.575 165.369 191.246 165.641 190.989C165.811 190.83 166.254 190.917 166.469 190.876C166.798 190.819 167.126 190.732 167.466 190.706C168.494 190.634 169.348 190.906 170.334 191.034C170.334 191.034 173.27 191.877 174.657 194.031C175.47 195.3 174.755 196.698 173.83 197.681V197.711ZM98.8022 199.85C99.044 200.662 99.1007 201.376 99.0289 202.09C98.9307 202.718 98.6435 203.232 98.0729 203.53C97.5024 203.829 96.8751 203.931 95.904 203.874C95.5035 203.844 95.035 203.904 94.9216 203.447C94.8498 203.164 94.88 202.846 94.8234 202.563C94.7364 202.121 94.6231 201.679 94.4946 201.236C94.351 200.738 94.1961 200.224 94.011 199.74C94.011 199.74 94.0979 198.928 95.1105 198.758C95.7378 198.66 96.365 198.599 97.0074 198.588C97.3512 198.588 97.7215 198.546 98.0616 198.618C98.2203 198.648 98.3903 198.705 98.4735 198.833C98.5868 199.003 98.6435 199.306 98.7002 199.502C98.7417 199.589 98.7871 199.702 98.7984 199.872L98.8022 199.85ZM146.82 204.883C146.677 205.125 146.178 204.955 145.936 204.955C145.551 204.939 145.165 204.939 144.78 204.955C143.155 204.985 141.527 205.125 139.917 204.996C139.002 204.909 138.092 204.739 137.249 204.369C137.219 204.369 137.219 204.339 137.219 204.339C136.747 204.123 136.293 203.84 135.964 203.424C135.609 202.967 135.878 202.884 136.248 202.627C136.531 202.427 136.803 202.215 137.075 202.015C137.831 201.414 140.756 201.414 142.108 201.573C143.465 201.731 144.463 202.03 146.144 203.768C146.371 203.995 147.043 204.539 146.813 204.924V204.883H146.82ZM162.108 200.137C162.222 200.137 162.464 200.178 162.566 200.107C162.766 199.963 162.381 199.207 162.309 199.022C162.18 198.652 162.025 198.225 161.723 197.953C160.639 196.925 159.297 194.945 159.297 194.945C158.443 193.007 157.842 186.489 157.57 183.096C157.472 183.096 157.37 183.137 157.257 183.137C156.985 183.152 156.716 183.167 156.444 183.167C154.661 183.167 152.995 182.782 151.91 182.453L151.309 182.283L151.978 182.313C152.261 182.313 152.549 182.344 152.832 182.355C153.973 182.412 155.156 182.483 156.339 182.453C156.354 182.453 156.38 182.453 156.395 182.453C156.766 182.453 157.121 182.423 157.48 182.397C157.438 181.856 157.408 181.456 157.393 181.229C157.223 181.229 157.064 181.244 156.879 181.244C155.095 181.244 153.429 180.859 152.345 180.53L151.744 180.36L152.371 180.39C152.654 180.39 152.942 180.42 153.225 180.432H153.297C154.608 180.503 156.006 180.575 157.374 180.503C157.374 180.103 157.374 179.706 157.374 179.306C155.59 179.306 153.924 178.92 152.84 178.591L152.239 178.421L152.908 178.452C153.191 178.452 153.478 178.482 153.762 178.493C154.929 178.565 156.157 178.622 157.37 178.591C157.37 178.18 157.37 177.764 157.37 177.352C155.772 177.295 154.291 176.967 153.304 176.668L152.704 176.498L153.331 176.528C153.614 176.528 153.901 176.559 154.185 176.57H154.241C155.254 176.627 156.308 176.683 157.378 176.668C157.378 176.241 157.393 175.826 157.408 175.399C155.983 175.3 154.684 174.998 153.784 174.741L153.183 174.571L153.852 174.601C154.136 174.601 154.423 174.632 154.706 174.643C155.59 174.684 156.505 174.741 157.415 174.741C157.415 174.314 157.446 173.872 157.457 173.445C156.203 173.317 155.061 173.045 154.249 172.803L153.648 172.633L154.275 172.663C154.559 172.678 154.846 172.693 155.129 172.704H155.186C155.927 172.746 156.698 172.791 157.468 172.803C157.567 169.508 157.638 166.213 157.34 162.861C157.068 159.88 156.614 156.899 156.357 153.921C156.172 151.782 155.458 150.585 155.73 148.873C154.189 147.388 152.666 145.892 151.408 144.509C148.827 141.255 146.915 137.579 145.717 133.698V138.89L125.196 151.839C127.807 151.752 129.261 150.77 131.355 150.626C131.355 150.626 131.411 151.711 131.627 153.521C131.853 153.592 132.084 153.664 132.311 153.721C132.424 153.751 132.537 153.778 132.654 153.808C135.009 154.393 137.446 154.594 139.826 154.692H139.856V154.836H139.826C138.798 155.006 137.786 155.093 136.803 155.093C135.005 155.093 133.308 154.779 131.714 154.178C131.77 154.605 131.827 155.062 131.899 155.546C132.197 155.644 132.484 155.731 132.783 155.818C132.896 155.848 133.01 155.875 133.138 155.905C135.507 156.491 137.971 156.702 140.37 156.789H140.401V156.933H140.37C139.358 157.091 138.345 157.175 137.347 157.175C135.451 157.175 133.652 156.819 131.986 156.177C132.042 156.578 132.114 157.004 132.186 157.447C134.468 157.987 136.849 158.187 139.161 158.274H139.191V158.418H139.161C138.133 158.588 137.121 158.675 136.138 158.675C134.812 158.675 133.527 158.489 132.303 158.161C132.375 158.546 132.447 158.947 132.518 159.343C132.874 159.415 133.244 159.472 133.603 159.529C133.916 159.57 134.23 159.627 134.544 159.657C135.912 159.827 137.283 159.914 138.621 159.971H138.651V160.114H138.621C137.608 160.284 136.58 160.371 135.598 160.371C134.616 160.371 133.603 160.273 132.647 160.088C132.719 160.401 132.775 160.715 132.847 161.059C134.445 161.301 136.055 161.403 137.638 161.471H137.669V161.614H137.638C136.626 161.784 135.598 161.871 134.616 161.871C134.075 161.871 133.531 161.841 133.006 161.784C133.792 165.234 134.918 169.141 136.573 173.007C136.917 177.926 136.501 181.849 136.573 185.612C136.66 190.804 137.869 194.424 136.973 196.85C136.701 197.605 136.074 198.746 135.976 199.532C135.919 199.933 135.878 200.33 135.817 200.73C135.787 200.874 135.488 201.701 135.647 201.773C135.734 201.815 136.187 201.373 136.274 201.316C136.531 201.131 136.815 200.961 137.087 200.817C137.688 200.488 138.371 200.246 139.082 200.205C141.462 200.046 143.518 200.549 144.357 200.904C145.211 201.233 147.451 203.3 147.61 203.798C147.682 203.927 147.825 204.082 147.867 204.225C147.924 204.395 148.011 204.724 148.166 204.41C148.222 204.297 148.237 204.169 148.324 204.055C148.422 203.897 148.551 203.772 148.653 203.613C149.681 202.072 151.392 201.233 152.575 200.719C153.773 200.19 156.097 200.878 156.682 201.048C157.026 201.146 157.351 201.346 157.665 201.52C157.865 201.633 158.035 201.792 158.251 201.89C158.337 201.932 158.466 202.019 158.549 202.004C158.693 202.004 158.662 201.962 158.708 201.845C158.866 201.444 158.991 200.847 159.448 200.677C160.049 200.435 160.676 200.277 161.304 200.178C161.545 200.137 161.776 200.122 162.018 200.107L162.108 200.137ZM140.828 193.419C140.484 192.606 140.185 191.764 139.856 190.936C139.271 189.255 138.844 187.513 138.53 185.744C138.273 183.976 138.175 182.166 138.371 180.367C138.598 178.599 139.07 176.744 140.299 175.406C139.429 176.948 139.199 178.716 139.131 180.428C139.089 182.155 139.172 183.893 139.501 185.589C139.728 187.316 140.159 189.013 140.586 190.709L141.999 195.799C141.587 195.013 141.213 194.201 140.831 193.403V193.419H140.828ZM158.999 198.996C158.927 198.641 158.7 198.395 158.485 198.142C158.269 197.885 158.043 197.628 157.801 197.386C157.272 196.846 156.932 196.158 156.645 195.474C156.403 194.76 156.361 193.963 156.233 193.422C156.089 192.837 155.734 192.281 155.065 191.998C155.821 191.854 156.607 192.44 156.932 193.154C157.287 193.925 157.276 194.552 157.559 195.164C157.744 195.792 158.043 196.377 158.387 196.933C158.73 197.545 159.199 198.244 158.987 199.015L158.999 198.996ZM158.413 204.358C158.428 204.898 158.572 205.412 157.884 205.412C157.355 205.412 156.815 205.54 156.274 205.54C155.488 205.54 154.706 205.468 153.935 205.37C152.908 205.227 151.884 205.042 150.856 204.928C150.64 204.898 149.7 204.958 149.643 204.728C149.601 204.528 149.987 204.358 150.1 204.256C150.384 204.014 150.671 203.772 150.954 203.515C151.468 203.058 152.008 202.631 152.624 202.332C153.981 201.633 155.349 201.962 155.349 201.962C155.349 201.962 158.356 202.888 158.413 204.358ZM163.575 204.728C163.575 204.728 163.518 204.758 163.518 204.785C162.721 205.257 162.721 205.427 161.821 205.385C161.364 205.355 160.865 205.344 160.423 205.257C160.094 205.185 159.981 204.902 159.924 204.573C159.883 204.301 159.838 204.044 159.781 203.787C159.709 203.345 159.565 202.816 159.652 202.362C159.796 201.55 161.334 201.391 162.577 201.278C162.577 201.278 162.577 201.263 162.547 201.248C162.547 201.248 162.577 201.263 162.588 201.278C163.571 201.936 164.3 203.874 163.559 204.728H163.575Z" fill="var(--color-text)"/>
</g>
<defs>
<clipPath id="clip0_207_6586">
<rect width="609.352" height="160" fill="var(--color-text)" transform="translate(0 48)"/>
</clipPath>
</defs>
</svg>
