<svg width="582" height="256" viewBox="0 0 582 256" fill="none" xmlns="http://www.w3.org/2000/svg">
<path d="M6.21826 147.642H33.3402V120.206H6.21826V147.642Z" fill="var(--color-text)"/>
<path d="M82.5959 147.642H109.718V120.206H82.5959V147.642Z" fill="var(--color-text)"/>
<path d="M158.974 147.642H186.096V120.206H158.974V147.642Z" fill="var(--color-text)"/>
<path d="M229.428 147.642H256.55V120.206H229.428V147.642Z" fill="var(--color-text)"/>
<path d="M305.495 104.617C305.495 108.67 305.183 110.229 304.248 111.164C303.624 111.788 302.066 112.1 300.195 112.1H299.26V114.594H317.653C325.135 114.594 331.058 112.723 335.422 108.358C340.41 103.682 342.904 96.5107 342.904 88.7161C342.904 81.5452 340.722 75.6213 336.981 70.6329C332.305 65.3327 326.382 62.8384 317.653 62.8384H299.26V65.3327H300.195C302.066 65.3327 303.624 65.6445 304.248 66.2679C305.183 67.2034 305.495 68.7622 305.495 72.8154V104.617ZM312.665 72.1918C312.665 68.7622 312.977 67.827 313.6 66.8916C314.535 65.9563 316.406 65.3327 319.212 65.3327C330.123 65.3327 334.487 72.1918 334.487 88.7161C334.487 105.552 330.434 111.788 319.212 111.788C313.6 111.788 312.665 110.852 312.665 104.929V72.1918Z" fill="var(--color-text)"/>
<path d="M376.885 96.5105C376.573 84.9746 370.962 77.8037 362.233 77.8037C354.127 77.8037 348.204 85.5983 348.204 96.5105C348.204 108.358 354.127 115.841 363.168 115.841C369.091 115.841 373.144 112.723 376.261 105.864L374.079 104.617C371.273 110.541 368.467 112.723 364.415 112.723C358.18 112.723 355.686 108.046 355.374 96.5105H376.885ZM355.686 93.7044C355.686 85.5983 358.492 80.6096 362.856 80.6096C367.221 80.6096 369.715 85.5983 369.715 93.7044H355.686Z" fill="var(--color-text)"/>
<path d="M406.813 115.217L417.413 114.594V112.411H416.478C413.36 112.411 412.737 111.164 412.737 105.864V78.4272L400.89 78.7391V81.2332H402.137C405.255 81.2332 406.19 82.4802 406.19 87.4688V97.1338C406.19 101.499 405.566 104.305 404.008 107.111C402.449 110.229 399.955 111.787 397.149 111.787C395.59 111.787 394.032 110.852 393.408 109.293C392.785 107.734 392.473 106.175 392.473 103.058V78.4272L380.938 78.7391V81.2332H381.874C385.303 81.2332 385.926 82.4802 385.926 87.4688V100.875C385.926 106.799 386.238 109.293 387.797 111.787C389.356 114.282 391.849 115.529 395.279 115.529C400.578 115.529 404.008 112.723 406.813 106.799V115.217Z" fill="var(--color-text)"/>
<path d="M431.752 81.545H442.351V78.7391H431.752V65.3325H429.569C428.634 74.6859 426.452 77.8037 419.594 79.3625V81.545H425.205V103.058C425.205 108.67 425.828 110.852 427.387 112.723C428.946 114.594 431.128 115.529 434.246 115.529C440.48 115.529 443.598 111.476 443.598 103.993V102.434H440.792V103.37C440.792 108.982 439.234 112.099 436.116 112.099C434.246 112.099 432.998 111.164 432.375 109.293C432.063 107.734 431.752 106.175 431.752 103.058V81.545Z" fill="var(--color-text)"/>
<path d="M469.161 78.7394H466.667C466.667 79.9864 466.044 80.6098 465.732 80.6098C465.42 80.6098 464.797 80.2982 464.485 80.2982C462.303 78.7394 459.497 78.1157 457.003 78.1157C450.768 78.1157 446.716 82.1689 446.716 87.7807C446.716 93.0812 449.521 96.1989 455.756 98.3814C460.744 99.9403 460.744 99.9403 462.615 101.187C464.485 102.434 465.732 104.305 465.732 106.799C465.732 110.229 463.238 113.035 459.497 113.035C456.38 113.035 453.262 111.476 451.392 108.67C450.145 107.111 449.521 105.241 448.274 101.499H446.092V114.594H448.274L448.586 113.97C448.898 112.723 449.521 112.411 449.833 112.411C450.145 112.411 450.457 112.411 450.768 112.723C454.509 114.905 456.38 115.529 459.497 115.529C466.356 115.529 471.344 110.853 471.344 103.993C471.344 100.564 469.785 97.7578 466.979 95.5753C465.42 94.3282 463.238 93.3928 458.25 91.8339C453.262 90.275 451.704 88.7162 451.704 85.9103C451.704 82.7923 454.198 80.2982 457.627 80.2982C462.615 80.2982 465.42 83.4159 466.667 90.275H469.161V78.7394Z" fill="var(--color-text)"/>
<path d="M500.959 104.617C498.777 110.229 495.972 112.723 491.919 112.723C485.996 112.723 483.19 107.734 483.19 96.5105C483.19 85.9101 486.308 80.6096 492.231 80.6096C495.348 80.6096 497.842 82.1687 499.089 84.6628C498.777 84.6628 498.466 84.6628 498.154 84.6628C496.283 84.6628 494.725 86.2217 494.725 88.4042C494.725 90.8985 496.283 92.7692 498.466 92.7692C501.271 92.7692 503.142 90.5867 503.142 87.7805C503.142 82.1687 497.842 77.8037 491.607 77.8037C482.255 77.8037 475.708 85.5983 475.708 96.5105C475.708 108.046 481.631 115.841 490.672 115.841C496.595 115.841 500.648 112.723 503.454 105.552L500.959 104.617Z" fill="var(--color-text)"/>
<path d="M530.888 114.594H542.422V112.411H541.487C538.058 112.411 537.434 111.164 537.434 105.864V93.3926C537.434 86.5335 536.811 84.0394 534.94 81.5451C533.382 79.3626 530.888 78.1155 527.459 78.1155C523.094 78.1155 519.977 80.298 517.482 85.2864V62.2148L505.948 62.8382V65.0207H506.883C510.312 65.0207 510.936 66.2678 510.936 71.2564V105.864C510.936 111.164 510.312 112.411 506.883 112.411H505.636V114.594H522.782V112.411H521.535C518.106 112.411 517.482 111.164 517.482 105.864V97.4457C517.482 92.1455 518.106 89.0278 519.353 86.2216C520.912 83.1039 523.406 81.5451 525.9 81.5451C527.459 81.5451 529.017 82.1687 529.641 83.7275C530.576 85.2864 530.888 86.8453 530.888 91.5219V114.594Z" fill="var(--color-text)"/>
<path d="M574.844 96.5105C574.532 84.9746 568.921 77.8037 560.192 77.8037C552.087 77.8037 546.164 85.5983 546.164 96.5105C546.164 108.358 552.087 115.841 561.127 115.841C567.05 115.841 571.103 112.723 574.221 105.864L572.039 104.617C569.233 110.541 566.427 112.723 562.374 112.723C556.14 112.723 553.646 108.046 553.334 96.5105H574.844ZM553.646 93.7044C553.646 85.5983 556.451 80.6096 560.816 80.6096C565.18 80.6096 567.674 85.5983 567.674 93.7044H553.646Z" fill="var(--color-text)"/>
<path d="M321.706 143.277H322.641C330.435 143.277 333.864 147.33 335.422 158.866L337.605 158.555L337.293 140.783H298.948L298.636 158.555L300.819 158.866C301.13 154.501 301.754 152.319 302.689 149.825C304.559 145.772 308.3 143.277 312.665 143.277H314.536V182.562C314.536 186.615 314.224 188.173 313.288 189.109C312.353 189.733 310.795 190.044 309.236 190.044H307.365V192.538H328.564V190.044H327.005C325.135 190.044 323.576 189.733 322.641 189.109C321.706 188.173 321.706 186.615 321.706 182.562V143.277Z" fill="var(--color-text)"/>
<path d="M366.596 174.455C366.285 162.919 360.673 155.749 352.256 155.749C343.839 155.749 337.916 163.543 337.916 174.455C337.916 186.303 343.839 193.785 352.879 193.785C358.803 193.785 362.856 190.668 366.285 183.809L363.791 182.561C360.985 188.485 358.491 190.668 354.126 190.668C347.892 190.668 345.397 185.991 345.397 174.455H366.596ZM345.397 171.649C345.397 163.543 348.203 158.554 352.568 158.554C356.932 158.554 359.426 163.543 359.426 171.649H345.397Z" fill="var(--color-text)"/>
<path d="M382.497 140.159L370.962 140.783V142.965H371.897C375.015 142.965 375.95 144.212 375.95 149.201V183.808C375.95 189.108 375.015 190.356 371.897 190.356H370.65V192.538H387.485V190.356H386.237C383.12 190.356 382.497 189.108 382.497 183.808V140.159Z" fill="var(--color-text)"/>
<path d="M419.907 174.455C419.595 162.919 413.983 155.749 405.566 155.749C397.461 155.749 391.538 163.543 391.538 174.455C391.538 186.303 397.149 193.785 406.189 193.785C412.113 193.785 416.166 190.668 419.595 183.809L417.101 182.561C414.607 188.485 411.801 190.668 407.437 190.668C401.513 190.668 398.708 185.991 398.708 174.455H419.907ZM398.708 171.649C398.708 163.543 401.513 158.554 405.878 158.554C410.242 158.554 412.736 163.543 412.736 171.649H398.708Z" fill="var(--color-text)"/>
<path d="M459.81 192.538V190.356H459.187C456.693 190.356 455.446 189.108 452.952 185.367L443.599 170.402L452.017 162.607C455.446 159.801 456.381 159.178 458.563 159.178H459.499V156.683H443.911V159.178H445.158C447.652 159.178 448.587 159.801 448.587 161.049C448.587 161.984 447.652 163.231 446.405 164.478L435.806 173.52V140.159L424.271 140.783V142.965H425.206C428.636 142.965 429.259 144.212 429.259 149.201V183.808C429.259 189.108 428.636 190.356 425.206 190.356H423.959V192.538H441.105V190.356H439.859C436.429 190.356 435.806 189.108 435.806 183.808V177.261L438.923 174.455L450.146 192.538H459.81Z" fill="var(--color-text)"/>
<path d="M478.202 155.749C468.538 155.749 462.302 163.231 462.302 174.767C462.302 185.991 468.538 193.785 477.89 193.785C487.554 193.785 493.789 185.991 493.789 174.767C493.789 163.543 487.554 155.749 478.202 155.749ZM477.89 158.243C480.696 158.243 483.189 159.801 484.437 162.919C485.683 165.725 486.307 169.467 486.307 174.767C486.307 185.679 483.501 191.291 477.89 191.291C472.278 191.291 469.784 185.679 469.784 174.455C469.784 169.467 470.408 165.725 471.655 162.919C472.902 160.113 475.396 158.243 477.89 158.243Z" fill="var(--color-text)"/>
<path d="M540.239 192.538H551.462V190.356H550.527C547.409 190.356 546.786 189.109 546.786 183.808V169.778C546.786 165.102 546.162 162.296 544.604 160.113C543.045 157.619 540.239 156.06 536.81 156.06C532.446 156.06 529.328 158.243 527.146 163.231C525.275 158.243 522.469 156.06 518.105 156.06C514.052 156.06 510.311 158.554 509.065 162.608V156.372L498.153 156.684V159.178H498.777C502.206 159.178 502.829 160.425 502.829 165.413V183.808C502.829 189.109 502.206 190.356 498.777 190.356H497.53V192.538H514.364V190.356H513.429C510 190.356 509.376 189.109 509.376 183.808V174.143C509.376 168.22 509.688 165.725 510.935 163.231C512.182 160.737 514.052 159.49 516.235 159.49C518.105 159.49 519.664 160.425 520.287 161.984C521.223 163.855 521.534 165.413 521.534 171.961V192.538H533.069V190.356H532.134C528.705 190.356 528.081 189.109 528.081 183.808V174.143C528.081 167.596 528.393 165.725 529.64 163.231C530.887 160.737 533.069 159.49 535.251 159.49C536.81 159.49 538.369 160.113 538.992 161.672C539.927 163.231 540.239 165.725 540.239 170.714V192.538Z" fill="var(--color-text)"/>
<path d="M216.647 69.3856H219.453C238.469 69.3856 247.198 79.986 250.939 108.67L256.862 108.046L255.927 63.1499H159.909L158.974 108.046L164.585 108.67C165.521 98.0692 166.768 92.1453 169.262 86.2215C173.626 75.621 182.978 69.3856 194.513 69.3856H198.566V167.908C198.566 178.196 197.942 181.626 195.76 183.808C193.89 185.679 189.837 186.926 185.473 186.926H180.796V193.162H234.417V186.926H229.74C225.376 186.926 221.323 185.679 219.453 183.808C217.271 181.626 216.647 178.196 216.647 167.908V69.3856Z" fill="var(--color-text)"/>
</svg>
