<svg width="192" height="256" viewBox="0 0 192 256" fill="none" xmlns="http://www.w3.org/2000/svg">
<g clip-path="url(#clip0_215_6712)">
<path d="M192 32V224H0V32H192ZM51.2002 111.104H57.5996V110.048C57.5996 93.1519 67.1998 82.5918 85.3438 82.5918H86.3994V158.624C86.3994 169.184 82.1439 173.408 71.4561 173.408H68.2559V180.8H123.712V173.408H120.512C109.856 173.408 105.568 169.184 105.568 158.624V82.5918H106.624C124.768 82.5919 134.368 93.1519 134.368 110.048V111.104H140.768V75.2002H51.2002V111.104ZM51.2002 123.776V144.896H72.5439V123.776H51.2002ZM119.456 144.896H140.8V123.776H119.456V144.896Z" fill="var(--color-text)"/>
</g>
<defs>
<clipPath id="clip0_215_6712">
<rect width="192" height="192" fill="white" transform="translate(0 32)"/>
</clipPath>
</defs>
</svg>
