<svg width="405" height="256" viewBox="0 0 405 256" fill="none" xmlns="http://www.w3.org/2000/svg">
<g clip-path="url(#clip0_207_6651)">
<path d="M320.282 69.4971C319.336 69.4971 318.541 69.8289 318.141 70.4783C317.727 71.149 317.792 72.0125 318.23 72.8866L328.845 91.2615C328.863 91.2972 328.863 91.3186 328.845 91.3507L312.165 120.786C311.73 121.653 311.751 122.524 312.165 123.195C312.565 123.84 313.271 124.265 314.217 124.265H329.915C332.263 124.265 333.394 122.681 334.197 121.232C334.197 121.232 350.51 92.3818 351.145 91.2615C351.08 91.158 340.352 72.4406 340.352 72.4406C339.57 71.0491 338.389 69.4971 335.981 69.4971H320.282ZM251.153 103.838C226.791 103.839 213.422 118.053 213.422 143.799V170.916C213.422 195.506 225.129 208.022 248.299 208.022C267.034 208.022 282.205 200.697 283.265 200.173V151.471C283.265 149.958 282.191 148.884 280.678 148.884H249.637C248.124 148.884 247.05 149.958 247.05 151.471V163.958C247.05 165.471 248.124 166.545 249.637 166.545H264.087C264.148 166.545 264.176 166.574 264.176 166.634V187.685C264.176 187.731 264.126 187.76 264.087 187.774C264.019 187.803 257.279 190.361 248.923 190.361C237.884 190.361 232.511 183.511 232.511 169.489V143.799C232.511 136.51 233.945 131.151 236.881 127.476C240.096 123.455 244.956 121.5 251.867 121.5H254.899C264.933 121.5 272.682 123.74 277.645 125.335C278.416 125.582 279.122 125.453 279.607 125.068C280.103 124.675 280.41 124.008 280.41 123.195V111.242C280.41 109.89 279.747 109.13 277.734 108.12C275.169 106.836 267.865 103.838 255.256 103.838H251.153ZM3.35968 105.176C2.63896 105.176 2.07879 105.455 1.75411 105.979C1.40088 106.547 1.40445 107.332 1.75411 108.031L27.2649 154.503C27.2827 154.535 27.2827 154.65 27.2649 154.682L0.326931 203.473C-0.0262948 204.176 -0.0262948 204.958 0.326931 205.525C0.648046 206.049 1.21178 206.328 1.9325 206.328H19.3262C21.3171 206.328 22.0271 205.211 22.805 203.652L40.6447 170.827C40.6625 170.791 40.6946 170.737 40.7339 170.737C40.7767 170.737 40.8052 170.791 40.8231 170.827L58.752 203.652C59.5262 205.207 60.1506 206.328 62.1415 206.328H79.6244C80.3451 206.328 80.9089 206.049 81.23 205.525C81.4084 205.239 81.4976 204.89 81.4976 204.544C81.4976 204.194 81.4048 203.826 81.23 203.473C81.2264 203.466 54.2028 154.682 54.2028 154.682C54.1921 154.664 54.2028 154.61 54.2028 154.592C54.2028 154.575 54.1921 154.518 54.2028 154.503L79.8028 108.031C79.9776 107.678 80.0704 107.31 80.0704 106.96C80.0704 106.614 79.9776 106.261 79.8028 105.979C79.4781 105.455 78.9144 105.176 78.1972 105.176H60.7143C58.7234 105.176 58.0134 106.297 57.2356 107.852L40.8231 138.358C40.8052 138.39 40.7767 138.448 40.7339 138.448C40.6946 138.448 40.6625 138.39 40.6447 138.358L24.2321 107.852C23.5828 106.547 22.8977 105.176 20.7534 105.176H3.35968ZM94.1638 105.176C92.6545 105.176 91.577 106.254 91.577 107.763V203.741C91.577 205.25 92.6545 206.328 94.1638 206.328H107.99C109.499 206.328 110.576 205.25 110.576 203.741V107.763C110.576 106.254 109.499 105.176 107.99 105.176H94.1638ZM131.092 105.176C129.583 105.176 128.416 106.254 128.416 107.763V203.741C128.416 205.25 129.583 206.328 131.092 206.328H144.918C146.427 206.328 147.504 205.25 147.504 203.741V145.851C147.504 145.801 147.547 145.773 147.594 145.762C147.64 145.748 147.661 145.808 147.683 145.851L177.654 203.652C178.271 204.886 179.231 206.328 181.132 206.328H195.582C197.092 206.328 198.169 205.25 198.169 203.741V107.763C198.169 106.254 197.092 105.176 195.582 105.176H181.757C180.247 105.176 179.17 106.254 179.17 107.763V165.564C179.17 165.614 179.127 165.642 179.081 165.653C179.034 165.667 178.927 165.696 178.902 165.653L148.932 107.852C148.275 106.55 147.597 105.176 145.453 105.176H131.092Z" fill="var(--color-text)"/>
<path d="M386.234 48C383.89 48 382.873 49.4772 382.031 50.99C382.031 50.99 348.211 110.967 347.098 112.937C347.155 113.044 369.404 153.861 369.404 153.861C370.182 155.252 371.385 156.851 373.789 156.851H389.471C390.416 156.851 391.155 156.494 391.554 155.848C391.972 155.177 391.961 154.293 391.522 153.422L369.39 112.986C369.369 112.954 369.369 112.915 369.39 112.883L404.149 51.4253C404.584 50.5582 404.595 49.6734 404.181 49.0026C403.782 48.3568 403.039 48 402.094 48H386.234Z" fill="var(--color-text)"/>
</g>
<defs>
<clipPath id="clip0_207_6651">
<rect width="404.543" height="160" fill="var(--color-text)" transform="translate(0 48)"/>
</clipPath>
</defs>
</svg>
