<svg width="619" height="256" viewBox="0 0 619 256" fill="none" xmlns="http://www.w3.org/2000/svg">
<g clip-path="url(#clip0_207_6554)">
<path fill-rule="evenodd" clip-rule="evenodd" d="M271.498 96.2631C267.003 93.7562 260.327 92.5279 251.08 92.5279C238.433 92.5405 226.69 95.2112 222.252 96.893C221.246 97.2205 220.178 98.1024 220.152 99.6015V99.9416L221.41 106.341L221.435 106.467C221.825 107.759 222.893 108.357 223.855 108.357H223.874C224.188 108.332 224.427 108.269 224.653 108.212L226.759 107.708C232.272 106.322 240.601 104.193 249.892 104.193C255.537 104.193 259.321 104.697 261.867 105.781C265.991 107.374 266.016 110.089 266.06 114.58V121.301C265.589 121.289 264.79 121.282 263.564 121.282C259.007 121.282 250.049 121.503 241.249 122.933C227.809 125.036 216.689 128.305 216.764 147.152C216.764 171.075 238.577 171.113 249.05 171.138C256.153 171.125 262.722 170.054 267.016 169.16C276.79 166.848 279.292 163.692 279.16 153.81V114.02C279.16 107.948 279.185 100.401 271.491 96.2568L271.498 96.2631ZM266.123 157.696C260.918 159.416 255.223 160.278 249.188 160.278C239.545 160.203 230.141 159.082 230.122 146.578C230.185 136.626 235.403 135.448 242.003 133.949L242.462 133.842C248.333 132.563 263.093 132.33 266.129 132.293L266.123 157.696ZM388.136 114.013V153.784C388.262 163.674 385.767 166.823 375.985 169.135C371.711 170.035 365.142 171.106 358.026 171.113C347.553 171.087 325.747 171.05 325.74 147.133C325.659 128.299 336.779 125.024 350.219 122.92C359.019 121.484 367.983 121.263 372.534 121.263C373.766 121.263 374.558 121.276 375.049 121.282V114.568C374.998 110.077 374.967 107.368 370.85 105.774C368.31 104.678 364.513 104.187 358.868 104.187C349.565 104.187 341.242 106.304 335.735 107.702L333.636 108.206C333.41 108.269 333.164 108.332 332.85 108.332C331.882 108.332 330.82 107.752 330.424 106.442L330.392 106.329L329.135 99.9291V99.5952C329.16 98.0961 330.229 97.2016 331.228 96.8867C335.679 95.2049 347.409 92.5279 360.063 92.5216C369.303 92.5216 375.985 93.7499 380.474 96.2631C388.162 100.401 388.149 107.948 388.136 114.013ZM375.124 132.293C372.069 132.324 357.334 132.563 351.451 133.842L350.979 133.949C344.379 135.448 339.161 136.626 339.098 146.578C339.111 159.082 348.528 160.209 358.171 160.278C364.205 160.278 369.9 159.416 375.105 157.696V132.293H375.124ZM585.565 92.5216C555.203 92.572 552.625 112.867 552.594 131.89C552.625 150.849 555.196 171.068 585.565 171.113C615.908 171.062 618.491 150.893 618.535 131.883C618.504 111.979 615.933 92.572 585.565 92.5216ZM585.565 160.014C567.146 159.926 566.222 150.314 566.097 131.896C566.222 113.39 567.146 103.721 585.558 103.639C603.977 103.721 604.907 113.39 605.033 131.89C604.907 150.307 603.977 159.919 585.565 160.014ZM531.064 168.316L530.278 168.517C526.035 169.613 520.22 171.113 510.024 171.113H509.999C481.888 171.062 476.381 156.644 476.35 131.745C476.375 103.198 485.276 92.5657 509.163 92.5279C517.599 92.5279 523.414 93.6428 527.581 94.6695L527.556 71.666C527.525 70.6582 527.965 69.3355 530.31 68.8819L537.778 66.9419H538.186C539.902 66.986 540.512 68.5355 540.512 69.8583V156.279C540.625 161.746 539.99 166.42 531.064 168.328V168.316ZM527.563 105.73C525.073 105.088 518.115 103.488 510.276 103.488C495.893 103.633 489.846 107.607 489.708 131.896C489.877 158.571 497.678 160.02 510.408 160.146C518.328 160.146 525.13 158.464 527.556 157.797L527.563 105.73ZM460.496 169.305H453.833C452.029 169.305 450.69 167.932 450.69 166.111V114.838C450.564 106.171 448.005 103.752 438.828 103.626C428.443 103.626 417.926 106.285 414.463 107.242V166.118C414.463 167.963 413.206 169.311 411.464 169.311H404.644C402.852 169.311 401.501 167.938 401.501 166.124V108.615C401.406 103.299 401.891 99.6204 409.34 97.1638C416.462 94.6632 430.084 92.5405 439.104 92.5342C456.265 92.5594 463.589 98.8645 463.62 113.61V166.13C463.62 167.944 462.269 169.317 460.477 169.317L460.496 169.305ZM309.296 170.691C313.143 170.609 315.972 169.846 317.091 168.574C317.48 168.133 317.657 167.604 317.613 167.094C317.587 166.666 317.587 166.666 316.544 161.652L316.512 161.526C316.286 160.222 315.381 159.623 314.614 159.623H314.501C314.501 159.623 313.539 159.605 312.584 159.605C309.843 159.516 307.574 159.101 307.53 155.044V69.8457C307.53 68.4347 306.687 66.9797 305.078 66.9482H304.594L297.113 68.9008C295.844 69.0268 294.511 69.9528 294.574 71.6597V155.309C294.593 165.21 299.823 170.672 309.296 170.691ZM203.702 169.305H150.131C148.34 169.305 146.988 167.932 146.988 166.111V159.46C146.957 157.822 147.466 157.11 148.459 155.857L191.098 105.434H149.314C147.523 105.434 146.171 104.049 146.171 102.234V97.5229C146.171 95.6962 147.529 94.3294 149.314 94.3294H203.438C205.217 94.3294 206.562 95.7025 206.568 97.5229V104.313C206.6 105.541 206.191 106.581 205.217 107.677L162.471 158.206H203.708C205.493 158.206 206.838 159.579 206.851 161.4V166.124C206.838 167.932 205.487 169.305 203.702 169.305Z" fill="var(--color-text)"/>
<path fill-rule="evenodd" clip-rule="evenodd" d="M24.8176 190.438C20.2727 190.438 17.7457 189.354 16.3942 188.567C14.5272 187.471 11.0887 184.68 8.00223 176.429C3.05505 163.195 0.125722 147.032 0 128.047V127.984C0.125722 108.962 3.05505 92.8051 8.00223 79.5649C11.0824 71.3197 14.5209 68.523 16.4068 67.4333C17.7394 66.6333 20.2602 65.5625 24.7987 65.5625C26.5337 65.5625 28.5704 65.72 30.934 66.1042C44.6755 68.3718 59.8941 73.8707 76.1312 83.256L76.1815 83.2812C92.2865 92.8933 104.582 103.545 113.376 114.524C118.864 121.377 119.518 125.799 119.518 127.991C119.518 130.183 118.864 134.617 113.376 141.458C104.576 152.436 92.2865 163.094 76.1815 172.7L76.1186 172.738C59.9004 182.123 44.6755 187.622 30.934 189.883C28.5641 190.28 26.5337 190.431 24.8113 190.431" fill="var(--color-text)"/>
</g>
<defs>
<clipPath id="clip0_207_6554">
<rect width="618.535" height="128" fill="var(--color-text)" transform="translate(0 64)"/>
</clipPath>
</defs>
</svg>
