<svg width="304" height="300" viewBox="0 0 304 300" fill="none" xmlns="http://www.w3.org/2000/svg">
<g id="dot-0" filter="url(#filter0_f_112_683)">
<path d="M113.344 160.395C113.063 158.193 113.814 164.815 114.223 166.997C115.129 171.822 121.452 176.178 125.696 172.548C129.358 169.416 132.861 161.843 128.89 157.588C127.736 156.351 123.428 151.708 121.237 153.462C118.208 155.889 121.294 166.85 125.974 161.485C129.011 158.004 124.79 155.115 121.066 155.059C114.11 154.954 115.191 172.692 122.65 168.66C132.069 163.569 113.458 149.08 112.255 162.147C111.821 166.855 113.62 172.871 118.558 174.808C123.75 176.845 124.928 168.711 125.171 165.488C125.458 161.677 123.474 153.622 118.276 157.891C114.066 161.348 114.629 166.913 117.357 170.686" stroke="currentColor" stroke-width="6.84243" stroke-linecap="round"/>
</g>
<g id="dot-1" opacity="0.6" filter="url(#filter1_f_112_683)">
<path d="M174.497 131.669C171.987 138.838 177.278 147.684 185.462 141.752C188.336 139.668 189.528 134.941 188.599 131.635C187.852 128.976 182.674 125.119 179.922 126.551C176.011 128.586 175.315 141.109 181.294 140.257C185.851 139.608 188.25 136.156 188.825 131.643C189.416 127.014 181.443 126.968 178.844 127.513C173.476 128.641 170.12 131.466 171.644 137.248C172.508 140.527 177.981 142.976 181.087 142.159C182.953 141.669 185.402 136.432 184.24 136.58C183.533 136.67 183.443 139.888 185.101 137.746C186.375 136.1 185.069 134.485 183.578 134.038C183.359 133.972 184.195 133.579 184.224 133.806" stroke="currentColor" stroke-width="6.84243" stroke-linecap="round"/>
</g>
<g id="dot-2" opacity="0.5" filter="url(#filter2_f_112_683)">
<path d="M236.365 124.457C235.509 127.103 234.265 129.827 236.301 132.194C238.4 134.633 241.083 136.046 244.337 135.484C248.965 134.683 253.433 131.042 252.83 125.884C252.467 122.781 249.338 119.932 246.214 119.9C242.204 119.859 232.22 126.321 236.824 131.001C241.57 135.825 252.871 132.04 252.495 125.027C252.283 121.075 250.954 118.299 247.066 117.165C244.946 116.546 242.886 116.46 241.645 118.494C240.47 120.42 238.867 125.233 240.905 127.105C242.821 128.865 246.602 128.928 248.462 127.229C251.292 124.644 249.62 119.617 248.625 124.094C248.525 124.544 245.652 124.535 247.252 125.095" stroke="currentColor" stroke-width="6.84243" stroke-linecap="round"/>
</g>
<g id="dot-3" filter="url(#filter3_f_112_683)">
<path d="M200.324 196.565C199.383 201.919 200.324 207.629 206.76 208.798C216.407 210.55 219.226 199.294 215.691 192.356C211.803 184.723 197.402 180.436 190.414 186.501C182.562 193.317 195.298 200.529 201.167 201.409C206.023 202.137 213.111 199.877 210.461 193.698C209.319 191.035 204.81 185.52 203.05 190.292C201.439 194.66 203.645 200.161 208.723 200.071C214.801 199.962 220.289 192.188 214.71 187.605C210.588 184.218 206.057 188.636 205.401 192.843C204.775 196.857 208.67 201.01 210.374 195.959C211.863 191.546 207.596 185.645 202.73 187.782C199.572 189.168 197.558 196.887 200.589 199.232C202.925 201.04 207.52 200.047 207.071 196.53C206.361 190.959 194.254 189.724 193.565 195.327C193.019 199.759 196.823 207.402 202.318 203.963C204.206 202.781 203.293 198.962 202.826 200.297" stroke="currentColor" stroke-width="6.84243" stroke-linecap="round"/>
</g>
<g id="dot-4" filter="url(#filter4_f_112_683)">
<path d="M151.626 222.355C151.679 224.305 149.264 227.919 150.892 229.539C153.907 232.54 162.982 228.999 164.578 225.656C170.787 212.65 139.195 220.481 150.341 227.283C152.743 228.749 160.916 230.011 161.394 225.987C161.597 224.273 157.737 219.523 155.902 220.872C155.305 221.311 155.425 225.224 156.853 222.739C159.163 218.718 157.797 222.338 157.692 222.257" stroke="currentColor" stroke-width="6.84243" stroke-linecap="round"/>
</g>
<g id="dot-5" filter="url(#filter5_f_112_683)">
<path d="M126.343 108.776C126.641 111.12 128.162 109.511 127.174 107.357C125.692 104.122 120.647 106.122 121.767 109.659C122.412 111.699 124.38 110.768 123.873 110.591C123.138 110.334 122.313 110.7 122.685 111.568C123.054 112.428 123.245 110.955 123.36 111.857" stroke="currentColor" stroke-width="6.84243" stroke-linecap="round"/>
</g>
<g id="dot-6" opacity="0.4" filter="url(#filter6_f_112_683)">
<path d="M198.733 88.7449C195.37 89.608 201.033 96.5528 201.406 94.1082C202.09 89.6262 195.927 88.4999 193.541 91.5834C192.575 92.8319 192.339 94.2885 194.341 94.0332C195.606 93.872 196.711 91.1043 196.006 91.1942C194.598 91.3736 197.829 92.6481 196.2 91.2445C194.905 90.1291 194.688 91.7298 194.504 92.6615" stroke="currentColor" stroke-width="6.84243" stroke-linecap="round"/>
</g>
<g id="dot-7" opacity="0.6" filter="url(#filter7_f_112_683)">
<path d="M269.887 175.651C263.26 177.749 273.102 187.028 276.924 178.468C280.756 169.886 262.222 166.3 261.74 174.139C261.407 179.557 273.995 179.577 272.296 173.656C271.769 171.821 269.736 172.121 270.376 173.9C270.939 175.463 273.053 174.003 273.124 174.563" stroke="currentColor" stroke-width="6.84243" stroke-linecap="round"/>
</g>
<g id="dot-8" opacity="0.3" filter="url(#filter8_f_112_683)">
<path d="M147.41 62.2047C148.155 64.42 151.576 66.3978 153.312 67.6036C158.51 71.2137 163.016 73.643 169.505 72.8157C179.161 71.5846 167.751 62.8873 163.793 61.8414C160.145 60.8775 148.471 58.5057 150.724 65.8332C152.438 71.4117 162.363 72.3723 163.258 65.8854C163.741 62.3872 155.558 56.2499 154.426 58.9847C151.968 64.9256 160.227 66.647 164.708 66.0757C166.281 65.8751 165.61 65.3581 165.546 65.5937C165.228 66.7727 166.858 69.1318 167.928 69.566C169.658 70.2679 164.414 68.1416 162.553 68.0009C158.918 67.7259 164.704 68.5976 165.785 68.639" stroke="currentColor" stroke-width="6.84243" stroke-linecap="round"/>
</g>
<g id="dot-9" opacity="0.7" filter="url(#filter9_f_112_683)">
<path d="M72.3074 92.7122C73.3638 100.998 87.188 99.3079 86.8206 90.8993C86.6704 87.464 75.8996 82.3284 73.0037 84.9323C70.8727 86.8485 71.6092 90.2514 73.847 91.8406C76.8648 93.9837 80.6781 93.4529 82.4936 90.2129C83.0739 89.1772 82.6132 86.9504 82.1656 88.2288C81.7525 89.4083 81.0372 95.2901 83.0149 91.9473C86.1505 86.6471 78.9215 92.4252 77.7929 93.3634" stroke="currentColor" stroke-width="6.84243" stroke-linecap="round"/>
</g>
<g id="dot-10" filter="url(#filter10_f_112_683)">
<path d="M55.1537 143.51C55.3673 145.185 55.4492 147.013 56.4583 148.446C58.0033 150.639 61.9102 147.329 62.4707 145.578C64.6634 138.729 49.8349 135.744 51.4915 140.975C52.5706 144.383 62.2378 146.106 61.7141 141.998C61.5632 140.815 61.4065 144.17 60.8773 143.38C59.651 141.55 58.4235 141.742 56.3133 142.011" stroke="currentColor" stroke-width="6.84243" stroke-linecap="round"/>
</g>
<path id="dot-14" d="M81.8296 215.051C81.9984 219.718 82.7705 220.436 88.2506 220.685C92.9875 220.9 92.5447 216.222 89.6466 213.979C85.6393 210.878 78.2075 207.583 77.9054 214.876C77.7004 219.825 81.1538 218.99 84.5894 216.687C86.0404 215.715 86.846 210.202 85.777 211.583C84.3725 213.398 88.1564 220.124 89.2363 216.057C89.7837 213.996 89.4464 211.407 87.781 209.94C86.8314 209.103 82.6728 206.923 81.3642 207.869C78.9202 209.637 82.546 211.583 84.064 211.389" stroke="currentColor" stroke-width="6.84243" stroke-linecap="round"/>
<path id="dot-15" d="M25.0257 187.859C21.1367 197.258 36.932 201.794 35.6805 191.978C34.071 179.354 17.7366 186.348 22.6415 194.466C24.653 197.795 31.9717 197.597 34.5804 195.12C37.5848 192.267 34.9869 189.351 31.1975 189.774C29.4093 189.973 24.5636 193.388 26.19 195.815C27.4977 197.766 31.7756 193.481 32.3486 192.328" stroke="currentColor" stroke-width="6.84243" stroke-linecap="round"/>
<g id="dot-11" opacity="0.2" filter="url(#filter11_f_112_683)">
<path d="M101.986 34.2388C99.7504 37.3042 98.9364 41.7053 103.489 43.0867C106.578 44.0241 108.505 44.3437 108.768 40.9508C109.333 33.6389 85.666 28.823 85.8256 38.6997C85.9591 46.9625 100.313 47.88 105.885 47.1697C110.259 46.612 114.166 43.78 108.251 41.0167C105.135 39.5612 101.127 39.4947 99.4964 42.958C98.8432 44.3457 102.27 43.8587 100.429 43.2142" stroke="currentColor" stroke-width="6.84243" stroke-linecap="round"/>
</g>
<path id="dot-16" d="M113.669 258.251C113.886 259.958 113.242 261.828 114.742 263.142C116.614 264.78 124.72 266.073 125.875 262.773C128.65 254.849 110.987 245.867 110.678 254.806C110.574 257.81 117.962 258.297 119.882 258.134C122.97 257.873 121.681 256.715 121.211 257.965C120.362 260.218 123.523 257.651 123.486 255.799C123.456 254.303 122.595 254.112 122.802 255.736" stroke="currentColor" stroke-width="6.84243" stroke-linecap="round"/>
<g id="dot-12" opacity="0.8" filter="url(#filter12_f_112_683)">
<path d="M184.994 245.782C187.58 249.212 190.046 251.037 194.232 251.732C197.082 252.206 196.548 246.937 195.315 245.516C193.972 243.968 190.641 241.746 188.617 243.594C187.96 244.194 186.221 247.858 187.54 248.683C189.128 249.676 195.143 247.86 196.463 246.87C199.856 244.326 194.24 243.161 192.282 243.502C189.11 244.054 190.506 250.136 193.351 250.119C194.986 250.108 194.205 247.102 193.223 246.758" stroke="currentColor" stroke-width="6.84243" stroke-linecap="round"/>
</g>
<g id="dot-13" opacity="0.7" filter="url(#filter13_f_112_683)">
<path d="M267.544 236.607C263.218 244.222 276.887 245.698 274.864 236.049C272.992 227.12 258.662 232.487 263.1 240.588C264.074 242.366 270.969 249.123 273.167 246.282C276.224 242.332 270.988 237.693 267.995 236.024C265.008 234.358 256.525 235.1 260.31 240.193C262.533 243.183 266.616 241.295 267.799 238.6" stroke="currentColor" stroke-width="6.84243" stroke-linecap="round"/>
</g>
<path id="dot-17" d="M35.3193 252.711C32.4412 262.307 46.668 267.43 53.7173 263.156C58.9529 259.982 43.1843 249.611 41.331 259.559C39.331 270.295 56.0389 268.633 51.9651 260.004C49.4001 254.57 39.343 254.408 35.4998 258.54C30.6502 263.753 38.2424 264.17 41.7593 262.918C44.137 262.071 44.1768 258.295 43.926 261.966C43.8838 262.583 43.339 267.55 44.3876 267.646C45.5913 267.757 46.8726 265.57 47.2001 264.7C47.9661 262.665 46.5131 259.052 46.1231 262.136C45.8772 264.082 46.3691 259.394 46.1316 258.084C45.8717 256.651 44.0021 256.726 43.5748 258.035C43.1853 259.228 44.2787 263.31 46.0602 262.819C53.1883 260.857 44.3907 248.152 42.8099 258.508" stroke="currentColor" stroke-width="6.84243" stroke-linecap="round"/>
<defs>
<filter id="filter0_f_112_683" x="99.7712" y="140.652" width="43.2932" height="46.9006" filterUnits="userSpaceOnUse" color-interpolation-filters="sRGB">
<feFlood flood-opacity="0" result="BackgroundImageFix"/>
<feBlend mode="normal" in="SourceGraphic" in2="BackgroundImageFix" result="shape"/>
<feGaussianBlur stdDeviation="4.5" result="effect1_foregroundBlur_112_683"/>
</filter>
<filter id="filter1_f_112_683" x="157.856" y="112.821" width="44.474" height="44.3008" filterUnits="userSpaceOnUse" color-interpolation-filters="sRGB">
<feFlood flood-opacity="0" result="BackgroundImageFix"/>
<feBlend mode="normal" in="SourceGraphic" in2="BackgroundImageFix" result="shape"/>
<feGaussianBlur stdDeviation="5" result="effect1_foregroundBlur_112_683"/>
</filter>
<filter id="filter2_f_112_683" x="215.777" y="97.3564" width="56.5334" height="57.6736" filterUnits="userSpaceOnUse" color-interpolation-filters="sRGB">
<feFlood flood-opacity="0" result="BackgroundImageFix"/>
<feBlend mode="normal" in="SourceGraphic" in2="BackgroundImageFix" result="shape"/>
<feGaussianBlur stdDeviation="8" result="effect1_foregroundBlur_112_683"/>
</filter>
<filter id="filter3_f_112_683" x="169.506" y="165.209" width="66.0712" height="62.1926" filterUnits="userSpaceOnUse" color-interpolation-filters="sRGB">
<feFlood flood-opacity="0" result="BackgroundImageFix"/>
<feBlend mode="normal" in="SourceGraphic" in2="BackgroundImageFix" result="shape"/>
<feGaussianBlur stdDeviation="7.5" result="effect1_foregroundBlur_112_683"/>
</filter>
<filter id="filter4_f_112_683" x="143.514" y="214.228" width="26.3027" height="20.865" filterUnits="userSpaceOnUse" color-interpolation-filters="sRGB">
<feFlood flood-opacity="0" result="BackgroundImageFix"/>
<feBlend mode="normal" in="SourceGraphic" in2="BackgroundImageFix" result="shape"/>
<feGaussianBlur stdDeviation="0.5" result="effect1_foregroundBlur_112_683"/>
</filter>
<filter id="filter5_f_112_683" x="102.176" y="86.304" width="44.7487" height="44.9744" filterUnits="userSpaceOnUse" color-interpolation-filters="sRGB">
<feFlood flood-opacity="0" result="BackgroundImageFix"/>
<feBlend mode="normal" in="SourceGraphic" in2="BackgroundImageFix" result="shape"/>
<feGaussianBlur stdDeviation="8" result="effect1_foregroundBlur_112_683"/>
</filter>
<filter id="filter6_f_112_683" x="173.396" y="69.323" width="47.483" height="44.7258" filterUnits="userSpaceOnUse" color-interpolation-filters="sRGB">
<feFlood flood-opacity="0" result="BackgroundImageFix"/>
<feBlend mode="normal" in="SourceGraphic" in2="BackgroundImageFix" result="shape"/>
<feGaussianBlur stdDeviation="8" result="effect1_foregroundBlur_112_683"/>
</filter>
<filter id="filter7_f_112_683" x="242.312" y="150.377" width="54.5552" height="51.0771" filterUnits="userSpaceOnUse" color-interpolation-filters="sRGB">
<feFlood flood-opacity="0" result="BackgroundImageFix"/>
<feBlend mode="normal" in="SourceGraphic" in2="BackgroundImageFix" result="shape"/>
<feGaussianBlur stdDeviation="8" result="effect1_foregroundBlur_112_683"/>
</filter>
<filter id="filter8_f_112_683" x="127.988" y="38.8811" width="64.7214" height="53.5178" filterUnits="userSpaceOnUse" color-interpolation-filters="sRGB">
<feFlood flood-opacity="0" result="BackgroundImageFix"/>
<feBlend mode="normal" in="SourceGraphic" in2="BackgroundImageFix" result="shape"/>
<feGaussianBlur stdDeviation="8" result="effect1_foregroundBlur_112_683"/>
</filter>
<filter id="filter9_f_112_683" x="58.3143" y="70.8008" width="41.9353" height="40.7546" filterUnits="userSpaceOnUse" color-interpolation-filters="sRGB">
<feFlood flood-opacity="0" result="BackgroundImageFix"/>
<feBlend mode="normal" in="SourceGraphic" in2="BackgroundImageFix" result="shape"/>
<feGaussianBlur stdDeviation="5" result="effect1_foregroundBlur_112_683"/>
</filter>
<filter id="filter10_f_112_683" x="39.9414" y="126.894" width="34.1747" height="33.699" filterUnits="userSpaceOnUse" color-interpolation-filters="sRGB">
<feFlood flood-opacity="0" result="BackgroundImageFix"/>
<feBlend mode="normal" in="SourceGraphic" in2="BackgroundImageFix" result="shape"/>
<feGaussianBlur stdDeviation="4" result="effect1_foregroundBlur_112_683"/>
</filter>
<filter id="filter11_f_112_683" x="66.4036" y="13.698" width="64.2747" height="53.0857" filterUnits="userSpaceOnUse" color-interpolation-filters="sRGB">
<feFlood flood-opacity="0" result="BackgroundImageFix"/>
<feBlend mode="normal" in="SourceGraphic" in2="BackgroundImageFix" result="shape"/>
<feGaussianBlur stdDeviation="8" result="effect1_foregroundBlur_112_683"/>
</filter>
<filter id="filter12_f_112_683" x="175.573" y="233.474" width="31.3823" height="27.709" filterUnits="userSpaceOnUse" color-interpolation-filters="sRGB">
<feFlood flood-opacity="0" result="BackgroundImageFix"/>
<feBlend mode="normal" in="SourceGraphic" in2="BackgroundImageFix" result="shape"/>
<feGaussianBlur stdDeviation="3" result="effect1_foregroundBlur_112_683"/>
</filter>
<filter id="filter13_f_112_683" x="230.928" y="203.002" width="72.5612" height="72.3833" filterUnits="userSpaceOnUse" color-interpolation-filters="sRGB">
<feFlood flood-opacity="0" result="BackgroundImageFix"/>
<feBlend mode="normal" in="SourceGraphic" in2="BackgroundImageFix" result="shape"/>
<feGaussianBlur stdDeviation="12.5" result="effect1_foregroundBlur_112_683"/>
</filter>
</defs>
</svg>
