<svg width="308" height="284" viewBox="0 0 308 284" fill="none" xmlns="http://www.w3.org/2000/svg">
<g filter="url(#filter0_g_123_712)">
<g id="dot-0" filter="url(#filter1_f_123_712)">
<path d="M117.344 152.395C117.063 150.193 117.814 156.815 118.223 158.997C119.129 163.822 125.452 168.178 129.696 164.548C133.358 161.416 136.861 153.843 132.89 149.588C131.736 148.351 127.428 143.708 125.237 145.462C122.208 147.889 125.294 158.85 129.974 153.485C133.011 150.004 128.79 147.115 125.066 147.059C118.11 146.954 119.191 164.692 126.65 160.66C136.069 155.569 117.458 141.08 116.255 154.147C115.821 158.855 117.62 164.871 122.558 166.808C127.75 168.845 128.928 160.711 129.171 157.488C129.458 153.677 127.474 145.622 122.276 149.891C118.066 153.348 118.629 158.913 121.357 162.686" stroke="#FF7300" stroke-width="6.84243" stroke-linecap="round"/>
</g>
<g id="dot-1" opacity="0.6" filter="url(#filter2_f_123_712)">
<path d="M178.497 123.669C175.987 130.838 181.278 139.684 189.462 133.752C192.336 131.668 193.528 126.941 192.599 123.635C191.852 120.976 186.674 117.119 183.922 118.551C180.011 120.586 179.315 133.109 185.294 132.257C189.851 131.608 192.25 128.156 192.825 123.643C193.416 119.014 185.443 118.968 182.844 119.513C177.476 120.641 174.12 123.466 175.644 129.248C176.508 132.527 181.981 134.976 185.087 134.159C186.953 133.669 189.402 128.432 188.24 128.58C187.533 128.67 187.443 131.888 189.101 129.746C190.375 128.1 189.069 126.485 187.578 126.038C187.359 125.972 188.195 125.579 188.224 125.806" stroke="#FF7300" stroke-width="6.84243" stroke-linecap="round"/>
</g>
<g id="dot-2" opacity="0.5" filter="url(#filter3_f_123_712)">
<path d="M240.365 116.457C239.509 119.103 238.265 121.827 240.301 124.194C242.4 126.633 245.083 128.046 248.337 127.484C252.965 126.683 257.433 123.042 256.83 117.884C256.467 114.781 253.338 111.932 250.214 111.9C246.204 111.859 236.22 118.321 240.824 123.001C245.57 127.825 256.871 124.04 256.495 117.027C256.283 113.075 254.954 110.299 251.066 109.165C248.946 108.546 246.886 108.46 245.645 110.494C244.47 112.42 242.867 117.233 244.905 119.105C246.821 120.865 250.602 120.928 252.462 119.229C255.292 116.644 253.62 111.617 252.625 116.094C252.525 116.544 249.652 116.535 251.252 117.095" stroke="#FF7300" stroke-width="6.84243" stroke-linecap="round"/>
</g>
<g id="dot-3" filter="url(#filter4_f_123_712)">
<path d="M204.324 188.565C203.383 193.919 204.324 199.629 210.76 200.798C220.407 202.55 223.226 191.294 219.691 184.356C215.803 176.723 201.402 172.436 194.414 178.501C186.562 185.317 199.298 192.529 205.167 193.409C210.023 194.137 217.111 191.877 214.461 185.698C213.319 183.035 208.81 177.52 207.05 182.292C205.439 186.66 207.645 192.161 212.723 192.071C218.801 191.962 224.289 184.188 218.71 179.605C214.588 176.218 210.057 180.636 209.401 184.843C208.775 188.857 212.67 193.01 214.374 187.959C215.863 183.546 211.596 177.645 206.73 179.782C203.572 181.168 201.558 188.887 204.589 191.232C206.925 193.04 211.52 192.047 211.071 188.53C210.361 182.959 198.254 181.724 197.565 187.327C197.019 191.759 200.823 199.402 206.318 195.963C208.206 194.781 207.293 190.962 206.826 192.297" stroke="#FF7300" stroke-width="6.84243" stroke-linecap="round"/>
</g>
<g id="dot-4" filter="url(#filter5_f_123_712)">
<path d="M155.626 214.355C155.679 216.305 153.264 219.919 154.892 221.539C157.907 224.54 166.982 220.999 168.578 217.656C174.787 204.65 143.195 212.481 154.341 219.283C156.743 220.749 164.916 222.011 165.394 217.987C165.597 216.273 161.737 211.523 159.902 212.872C159.305 213.311 159.425 217.224 160.853 214.739C163.163 210.718 161.797 214.338 161.692 214.257" stroke="#FF7300" stroke-width="6.84243" stroke-linecap="round"/>
</g>
<g id="dot-5" filter="url(#filter6_f_123_712)">
<path d="M130.343 100.776C130.641 103.12 132.162 101.511 131.174 99.357C129.692 96.1217 124.647 98.122 125.767 101.659C126.412 103.699 128.38 102.768 127.873 102.591C127.138 102.334 126.313 102.7 126.685 103.568C127.054 104.428 127.245 102.955 127.36 103.857" stroke="#FF7300" stroke-width="6.84243" stroke-linecap="round"/>
</g>
<g id="dot-6" opacity="0.4" filter="url(#filter7_f_123_712)">
<path d="M202.733 80.7449C199.37 81.608 205.033 88.5528 205.406 86.1082C206.09 81.6262 199.927 80.4999 197.541 83.5834C196.575 84.8319 196.339 86.2885 198.341 86.0332C199.606 85.872 200.711 83.1043 200.006 83.1942C198.598 83.3736 201.829 84.6481 200.2 83.2445C198.905 82.1291 198.688 83.7298 198.504 84.6615" stroke="#FF7300" stroke-width="6.84243" stroke-linecap="round"/>
</g>
<g id="dot-7" opacity="0.6" filter="url(#filter8_f_123_712)">
<path d="M273.887 167.651C267.26 169.749 277.102 179.028 280.924 170.468C284.756 161.886 266.222 158.3 265.74 166.139C265.407 171.557 277.995 171.577 276.296 165.656C275.769 163.821 273.736 164.121 274.376 165.9C274.939 167.463 277.053 166.003 277.124 166.563" stroke="#FF7300" stroke-width="6.84243" stroke-linecap="round"/>
</g>
<g id="dot-8" opacity="0.3" filter="url(#filter9_f_123_712)">
<path d="M151.41 54.2047C152.155 56.42 155.576 58.3978 157.312 59.6036C162.51 63.2137 167.016 65.643 173.505 64.8157C183.161 63.5846 171.751 54.8873 167.793 53.8414C164.145 52.8775 152.471 50.5057 154.724 57.8332C156.438 63.4117 166.363 64.3723 167.258 57.8854C167.741 54.3872 159.558 48.2499 158.426 50.9847C155.968 56.9256 164.227 58.647 168.708 58.0757C170.281 57.8751 169.61 57.3581 169.546 57.5937C169.228 58.7727 170.858 61.1318 171.928 61.566C173.658 62.2679 168.414 60.1416 166.553 60.0009C162.918 59.7259 168.704 60.5976 169.785 60.639" stroke="#FF7300" stroke-width="6.84243" stroke-linecap="round"/>
</g>
<g id="dot-9" opacity="0.7" filter="url(#filter10_f_123_712)">
<path d="M76.3074 84.7122C77.3638 92.998 91.188 91.3079 90.8206 82.8993C90.6704 79.464 79.8996 74.3284 77.0037 76.9323C74.8727 78.8485 75.6092 82.2514 77.847 83.8406C80.8648 85.9837 84.6781 85.4529 86.4936 82.2129C87.0739 81.1772 86.6132 78.9504 86.1656 80.2288C85.7525 81.4083 85.0372 87.2901 87.0149 83.9473C90.1505 78.6471 82.9215 84.4252 81.7929 85.3634" stroke="#FF7300" stroke-width="6.84243" stroke-linecap="round"/>
</g>
<g id="dot-10" filter="url(#filter11_f_123_712)">
<path d="M59.1537 135.51C59.3673 137.185 59.4492 139.013 60.4583 140.446C62.0033 142.639 65.9102 139.329 66.4707 137.578C68.6634 130.729 53.8349 127.744 55.4915 132.975C56.5706 136.383 66.2378 138.106 65.7141 133.998C65.5632 132.815 65.4065 136.17 64.8773 135.38C63.651 133.55 62.4235 133.742 60.3133 134.011" stroke="#FF7300" stroke-width="6.84243" stroke-linecap="round"/>
</g>
<path id="dot-14" d="M85.8296 207.051C85.9984 211.718 86.7705 212.436 92.2506 212.685C96.9875 212.9 96.5447 208.222 93.6466 205.979C89.6393 202.878 82.2075 199.583 81.9054 206.876C81.7004 211.825 85.1538 210.99 88.5894 208.687C90.0404 207.715 90.846 202.202 89.777 203.583C88.3725 205.398 92.1564 212.124 93.2363 208.057C93.7837 205.996 93.4464 203.407 91.781 201.94C90.8314 201.103 86.6728 198.923 85.3642 199.869C82.9202 201.637 86.546 203.583 88.064 203.389" stroke="#FF7300" stroke-width="6.84243" stroke-linecap="round"/>
<path id="dot-15" d="M29.0257 179.859C25.1367 189.258 40.932 193.794 39.6805 183.978C38.071 171.354 21.7366 178.348 26.6415 186.466C28.653 189.795 35.9717 189.597 38.5804 187.12C41.5848 184.267 38.9869 181.351 35.1975 181.774C33.4093 181.973 28.5636 185.388 30.19 187.815C31.4977 189.766 35.7756 185.481 36.3486 184.328" stroke="#FF7300" stroke-width="6.84243" stroke-linecap="round"/>
<g id="dot-11" opacity="0.2" filter="url(#filter12_f_123_712)">
<path d="M105.986 26.2388C103.75 29.3042 102.936 33.7053 107.489 35.0867C110.578 36.0241 112.505 36.3437 112.768 32.9508C113.333 25.6389 89.666 20.823 89.8256 30.6997C89.9591 38.9625 104.313 39.88 109.885 39.1697C114.259 38.612 118.166 35.78 112.251 33.0167C109.135 31.5612 105.127 31.4947 103.496 34.958C102.843 36.3457 106.27 35.8587 104.429 35.2142" stroke="#FF7300" stroke-width="6.84243" stroke-linecap="round"/>
</g>
<path id="dot-16" d="M117.669 250.251C117.886 251.958 117.242 253.828 118.742 255.142C120.614 256.78 128.72 258.073 129.875 254.773C132.65 246.849 114.987 237.867 114.678 246.806C114.574 249.81 121.962 250.297 123.882 250.134C126.97 249.873 125.681 248.715 125.211 249.965C124.362 252.218 127.523 249.651 127.486 247.799C127.456 246.303 126.595 246.112 126.802 247.736" stroke="#FF7300" stroke-width="6.84243" stroke-linecap="round"/>
<g id="dot-12" opacity="0.8" filter="url(#filter13_f_123_712)">
<path d="M188.994 237.782C191.58 241.212 194.046 243.037 198.232 243.732C201.082 244.206 200.548 238.937 199.315 237.516C197.972 235.968 194.641 233.746 192.617 235.594C191.96 236.194 190.221 239.858 191.54 240.683C193.128 241.676 199.143 239.86 200.463 238.87C203.856 236.326 198.24 235.161 196.282 235.502C193.11 236.054 194.506 242.136 197.351 242.119C198.986 242.108 198.205 239.102 197.223 238.758" stroke="#FF7300" stroke-width="6.84243" stroke-linecap="round"/>
</g>
<g id="dot-13" opacity="0.7" filter="url(#filter14_f_123_712)">
<path d="M271.544 228.607C267.218 236.222 280.887 237.698 278.864 228.049C276.992 219.12 262.662 224.487 267.1 232.588C268.074 234.366 274.969 241.123 277.167 238.282C280.224 234.332 274.988 229.693 271.995 228.024C269.008 226.358 260.525 227.1 264.31 232.193C266.533 235.183 270.616 233.295 271.799 230.6" stroke="#FF7300" stroke-width="6.84243" stroke-linecap="round"/>
</g>
<path id="dot-17" d="M39.3193 244.711C36.4412 254.307 50.668 259.43 57.7173 255.156C62.9529 251.982 47.1843 241.611 45.331 251.559C43.331 262.295 60.0389 260.633 55.9651 252.004C53.4001 246.57 43.343 246.408 39.4998 250.54C34.6502 255.753 42.2424 256.17 45.7593 254.918C48.137 254.071 48.1768 250.295 47.926 253.966C47.8838 254.583 47.339 259.55 48.3876 259.646C49.5913 259.757 50.8726 257.57 51.2001 256.7C51.9661 254.665 50.5131 251.052 50.1231 254.136C49.8772 256.082 50.3691 251.394 50.1316 250.084C49.8717 248.651 48.0021 248.726 47.5748 250.035C47.1853 251.228 48.2787 255.31 50.0602 254.819C57.1883 252.857 48.3907 240.152 46.8099 250.508" stroke="#FF7300" stroke-width="6.84243" stroke-linecap="round"/>
</g>
<defs>
<filter id="filter0_g_123_712" x="0" y="0" width="325" height="302" filterUnits="userSpaceOnUse" color-interpolation-filters="sRGB">
<feFlood flood-opacity="0" result="BackgroundImageFix"/>
<feBlend mode="normal" in="SourceGraphic" in2="BackgroundImageFix" result="shape"/>
<feTurbulence type="fractalNoise" baseFrequency="0.99900001287460327 0.99900001287460327" numOctaves="3" seed="7913" />
<feDisplacementMap in="shape" scale="18" xChannelSelector="R" yChannelSelector="G" result="displacedImage" width="100%" height="100%" />
<feMerge result="effect1_texture_123_712">
<feMergeNode in="displacedImage"/>
</feMerge>
</filter>
<filter id="filter1_f_123_712" x="103.771" y="132.652" width="43.2932" height="46.9006" filterUnits="userSpaceOnUse" color-interpolation-filters="sRGB">
<feFlood flood-opacity="0" result="BackgroundImageFix"/>
<feBlend mode="normal" in="SourceGraphic" in2="BackgroundImageFix" result="shape"/>
<feGaussianBlur stdDeviation="4.5" result="effect1_foregroundBlur_123_712"/>
</filter>
<filter id="filter2_f_123_712" x="161.856" y="104.821" width="44.474" height="44.3008" filterUnits="userSpaceOnUse" color-interpolation-filters="sRGB">
<feFlood flood-opacity="0" result="BackgroundImageFix"/>
<feBlend mode="normal" in="SourceGraphic" in2="BackgroundImageFix" result="shape"/>
<feGaussianBlur stdDeviation="5" result="effect1_foregroundBlur_123_712"/>
</filter>
<filter id="filter3_f_123_712" x="219.777" y="89.3564" width="56.5334" height="57.6736" filterUnits="userSpaceOnUse" color-interpolation-filters="sRGB">
<feFlood flood-opacity="0" result="BackgroundImageFix"/>
<feBlend mode="normal" in="SourceGraphic" in2="BackgroundImageFix" result="shape"/>
<feGaussianBlur stdDeviation="8" result="effect1_foregroundBlur_123_712"/>
</filter>
<filter id="filter4_f_123_712" x="173.506" y="157.209" width="66.0712" height="62.1926" filterUnits="userSpaceOnUse" color-interpolation-filters="sRGB">
<feFlood flood-opacity="0" result="BackgroundImageFix"/>
<feBlend mode="normal" in="SourceGraphic" in2="BackgroundImageFix" result="shape"/>
<feGaussianBlur stdDeviation="7.5" result="effect1_foregroundBlur_123_712"/>
</filter>
<filter id="filter5_f_123_712" x="147.514" y="206.228" width="26.3027" height="20.865" filterUnits="userSpaceOnUse" color-interpolation-filters="sRGB">
<feFlood flood-opacity="0" result="BackgroundImageFix"/>
<feBlend mode="normal" in="SourceGraphic" in2="BackgroundImageFix" result="shape"/>
<feGaussianBlur stdDeviation="0.5" result="effect1_foregroundBlur_123_712"/>
</filter>
<filter id="filter6_f_123_712" x="106.176" y="78.304" width="44.7487" height="44.9744" filterUnits="userSpaceOnUse" color-interpolation-filters="sRGB">
<feFlood flood-opacity="0" result="BackgroundImageFix"/>
<feBlend mode="normal" in="SourceGraphic" in2="BackgroundImageFix" result="shape"/>
<feGaussianBlur stdDeviation="8" result="effect1_foregroundBlur_123_712"/>
</filter>
<filter id="filter7_f_123_712" x="177.396" y="61.323" width="47.483" height="44.7258" filterUnits="userSpaceOnUse" color-interpolation-filters="sRGB">
<feFlood flood-opacity="0" result="BackgroundImageFix"/>
<feBlend mode="normal" in="SourceGraphic" in2="BackgroundImageFix" result="shape"/>
<feGaussianBlur stdDeviation="8" result="effect1_foregroundBlur_123_712"/>
</filter>
<filter id="filter8_f_123_712" x="246.312" y="142.377" width="54.5552" height="51.0771" filterUnits="userSpaceOnUse" color-interpolation-filters="sRGB">
<feFlood flood-opacity="0" result="BackgroundImageFix"/>
<feBlend mode="normal" in="SourceGraphic" in2="BackgroundImageFix" result="shape"/>
<feGaussianBlur stdDeviation="8" result="effect1_foregroundBlur_123_712"/>
</filter>
<filter id="filter9_f_123_712" x="131.988" y="30.8811" width="64.7214" height="53.5178" filterUnits="userSpaceOnUse" color-interpolation-filters="sRGB">
<feFlood flood-opacity="0" result="BackgroundImageFix"/>
<feBlend mode="normal" in="SourceGraphic" in2="BackgroundImageFix" result="shape"/>
<feGaussianBlur stdDeviation="8" result="effect1_foregroundBlur_123_712"/>
</filter>
<filter id="filter10_f_123_712" x="62.3143" y="62.8008" width="41.9353" height="40.7546" filterUnits="userSpaceOnUse" color-interpolation-filters="sRGB">
<feFlood flood-opacity="0" result="BackgroundImageFix"/>
<feBlend mode="normal" in="SourceGraphic" in2="BackgroundImageFix" result="shape"/>
<feGaussianBlur stdDeviation="5" result="effect1_foregroundBlur_123_712"/>
</filter>
<filter id="filter11_f_123_712" x="43.9414" y="118.894" width="34.1747" height="33.699" filterUnits="userSpaceOnUse" color-interpolation-filters="sRGB">
<feFlood flood-opacity="0" result="BackgroundImageFix"/>
<feBlend mode="normal" in="SourceGraphic" in2="BackgroundImageFix" result="shape"/>
<feGaussianBlur stdDeviation="4" result="effect1_foregroundBlur_123_712"/>
</filter>
<filter id="filter12_f_123_712" x="70.4036" y="5.698" width="64.2747" height="53.0857" filterUnits="userSpaceOnUse" color-interpolation-filters="sRGB">
<feFlood flood-opacity="0" result="BackgroundImageFix"/>
<feBlend mode="normal" in="SourceGraphic" in2="BackgroundImageFix" result="shape"/>
<feGaussianBlur stdDeviation="8" result="effect1_foregroundBlur_123_712"/>
</filter>
<filter id="filter13_f_123_712" x="179.573" y="225.474" width="31.3823" height="27.709" filterUnits="userSpaceOnUse" color-interpolation-filters="sRGB">
<feFlood flood-opacity="0" result="BackgroundImageFix"/>
<feBlend mode="normal" in="SourceGraphic" in2="BackgroundImageFix" result="shape"/>
<feGaussianBlur stdDeviation="3" result="effect1_foregroundBlur_123_712"/>
</filter>
<filter id="filter14_f_123_712" x="234.928" y="195.002" width="72.5612" height="72.3833" filterUnits="userSpaceOnUse" color-interpolation-filters="sRGB">
<feFlood flood-opacity="0" result="BackgroundImageFix"/>
<feBlend mode="normal" in="SourceGraphic" in2="BackgroundImageFix" result="shape"/>
<feGaussianBlur stdDeviation="12.5" result="effect1_foregroundBlur_123_712"/>
</filter>
</defs>
</svg>
