<svg width="606" height="452" viewBox="0 0 606 452" fill="none" xmlns="http://www.w3.org/2000/svg">
    <g filter="url(#filter0_g_174_239)">
        <path
            d="M43.8644 439.981L61.3402 279.787C61.3402 279.787 -2.73811 105.029 19.107 93.3785C40.9522 81.7276 70.107 173.817 78.816 198.233C78.816 198.233 40.9511 86.0969 61.3402 72.99C81.7293 59.8832 117.293 169.934 122.505 192.408C122.505 192.408 90.4658 70.0777 110.855 59.8832C131.244 49.6887 166.328 165.723 169.108 192.408C212.5 68.5 306.5 140.5 304 167C303.342 173.969 299 181.433 281 172.5C213.5 139 195.169 188.089 204.06 236.097C218.623 314.738 288 322.794 311 248C314.66 236.097 332.51 232 335.5 253.073C339.61 282.045 320.465 333.207 233.185 352.603L230.273 439.981H43.8644Z"
            stroke="var(--color-text)" stroke-width="12" stroke-linecap="round" stroke-linejoin="round" />
        <path
            d="M339.212 140.431L288.961 208.711C283.645 215.934 288.142 226.203 297.055 227.195L380.089 236.438C388.938 237.423 395.576 228.522 392.109 220.322L359.326 142.799C355.807 134.478 344.567 133.155 339.212 140.431Z"
            fill="var(--color-accent)" />
        <path
            d="M390.117 35.9456L352.067 70.808C349.912 72.7824 349.554 76.0479 351.229 78.4426L372.95 109.486C374.917 112.296 378.873 112.808 381.49 110.59L419.679 78.2238C421.918 76.3259 422.396 73.0582 420.793 70.599L398.932 37.0598C396.968 34.0463 392.769 33.5156 390.117 35.9456Z"
            fill="var(--color-text)" />
        <path
            d="M453.658 87.2344L392.115 142.608C388.782 145.607 389.945 151.091 394.209 152.478L471.792 177.717C476.026 179.094 480.177 175.407 479.308 171.041L463.268 90.428C462.386 85.9977 457.016 84.213 453.658 87.2344Z"
            stroke="var(--color-text)" stroke-width="12" stroke-linecap="round" stroke-dasharray="23.3 0" />
        <path
            d="M522.771 62.1426L487.551 68.142C483.858 68.771 481.71 72.672 483.153 76.1289L500.866 118.553C501.988 121.239 504.92 122.685 507.734 121.939L533.807 115.028C536.795 114.236 538.644 111.247 538.02 108.22L529.455 66.708C528.821 63.6343 525.865 61.6156 522.771 62.1426Z"
            fill="var(--color-text)" />
        <path
            d="M511.54 154.024L512.45 189.55C512.515 192.115 514.252 194.335 516.726 195.017L564.278 208.112C566.396 208.696 568.661 208.038 570.138 206.412L592.493 181.788C594.386 179.703 594.517 176.563 592.803 174.328L565.543 138.775C564.112 136.908 561.7 136.086 559.426 136.689L515.87 148.245C513.263 148.936 511.471 151.328 511.54 154.024Z"
            fill="var(--color-text)" />
        <path
            d="M441.561 49.1517L425.795 15.3673C424.151 11.8453 426.363 7.72028 430.218 7.22769C457.39 3.75591 473.707 6.47946 495.496 30.8065C498.263 33.8959 496.784 38.7548 492.812 39.9466L473.428 45.7618C472.504 46.0388 471.664 46.5406 470.982 47.2223L465.342 52.8622C464.046 54.1587 462.215 54.7691 460.4 54.5098L446.016 52.455C444.069 52.1768 442.393 50.9344 441.561 49.1517Z"
            fill="var(--color-text)" />
    </g>
    <defs>
        <filter id="filter0_g_174_239" x="0" y="0" width="600.006" height="451.981" filterUnits="userSpaceOnUse"
            color-interpolation-filters="sRGB">
            <!-- <!-- <feFlood flood-opacity="0" result="BackgroundImageFix"/> -->
            <feBlend mode="normal" in="SourceGraphic" in2="BackgroundImageFix" result="shape" />
            <feTurbulence type="turbulence" baseFrequency="0.0075" numOctaves="10" seed="3306">
                <!-- <animate
                    attributeName="baseFrequency" values="0.0075;0.01;0.0075" dur=".25s" repeatCount="indefinite"
                > -->
                </animate>
                </feTurbulence>
            <feDisplacementMap in="shape" scale="10" xChannelSelector="R" yChannelSelector="G" result="displacedImage"
                width="100%" height="100%" />
            <feMerge result="effect1_texture_174_239">
                <feMergeNode in="displacedImage" />
            </feMerge>
        </filter>
    </defs>
</svg>