<svg width="606" height="449" viewBox="0 0 606 449" fill="none" xmlns="http://www.w3.org/2000/svg">
<g filter="url(#filter0_g_167_220)">
<path d="M105.96 52.0101C111.401 49.2895 116.669 51.3641 120.469 54.2957C124.226 57.1931 127.736 61.7189 130.981 66.8807C137.543 77.3194 144.141 92.2413 150.056 107.993C158.2 129.68 165.354 153.776 169.498 171.29C186.761 139.568 214.975 122.917 241.445 118.561C256.854 116.026 271.903 117.618 283.915 123.087C295.992 128.586 305.255 138.18 307.905 151.425C308.26 153.201 307.778 155.044 306.593 156.414C305.408 157.784 303.653 158.531 301.844 158.436C275.274 157.038 249.523 165.124 231.644 179.041C213.847 192.895 204.22 212.118 208.204 233.631C215.125 271.002 237.434 287.718 260.767 289.339C284.614 290.995 311.179 277.042 326.344 249.47L326.722 248.869C327.68 247.537 329.162 246.659 330.812 246.468C332.698 246.251 334.572 246.96 335.842 248.37C343.227 256.576 347.588 266.325 347.751 276.857C347.914 287.39 343.871 298.048 335.653 308.07C319.841 327.354 288.146 344.884 237.476 356.721L234.697 440.194C234.592 443.355 231.995 445.865 228.832 445.865H41.1269C39.4612 445.864 37.8744 445.157 36.762 443.917C35.6493 442.676 35.1148 441.02 35.2955 439.363L52.7439 279.4C52.6686 279.193 52.5839 278.962 52.4919 278.707C52.0216 277.407 51.3337 275.503 50.4698 273.076C48.7416 268.223 46.2969 261.279 43.4354 252.913C37.7144 236.186 30.3099 213.732 23.5869 190.893C16.8785 168.102 10.7871 144.726 7.77107 126.209C6.26987 116.992 5.4745 108.655 5.85209 102.081C6.0406 98.8021 6.53926 95.6487 7.57058 92.9387C8.60264 90.2282 10.3792 87.444 13.4364 85.8127L14.33 85.3717C18.7872 83.3508 23.3437 83.8953 27.3561 85.8987C31.3751 87.9058 34.9921 91.4068 38.2055 95.3962C41.7606 99.81 45.2391 105.377 48.5966 111.561C47.7959 106.125 47.2258 100.895 46.9583 96.0549C46.6017 89.5998 46.7707 83.5197 47.8462 78.4461C48.8884 73.531 51.0219 68.4357 55.5508 65.5231C60.5709 62.296 65.885 63.3119 70.1178 65.9069C74.0827 68.3382 77.7397 72.44 81.0531 77.0943C86.787 85.1491 92.5503 96.4016 97.9287 108.566C96.754 99.2796 95.9723 90.3389 95.8894 82.5018C95.8185 75.7997 96.2416 69.5736 97.499 64.5207C98.6904 59.7344 101.008 54.4862 105.96 52.0101ZM111.207 62.5043C111.026 62.5949 109.861 63.4434 108.887 67.3562C107.979 71.004 107.555 76.0872 107.621 82.3758C107.753 94.8939 109.796 110.89 112.53 126.839C115.254 142.729 118.622 158.333 121.312 169.979C122.655 175.796 123.827 180.617 124.663 183.978C124.729 184.244 124.796 184.499 124.857 184.746C125.335 186.535 125.733 188.091 126.032 189.38C126.755 192.503 124.836 195.628 121.724 196.397C118.611 197.166 115.458 195.294 114.644 192.193L114.638 192.187V192.181C114.637 192.177 114.634 192.171 114.632 192.164L114.546 191.821C114.485 191.582 114.394 191.23 114.277 190.772C114.06 189.924 113.748 188.711 113.366 187.181C109.596 173.217 100.462 144.604 89.8461 119.421C83.7968 105.07 77.4311 92.2354 71.4926 83.8938C68.4807 79.6634 65.9256 77.0996 63.9828 75.9085C62.3075 74.8816 62.0102 75.3206 61.8977 75.393C61.2956 75.7804 60.1278 77.0973 59.3257 80.8807C58.5567 84.5084 58.3419 89.4209 58.6727 95.4076C59.3319 107.337 62.0767 122.298 65.5352 137.133C68.9799 151.908 73.0717 166.308 76.3044 177.03C77.9188 182.385 79.3156 186.812 80.3084 189.896C80.8047 191.437 81.2014 192.642 81.4713 193.459C81.606 193.867 81.7054 194.179 81.7749 194.387C81.8096 194.491 81.8378 194.57 81.8551 194.622C81.8636 194.647 81.8682 194.667 81.8723 194.679L81.878 194.69C82.9082 197.741 81.2883 201.058 78.2463 202.114C75.2044 203.17 71.8812 201.573 70.7995 198.54C70.788 198.507 70.7767 198.475 70.7651 198.442L70.7537 198.42C70.7487 198.405 70.7453 198.383 70.7365 198.357L70.6505 198.104C66.1223 185.353 56.8049 156.795 45.8757 132.573C40.3262 120.274 34.5635 109.579 29.0689 102.757C26.3003 99.3199 23.9451 97.307 22.1147 96.3929C20.5962 95.635 19.7743 95.7529 19.0329 96.1294C18.9464 96.2359 18.7619 96.5172 18.5345 97.1147C18.0946 98.2706 17.7189 100.102 17.5665 102.757C17.2624 108.052 17.8991 115.394 19.3537 124.324C22.2493 142.1 28.165 164.914 34.8373 187.582C41.4956 210.201 48.847 232.48 54.5369 249.115C57.3804 257.428 59.8052 264.326 61.5196 269.141C62.3764 271.547 63.0605 273.432 63.5245 274.715C63.7566 275.356 63.9316 275.852 64.0515 276.181C64.1107 276.344 64.1589 276.465 64.189 276.548C64.2041 276.589 64.2159 276.625 64.2234 276.645L64.2291 276.668L64.2349 276.674C64.5451 277.521 64.6533 278.429 64.5556 279.326L47.6686 434.133H223.161L225.904 351.817L226.019 350.838C226.475 348.602 228.207 346.798 230.493 346.29C282.81 334.663 312.785 317.455 326.579 300.635C333.392 292.327 336.131 284.288 336.019 277.04C335.944 272.176 334.576 267.375 331.929 262.788C314.28 288.947 286.418 302.88 259.953 301.042C230.496 298.995 204.411 277.581 196.667 235.768C191.699 208.94 204.071 185.632 224.438 169.778C242.702 155.562 267.693 147.012 293.768 146.567C290.78 141.177 285.759 136.816 279.057 133.764C269.531 129.427 256.899 127.908 243.347 130.138C216.382 134.577 186.674 153.73 172.763 192.68C171.841 195.257 169.26 196.856 166.542 196.529C163.823 196.202 161.693 194.035 161.41 191.311C160.088 178.626 150.762 143.256 139.069 112.117C133.237 96.585 126.976 82.5459 121.054 73.1246C118.056 68.3569 115.42 65.2196 113.303 63.587C112.276 62.7942 111.63 62.5621 111.362 62.5043C111.212 62.4722 111.238 62.4888 111.207 62.5043Z" fill="var(--color-text)"/>
<path d="M332.537 143.91L281.936 212.664C276.583 219.938 281.112 230.278 290.087 231.277L373.698 240.584C382.608 241.576 389.293 232.613 385.801 224.356L352.791 146.294C349.248 137.915 337.929 136.583 332.537 143.91Z" fill="var(--color-accent)"/>
<path d="M395.627 129.226C398.035 127.062 401.739 127.259 403.905 129.666C406.071 132.074 405.877 135.779 403.47 137.946L395.726 144.92L405.487 148.096C408.568 149.098 410.253 152.408 409.251 155.488C408.248 158.569 404.939 160.254 401.858 159.252L392.096 156.076C383.509 153.282 381.164 142.239 387.877 136.198L395.627 129.226ZM444.55 160.803C447.63 161.806 449.315 165.115 448.313 168.196C447.311 171.276 444.001 172.962 440.921 171.959L421.392 165.606C418.312 164.604 416.627 161.294 417.629 158.214C418.631 155.133 421.941 153.448 425.021 154.45L444.55 160.803ZM476.438 153.292C479.614 152.661 482.698 154.72 483.331 157.896L485.355 168.042C487.105 176.835 478.741 184.263 470.216 181.49L460.449 178.312C457.37 177.309 455.684 173.999 456.686 170.92C457.688 167.84 460.998 166.156 464.078 167.156L473.845 170.334L471.828 160.184C471.198 157.008 473.261 153.924 476.438 153.292ZM468.36 112.703C471.537 112.071 474.626 114.132 475.259 117.308L479.295 137.602C479.927 140.779 477.865 143.868 474.689 144.501C471.513 145.133 468.424 143.072 467.79 139.896L463.749 119.6C463.117 116.423 465.183 113.335 468.36 112.703ZM426.61 101.35C429.018 99.1828 432.729 99.3777 434.895 101.786C437.061 104.194 436.861 107.903 434.453 110.069L418.961 124.01C416.553 126.176 412.842 125.982 410.676 123.574C408.51 121.166 408.71 117.457 411.117 115.29L426.61 101.35ZM449.845 80.4399C456.608 74.3552 467.429 77.948 469.204 86.8702L471.221 97.0199C471.852 100.196 469.786 103.285 466.61 103.917C463.433 104.548 460.345 102.483 459.713 99.3059L457.694 89.1616L449.951 96.1303C447.544 98.2967 443.833 98.1009 441.666 95.6938C439.499 93.2856 439.694 89.5754 442.103 87.4085L449.845 80.4399Z" fill="var(--color-text)"/>
<path d="M523.366 59.5327L487.9 65.5738C484.181 66.2073 482.019 70.1353 483.472 73.6163L501.308 116.335C502.437 119.04 505.39 120.496 508.224 119.745L534.478 112.786C537.487 111.988 539.349 108.979 538.72 105.93L530.095 64.1299C529.457 61.0348 526.481 59.002 523.366 59.5327Z" fill="var(--color-text)"/>
<path d="M512.056 152.054L512.972 187.826C513.038 190.409 514.787 192.645 517.278 193.331L565.16 206.518C567.292 207.105 569.574 206.443 571.061 204.806L593.572 180.011C595.478 177.911 595.609 174.749 593.884 172.499L566.434 136.698C564.993 134.819 562.564 133.99 560.275 134.598L516.416 146.234C513.79 146.93 511.986 149.338 512.056 152.054Z" fill="var(--color-text)"/>
<path d="M441.59 46.4519L425.715 12.4325C424.06 8.88601 426.286 4.7323 430.168 4.23629C457.529 0.740356 473.959 3.48285 495.9 27.9791C498.687 31.09 497.197 35.9827 493.197 37.1827L473.678 43.0384C472.749 43.3173 471.903 43.8226 471.216 44.509L465.537 50.1881C464.232 51.4936 462.388 52.1083 460.56 51.8472L446.076 49.7781C444.115 49.498 442.428 48.247 441.59 46.4519Z" fill="var(--color-text)"/>
<path d="M389.788 33.1538L351.474 68.2586C349.304 70.2467 348.943 73.535 350.63 75.9464L372.502 107.206C374.482 110.035 378.466 110.551 381.101 108.318L419.556 75.726C421.811 73.8149 422.291 70.5245 420.677 68.0482L398.665 34.2758C396.687 31.2413 392.459 30.7069 389.788 33.1538Z" fill="var(--color-text)"/>
</g>
<defs>
<filter id="filter0_g_167_220" x="0" y="0" width="598.095" height="448.865" filterUnits="userSpaceOnUse" color-interpolation-filters="sRGB">
<feFlood flood-opacity="0" result="BackgroundImageFix"/>
<feBlend mode="normal" in="SourceGraphic" in2="BackgroundImageFix" result="shape"/>
<feTurbulence type="fractalNoise" baseFrequency="0.045454546809196472 0.045454546809196472" numOctaves="3" seed="3306" />
<feDisplacementMap in="shape" scale="6" xChannelSelector="R" yChannelSelector="G" result="displacedImage" width="100%" height="100%" />
<feMerge result="effect1_texture_167_220">
<feMergeNode in="displacedImage"/>
</feMerge>
</filter>
</defs>
</svg>
