<svg width="280" height="256" viewBox="0 0 280 256" fill="none" xmlns="http://www.w3.org/2000/svg">
<g filter="url(#filter0_g_123_754)">
<path d="M12.3607 221.065C11.9544 221.236 11.6321 221.561 11.4644 221.969C11.2966 222.378 11.2971 222.835 11.4661 223.242C11.635 223.649 11.9587 223.972 12.3663 224.141C12.7739 224.31 13.2319 224.311 13.6393 224.144C13.6393 224.144 13.6393 224.144 13.6393 224.144C19.5477 221.63 23.7966 217.099 27.853 212.903C31.8065 208.768 35.2809 204.253 38.5297 199.638C42.2772 194.311 45.7244 188.828 49.2614 183.468C62.0361 164.119 73.7444 144.066 84.3943 123.468C99.5816 94.1235 112.883 63.6958 122.995 32.143C124.427 27.5817 126.592 22.8222 126.603 17.0439C126.557 16.6715 126.684 16.2701 126.032 15.2579C125.687 14.7416 124.893 14.2584 124.288 14.1856C123.655 14.09 123.282 14.1935 123.011 14.2632C122.004 14.605 121.818 14.8706 121.477 15.1105C120.889 15.5894 120.491 16.0102 120.087 16.445C119.297 17.317 118.631 18.1328 117.929 19.1484C109.814 31.2162 104.318 44.5792 99.3701 57.9006C92.5248 76.6795 89.0817 98.3465 97.2229 117.96C101.891 130.173 117.061 141.564 131.098 134.693C148.28 126.645 157.677 110.224 166.872 95.965C176.082 81.5339 183.674 65.7687 187.808 48.8942C188.84 44.6362 189.981 39.8929 189.279 34.7251C189.127 33.7134 188.963 32.7923 188.533 31.5946C188.242 30.9726 188.205 30.3384 186.875 29.1093C186.263 28.474 184.316 27.8849 183.125 28.3849C181.954 28.8004 181.531 29.3174 181.164 29.6872C175.056 36.8872 173.554 45.1439 171.169 52.4425C167.476 64.2617 166.876 77.6425 172.051 89.5934C174.116 94.2708 177.104 99.0414 182.169 102.115C187.241 105.307 193.991 105.079 198.942 103.029C211.385 98.0135 221.12 89.5771 230.444 81.2835C236.76 75.5845 242.662 69.4773 248.235 63.1113C253.32 57.2993 258.132 51.2676 262.709 45.0745C264.106 43.1209 264.942 41.5464 265.923 40.1567C266.813 38.796 268.038 37.698 268.153 37.7578C269.15 37.3967 269.962 36.6544 270.409 35.6921C270.855 34.7299 270.901 33.6267 270.535 32.627C270.169 31.6272 269.423 30.8136 268.46 30.3669C267.498 29.9201 266.399 29.8769 265.404 30.2448C265.404 30.2448 265.404 30.2448 265.404 30.2448C259.007 33.5314 258.388 37.9225 256.323 40.3877C251.904 46.4523 247.263 52.3499 242.373 58.016C237.014 64.2222 231.355 70.1551 225.337 75.6591C216.333 83.8322 206.896 91.8677 196.276 96.1847C188.753 99.6108 181.932 94.763 178.601 86.7191C174.224 76.8728 174.513 65.1154 177.77 54.4902C180.062 46.929 181.914 39.1316 186.161 34.2277C186.081 34.286 185.977 34.5211 185.202 34.8045C184.825 34.9355 184.21 34.9932 183.693 34.8614C183.166 34.7352 182.814 34.4984 182.612 34.3339C182.214 33.9876 182.203 33.8726 182.178 33.8459C182.165 33.8207 182.196 33.8781 182.228 33.9629C182.371 34.3264 182.538 35.0508 182.629 35.6751C183.158 39.1947 182.372 43.1653 181.365 47.3321C177.556 63.3582 170.414 78.5229 161.561 92.6061C152.49 107.059 143.373 122.389 128.642 129.293C118.554 134.465 106.722 126.264 102.444 115.731C94.9964 98.2988 97.8308 77.7815 104.322 59.7119C109.117 46.5084 114.427 33.4447 122.066 21.9287C122.528 21.2447 123.161 20.4472 123.754 19.7896C124.05 19.4621 124.368 19.1425 124.584 18.9674C124.633 18.9264 124.675 18.8968 124.676 18.8964C124.665 18.8959 124.663 18.9284 124.368 19.021C124.218 19.0567 123.975 19.1384 123.473 19.0641C122.993 19.0109 122.316 18.5975 122.049 18.189C121.781 17.815 121.728 17.5518 121.694 17.4088C121.662 17.248 121.664 17.1961 121.662 17.1451C121.733 21.3238 119.904 25.8852 118.38 30.6793C108.58 61.9924 95.5918 92.2755 80.6843 121.565C70.2385 142.109 58.7376 162.119 46.168 181.442C42.6373 186.873 39.248 192.343 35.6057 197.595C32.4493 202.146 29.1046 206.545 25.3504 210.524C21.3726 214.73 17.3145 218.946 12.3607 221.065Z" fill="currentColor"/>
</g>
<defs>
<filter id="filter0_g_123_754" x="8.0979" y="10.906" width="265.923" height="216.604" filterUnits="userSpaceOnUse" color-interpolation-filters="sRGB">
<feFlood flood-opacity="0" result="BackgroundImageFix"/>
<feBlend mode="normal" in="SourceGraphic" in2="BackgroundImageFix" result="shape"/>
<feTurbulence type="fractalNoise" baseFrequency="0.77137553691864014 0.77137553691864014" numOctaves="3" seed="2196" />
<feDisplacementMap in="shape" scale="6.4819269180297852" xChannelSelector="R" yChannelSelector="G" result="displacedImage" width="100%" height="100%" />
<feMerge result="effect1_texture_123_754">
<feMergeNode in="displacedImage"/>
</feMerge>
</filter>
</defs>
</svg>
